SplineFontDB: 3.0
FontName: FdSymbolD-Bold
FullName: FdSymbolD-Bold
FamilyName: FdSymbolD
Weight: Bold
Copyright: Copyright (c) 2012, Michael Ummels. This Font Software is licensed under the SIL Open Font License, Version 1.1.
Version: 1.008
ItalicAngle: 0
UnderlinePosition: -100
UnderlineWidth: 50
Ascent: 800
Descent: 200
InvalidEm: 0
LayerCount: 2
Layer: 0 0 "Back" 1
Layer: 1 0 "Fore" 0
UniqueID: 4852222
OS2Version: 0
OS2_WeightWidthSlopeOnly: 0
OS2_UseTypoMetrics: 0
CreationTime: 1431875168
ModificationTime: 1431875168
OS2TypoAscent: 0
OS2TypoAOffset: 1
OS2TypoDescent: 0
OS2TypoDOffset: 1
OS2TypoLinegap: 0
OS2WinAscent: 0
OS2WinAOffset: 1
OS2WinDescent: 0
OS2WinDOffset: 1
HheadAscent: 0
HheadAOffset: 1
HheadDescent: 0
HheadDOffset: 1
OS2Vendor: 'PfEd'
DEI: 91125
Encoding: Custom
UnicodeInterp: none
NameList: AGL For New Fonts
DisplaySize: -48
AntiAlias: 1
FitToEm: 0
BeginPrivate: 2
BlueValues 31 [-10 0 546 556 707 717 754 764]
OtherBlues 11 [-230 -220]
EndPrivate
BeginChars: 256 232

StartChar: uni219B
Encoding: 0 8603 0
Width: 930
Flags: W
HStem: 225 100<90 322 454 669>
LayerCount: 2
Back
Fore
SplineSet
445 564 m 1
 530 533 l 1
 454 325 l 1
 669 325 l 1
 601 394 l 1
 671 464 l 1
 861 275 l 1
 671 86 l 1
 601 156 l 1
 669 225 l 1
 418 225 l 1
 331 -14 l 1
 246 17 l 1
 322 225 l 1
 90 225 l 1
 90 325 l 1
 358 325 l 1
 445 564 l 1
EndSplineSet
EndChar

StartChar: uni21910338
Encoding: 1 -1 1
Width: 742
Flags: W
VStem: 321 100<-100 132 264 479>
LayerCount: 2
Back
Fore
SplineSet
113 56 m 1
 82 141 l 1
 321 228 l 1
 321 479 l 1
 252 411 l 1
 182 481 l 1
 371 671 l 1
 560 481 l 1
 490 411 l 1
 421 479 l 1
 421 264 l 1
 629 340 l 1
 660 255 l 1
 421 168 l 1
 421 -100 l 1
 321 -100 l 1
 321 132 l 1
 113 56 l 1
EndSplineSet
EndChar

StartChar: uni219A
Encoding: 2 8602 2
Width: 930
Flags: W
HStem: 225 100<261 476 608 840>
LayerCount: 2
Back
Fore
SplineSet
485 -14 m 1
 400 17 l 1
 476 225 l 1
 261 225 l 1
 329 156 l 1
 259 86 l 1
 69 275 l 1
 259 464 l 1
 329 394 l 1
 261 325 l 1
 512 325 l 1
 599 564 l 1
 684 533 l 1
 608 325 l 1
 840 325 l 1
 840 225 l 1
 572 225 l 1
 485 -14 l 1
EndSplineSet
EndChar

StartChar: uni21930338
Encoding: 3 -1 3
Width: 742
Flags: W
VStem: 321 100<71 286 418 650>
LayerCount: 2
Back
Fore
SplineSet
629 494 m 1
 660 409 l 1
 421 322 l 1
 421 71 l 1
 490 139 l 1
 560 69 l 1
 371 -121 l 1
 182 69 l 1
 252 139 l 1
 321 71 l 1
 321 286 l 1
 113 210 l 1
 82 295 l 1
 321 382 l 1
 321 650 l 1
 421 650 l 1
 421 418 l 1
 629 494 l 1
EndSplineSet
EndChar

StartChar: uni21970338
Encoding: 4 -1 4
Width: 1108
Flags: W
HStem: 455 100<566 663>
VStem: 734 100<287 384>
LayerCount: 2
Back
Fore
SplineSet
336 465 m 1
 417 503 l 1
 511 303 l 1
 663 455 l 1
 566 455 l 1
 566 555 l 1
 834 555 l 1
 834 287 l 1
 734 287 l 1
 734 384 l 1
 556 206 l 1
 663 -24 l 1
 582 -62 l 1
 488 138 l 1
 324 -26 l 1
 253 45 l 1
 443 235 l 1
 336 465 l 1
EndSplineSet
EndChar

StartChar: uni21960338
Encoding: 5 -1 5
Width: 1108
Flags: W
HStem: 455 100<444 542>
VStem: 274 100<287 384>
LayerCount: 2
Back
Fore
SplineSet
526 -62 m 1
 445 -24 l 1
 552 206 l 1
 374 384 l 1
 374 287 l 1
 274 287 l 1
 274 555 l 1
 542 555 l 1
 542 455 l 1
 444 455 l 1
 597 302 l 1
 690 503 l 1
 772 465 l 1
 664 235 l 1
 854 45 l 1
 784 -26 l 1
 620 138 l 1
 526 -62 l 1
EndSplineSet
EndChar

StartChar: uni21990338
Encoding: 6 -1 6
Width: 1108
Flags: W
HStem: -5 100<444 542>
VStem: 274 100<166 263>
LayerCount: 2
Back
Fore
SplineSet
772 85 m 1
 690 47 l 1
 597 248 l 1
 444 95 l 1
 542 95 l 1
 542 -5 l 1
 274 -5 l 1
 274 263 l 1
 374 263 l 1
 374 166 l 1
 552 344 l 1
 445 574 l 1
 526 612 l 1
 620 412 l 1
 784 576 l 1
 854 505 l 1
 664 315 l 1
 772 85 l 1
EndSplineSet
EndChar

StartChar: uni21980338
Encoding: 7 -1 7
Width: 1108
Flags: W
HStem: -5 100<566 663>
VStem: 734 100<166 263>
LayerCount: 2
Back
Fore
SplineSet
582 612 m 1
 663 574 l 1
 556 344 l 1
 734 166 l 1
 734 263 l 1
 834 263 l 1
 834 -5 l 1
 566 -5 l 1
 566 95 l 1
 663 95 l 1
 511 247 l 1
 417 47 l 1
 336 85 l 1
 443 315 l 1
 253 505 l 1
 324 576 l 1
 488 412 l 1
 582 612 l 1
EndSplineSet
EndChar

StartChar: uni21CF
Encoding: 8 8655 8
Width: 1080
Flags: W
HStem: 129 100<90 285 417 723> 321 100<90 355 487 723>
LayerCount: 2
Back
Fore
SplineSet
823 321 m 1
 450 321 l 1
 417 229 l 1
 823 229 l 1
 869 275 l 1
 823 321 l 1
466 625 m 1
 550 594 l 1
 487 421 l 1
 723 421 l 1
 704 440 l 1
 775 511 l 1
 1011 275 l 1
 775 39 l 1
 704 110 l 1
 723 129 l 1
 380 129 l 1
 306 -75 l 1
 222 -44 l 1
 285 129 l 1
 90 129 l 1
 90 229 l 1
 322 229 l 1
 355 321 l 1
 90 321 l 1
 90 421 l 1
 392 421 l 1
 466 625 l 1
EndSplineSet
EndChar

StartChar: uni21D10338
Encoding: 9 -1 9
Width: 865
Flags: W
VStem: 286 100<-175 20 152 457> 479 100<-175 90 222 457>
LayerCount: 2
Back
Fore
SplineSet
386 557 m 1
 386 152 l 1
 479 186 l 1
 479 558 l 1
 433 604 l 1
 386 557 l 1
113 -43 m 1
 82 41 l 1
 286 115 l 1
 286 457 l 1
 268 439 l 1
 197 510 l 1
 433 746 l 1
 668 510 l 1
 597 439 l 1
 579 457 l 1
 579 222 l 1
 752 285 l 1
 783 201 l 1
 579 127 l 1
 579 -175 l 1
 479 -175 l 1
 479 90 l 1
 386 56 l 1
 386 -175 l 1
 286 -175 l 1
 286 20 l 1
 113 -43 l 1
EndSplineSet
EndChar

StartChar: uni21CD
Encoding: 10 8653 10
Width: 1080
Flags: W
HStem: 129 100<357 593 725 990> 321 100<357 663 795 990>
LayerCount: 2
Back
Fore
SplineSet
257 229 m 1
 630 229 l 1
 663 321 l 1
 257 321 l 1
 211 275 l 1
 257 229 l 1
614 -75 m 1
 530 -44 l 1
 593 129 l 1
 357 129 l 1
 376 110 l 1
 305 39 l 1
 69 275 l 1
 305 511 l 1
 376 440 l 1
 357 421 l 1
 700 421 l 1
 774 625 l 1
 858 594 l 1
 795 421 l 1
 990 421 l 1
 990 321 l 1
 758 321 l 1
 725 229 l 1
 990 229 l 1
 990 129 l 1
 688 129 l 1
 614 -75 l 1
EndSplineSet
EndChar

StartChar: uni21D30338
Encoding: 11 -1 11
Width: 865
Flags: W
VStem: 286 100<93 328 460 725> 479 100<93 398 530 725>
LayerCount: 2
Back
Fore
SplineSet
479 -8 m 1
 479 398 l 1
 386 364 l 1
 386 -7 l 1
 433 -54 l 1
 479 -8 l 1
752 593 m 1
 783 509 l 1
 579 435 l 1
 579 93 l 1
 597 111 l 1
 668 40 l 1
 433 -196 l 1
 197 40 l 1
 268 111 l 1
 286 93 l 1
 286 328 l 1
 113 265 l 1
 82 349 l 1
 286 423 l 1
 286 725 l 1
 386 725 l 1
 386 460 l 1
 479 494 l 1
 479 725 l 1
 579 725 l 1
 579 530 l 1
 752 593 l 1
EndSplineSet
EndChar

StartChar: uni21D70338
Encoding: 12 -1 12
Width: 1301
Flags: W
HStem: -10 21G<279.714 320.108> 508 100<650 677 819 883>
VStem: 883 100<275 300 442 508>
LayerCount: 2
Back
Fore
SplineSet
819 508 m 1
 555 244 l 1
 596 155 l 1
 883 442 l 1
 883 508 l 1
 819 508 l 1
350 470 m 1
 432 508 l 1
 510 341 l 1
 677 508 l 1
 650 508 l 1
 650 608 l 1
 983 608 l 1
 983 275 l 1
 883 275 l 1
 883 300 l 1
 641 58 l 1
 733 -138 l 1
 651 -176 l 1
 573 -10 l 1
 436 -147 l 1
 365 -76 l 1
 528 87 l 1
 487 176 l 1
 300 -10 l 1
 229 60 l 1
 442 273 l 1
 350 470 l 1
EndSplineSet
EndChar

StartChar: uni21D60338
Encoding: 13 -1 13
Width: 1301
Flags: W
HStem: -10 21G<980.892 1021.29> 508 100<418 482 624 651>
VStem: 318 100<275 300 442 508>
LayerCount: 2
Back
Fore
SplineSet
418 442 m 1
 705 155 l 1
 746 244 l 1
 482 508 l 1
 418 508 l 1
 418 442 l 1
650 -176 m 1
 568 -138 l 1
 660 58 l 1
 418 300 l 1
 418 275 l 1
 318 275 l 1
 318 608 l 1
 651 608 l 1
 651 508 l 1
 624 508 l 1
 791 341 l 1
 869 508 l 1
 951 470 l 1
 859 273 l 1
 1072 60 l 1
 1001 -10 l 1
 814 176 l 1
 773 87 l 1
 936 -76 l 1
 865 -147 l 1
 728 -10 l 1
 650 -176 l 1
EndSplineSet
EndChar

StartChar: uni21D90338
Encoding: 14 -1 14
Width: 1301
Flags: W
HStem: -58 100<418 482 624 651>
VStem: 318 100<42 108 250 275>
LayerCount: 2
Back
Fore
SplineSet
482 42 m 1
 746 306 l 1
 705 395 l 1
 418 108 l 1
 418 42 l 1
 482 42 l 1
951 80 m 1
 869 42 l 1
 791 209 l 1
 624 42 l 1
 651 42 l 1
 651 -58 l 1
 318 -58 l 1
 318 275 l 1
 418 275 l 1
 418 250 l 1
 660 492 l 1
 568 688 l 1
 650 726 l 1
 728 560 l 1
 865 697 l 1
 936 626 l 1
 773 463 l 1
 814 374 l 1
 1001 560 l 1
 1072 490 l 1
 859 277 l 1
 951 80 l 1
EndSplineSet
EndChar

StartChar: uni21D80338
Encoding: 15 -1 15
Width: 1301
Flags: W
HStem: -58 100<650 677 819 883>
VStem: 883 100<42 108 250 275>
LayerCount: 2
Back
Fore
SplineSet
883 108 m 1
 596 395 l 1
 555 306 l 1
 819 42 l 1
 883 42 l 1
 883 108 l 1
651 726 m 1
 733 688 l 1
 641 492 l 1
 883 250 l 1
 883 275 l 1
 983 275 l 1
 983 -58 l 1
 650 -58 l 1
 650 42 l 1
 677 42 l 1
 510 209 l 1
 432 42 l 1
 350 80 l 1
 442 277 l 1
 229 490 l 1
 300 560 l 1
 487 374 l 1
 528 463 l 1
 365 626 l 1
 436 697 l 1
 573 560 l 1
 651 726 l 1
EndSplineSet
EndChar

StartChar: uni21AE
Encoding: 16 8622 16
Width: 1080
Flags: W
HStem: 225 100<261 474 606 819>
LayerCount: 2
Back
Fore
SplineSet
597 564 m 1
 682 533 l 1
 606 325 l 1
 819 325 l 1
 751 394 l 1
 821 464 l 1
 1011 275 l 1
 821 86 l 1
 751 156 l 1
 819 225 l 1
 570 225 l 1
 483 -14 l 1
 398 17 l 1
 474 225 l 1
 261 225 l 1
 329 156 l 1
 259 86 l 1
 69 275 l 1
 259 464 l 1
 329 394 l 1
 261 325 l 1
 510 325 l 1
 597 564 l 1
EndSplineSet
EndChar

StartChar: uni21950338
Encoding: 17 -1 17
Width: 742
Flags: W
VStem: 321 100<-4 209 341 554>
LayerCount: 2
Back
Fore
SplineSet
113 133 m 1
 82 218 l 1
 321 305 l 1
 321 554 l 1
 252 486 l 1
 182 556 l 1
 371 746 l 1
 560 556 l 1
 490 486 l 1
 421 554 l 1
 421 341 l 1
 629 417 l 1
 660 332 l 1
 421 245 l 1
 421 -4 l 1
 490 64 l 1
 560 -6 l 1
 371 -196 l 1
 182 -6 l 1
 252 64 l 1
 321 -4 l 1
 321 209 l 1
 113 133 l 1
EndSplineSet
EndChar

StartChar: uni29210338
Encoding: 18 -1 18
Width: 1214
Flags: W
HStem: -58 100<444 542> -8 21G<679.647 732.158> 508 100<672 769>
VStem: 274 100<113 210> 840 100<340 437>
LayerCount: 2
Back
Fore
SplineSet
443 520 m 1xb8
 525 558 l 1
 618 357 l 1
 769 508 l 1
 672 508 l 1
 672 608 l 1
 940 608 l 1
 940 340 l 1
 840 340 l 1
 840 437 l 1
 663 261 l 1
 771 30 l 1
 689 -8 l 1x78
 595 193 l 1
 444 42 l 1
 542 42 l 1
 542 -58 l 1
 274 -58 l 1
 274 210 l 1
 374 210 l 1
 374 113 l 1
 550 289 l 1
 443 520 l 1xb8
EndSplineSet
EndChar

StartChar: uni29220338
Encoding: 19 -1 19
Width: 1214
Flags: W
HStem: -58 100<672 769> -8 21G<481.842 534.254> 508 100<444 542>
VStem: 274 100<340 437> 840 100<113 210>
LayerCount: 2
Back
Fore
SplineSet
525 -8 m 1x78
 443 30 l 1
 550 261 l 1
 374 437 l 1
 374 340 l 1
 274 340 l 1
 274 608 l 1
 542 608 l 1
 542 508 l 1
 444 508 l 1
 595 357 l 1
 689 558 l 1
 771 520 l 1
 663 289 l 1
 840 113 l 1
 840 210 l 1
 940 210 l 1
 940 -58 l 1
 672 -58 l 1
 672 42 l 1
 769 42 l 1xb8
 618 193 l 1
 525 -8 l 1x78
EndSplineSet
EndChar

StartChar: uni21CE
Encoding: 20 8654 20
Width: 1230
Flags: W
HStem: 129 100<357 514 646 873> 321 100<357 584 716 873>
LayerCount: 2
Back
Fore
SplineSet
257 321 m 1
 211 275 l 1
 257 229 l 1
 551 229 l 1
 584 321 l 1
 257 321 l 1
973 321 m 1
 679 321 l 1
 646 229 l 1
 973 229 l 1
 1019 275 l 1
 973 321 l 1
695 625 m 1
 779 594 l 1
 716 421 l 1
 873 421 l 1
 854 440 l 1
 925 511 l 1
 1161 275 l 1
 925 39 l 1
 854 110 l 1
 873 129 l 1
 609 129 l 1
 535 -75 l 1
 451 -44 l 1
 514 129 l 1
 357 129 l 1
 376 110 l 1
 305 39 l 1
 69 275 l 1
 305 511 l 1
 376 440 l 1
 357 421 l 1
 621 421 l 1
 695 625 l 1
EndSplineSet
EndChar

StartChar: uni21D50338
Encoding: 21 -1 21
Width: 865
Flags: W
VStem: 286 100<18 174 306 532> 479 100<18 244 376 532>
LayerCount: 2
Back
Fore
SplineSet
386 -82 m 1
 433 -129 l 1
 479 -83 l 1
 479 244 l 1
 386 210 l 1
 386 -82 l 1
386 632 m 1
 386 306 l 1
 479 340 l 1
 479 633 l 1
 433 679 l 1
 386 632 l 1
113 111 m 1
 82 195 l 1
 286 269 l 1
 286 532 l 1
 268 514 l 1
 197 585 l 1
 433 821 l 1
 668 585 l 1
 597 514 l 1
 579 532 l 1
 579 376 l 1
 752 439 l 1
 783 355 l 1
 579 281 l 1
 579 18 l 1
 597 36 l 1
 668 -35 l 1
 433 -271 l 1
 197 -35 l 1
 268 36 l 1
 286 18 l 1
 286 174 l 1
 113 111 l 1
EndSplineSet
EndChar

StartChar: sym030_uni0338
Encoding: 22 -1 22
Width: 1407
Flags: W
HStem: -111 100<418 483 624 651> 561 100<756 783 924 989>
VStem: 318 100<-11 55 197 222> 989 100<328 353 495 561>
LayerCount: 2
Back
Fore
SplineSet
418 55 m 1
 418 -11 l 1
 483 -11 l 1
 690 196 l 1
 649 286 l 1
 418 55 l 1
924 561 m 1
 717 354 l 1
 758 264 l 1
 989 495 l 1
 989 561 l 1
 924 561 l 1
512 579 m 1
 594 617 l 1
 672 450 l 1
 783 561 l 1
 756 561 l 1
 756 661 l 1
 1089 661 l 1
 1089 328 l 1
 989 328 l 1
 989 353 l 1
 803 168 l 1
 895 -29 l 1
 813 -67 l 1
 735 100 l 1
 624 -11 l 1
 651 -11 l 1
 651 -111 l 1
 318 -111 l 1
 318 222 l 1
 418 222 l 1
 418 197 l 1
 604 382 l 1
 512 579 l 1
EndSplineSet
EndChar

StartChar: sym031_uni0338
Encoding: 23 -1 23
Width: 1407
Flags: W
HStem: -111 100<756 783 924 989> 561 100<418 483 624 651>
VStem: 318 100<328 353 495 561> 989 100<-11 55 197 222>
LayerCount: 2
Back
Fore
SplineSet
924 -11 m 1
 989 -11 l 1
 989 55 l 1
 758 286 l 1
 717 196 l 1
 924 -11 l 1
418 495 m 1
 649 264 l 1
 690 354 l 1
 483 561 l 1
 418 561 l 1
 418 495 l 1
594 -67 m 1
 512 -29 l 1
 604 168 l 1
 418 353 l 1
 418 328 l 1
 318 328 l 1
 318 661 l 1
 651 661 l 1
 651 561 l 1
 624 561 l 1
 735 450 l 1
 813 617 l 1
 895 579 l 1
 803 382 l 1
 989 197 l 1
 989 222 l 1
 1089 222 l 1
 1089 -111 l 1
 756 -111 l 1
 756 -11 l 1
 783 -11 l 1
 672 100 l 1
 594 -67 l 1
EndSplineSet
EndChar

StartChar: uni21A00338
Encoding: 24 -1 24
Width: 1118
Flags: W
HStem: 225 100<90 299 430 622 764 857>
LayerCount: 2
Back
Fore
SplineSet
422 564 m 1
 506 533 l 1
 430 325 l 1
 622 325 l 1
 554 394 l 1
 624 464 l 1
 764 325 l 1
 857 325 l 1
 788 394 l 1
 859 464 l 1
 1048 275 l 1
 859 86 l 1
 788 156 l 1
 857 225 l 1
 764 225 l 1
 624 86 l 1
 554 156 l 1
 622 225 l 1
 394 225 l 1
 307 -14 l 1
 223 17 l 1
 299 225 l 1
 90 225 l 1
 90 325 l 1
 335 325 l 1
 422 564 l 1
EndSplineSet
EndChar

StartChar: uni219F0338
Encoding: 25 -1 25
Width: 742
Flags: W
HStem: 744 20G<351 391>
VStem: 321 100<-194 15 147 339 480 573>
LayerCount: 2
Back
Fore
SplineSet
113 -61 m 1
 82 24 l 1
 321 111 l 1
 321 339 l 1
 252 270 l 1
 182 341 l 1
 321 480 l 1
 321 573 l 1
 252 504 l 1
 182 575 l 1
 371 764 l 1
 560 575 l 1
 490 504 l 1
 421 573 l 1
 421 480 l 1
 560 341 l 1
 490 270 l 1
 421 339 l 1
 421 147 l 1
 629 223 l 1
 660 138 l 1
 421 51 l 1
 421 -194 l 1
 321 -194 l 1
 321 15 l 1
 113 -61 l 1
EndSplineSet
EndChar

StartChar: uni219E0338
Encoding: 26 -1 26
Width: 1118
Flags: W
HStem: 225 100<261 354 495 687 819 1028>
LayerCount: 2
Back
Fore
SplineSet
696 -14 m 1
 611 17 l 1
 687 225 l 1
 495 225 l 1
 564 156 l 1
 493 86 l 1
 354 225 l 1
 261 225 l 1
 329 156 l 1
 259 86 l 1
 69 275 l 1
 259 464 l 1
 329 394 l 1
 261 325 l 1
 354 325 l 1
 493 464 l 1
 564 394 l 1
 495 325 l 1
 723 325 l 1
 810 564 l 1
 895 533 l 1
 819 325 l 1
 1028 325 l 1
 1028 225 l 1
 783 225 l 1
 696 -14 l 1
EndSplineSet
EndChar

StartChar: uni21A10338
Encoding: 27 -1 27
Width: 742
Flags: W
VStem: 321 100<-23 70 211 403 535 744>
LayerCount: 2
Back
Fore
SplineSet
629 611 m 1
 660 526 l 1
 421 439 l 1
 421 211 l 1
 490 280 l 1
 560 209 l 1
 421 70 l 1
 421 -23 l 1
 490 46 l 1
 560 -25 l 1
 371 -214 l 1
 182 -25 l 1
 252 46 l 1
 321 -23 l 1
 321 70 l 1
 182 209 l 1
 252 280 l 1
 321 211 l 1
 321 403 l 1
 113 327 l 1
 82 412 l 1
 321 499 l 1
 321 744 l 1
 421 744 l 1
 421 535 l 1
 629 611 l 1
EndSplineSet
EndChar

StartChar: sym033_uni0338
Encoding: 28 -1 28
Width: 1240
Flags: W
HStem: 355 100<533 630> 521 100<698 796>
VStem: 701 100<188 285> 866 100<353 450>
LayerCount: 2
Back
Fore
SplineSet
319 382 m 1
 401 420 l 1
 494 220 l 1
 630 355 l 1
 533 355 l 1
 533 455 l 1
 730 455 l 1
 796 521 l 1
 698 521 l 1
 698 621 l 1
 966 621 l 1
 966 353 l 1
 866 353 l 1
 866 450 l 1
 801 385 l 1
 801 188 l 1
 701 188 l 1
 701 285 l 1
 539 123 l 1
 647 -107 l 1
 565 -145 l 1
 471 55 l 1
 324 -92 l 1
 253 -21 l 1
 426 152 l 1
 319 382 l 1
EndSplineSet
EndChar

StartChar: sym032_uni0338
Encoding: 29 -1 29
Width: 1240
Flags: W
HStem: 355 100<610 708> 521 100<444 542>
VStem: 274 100<353 451> 440 100<188 285>
LayerCount: 2
Back
Fore
SplineSet
675 -145 m 1
 594 -107 l 1
 701 123 l 1
 540 285 l 1
 540 188 l 1
 440 188 l 1
 440 385 l 1
 374 451 l 1
 374 353 l 1
 274 353 l 1
 274 621 l 1
 542 621 l 1
 542 521 l 1
 444 521 l 1
 510 455 l 1
 708 455 l 1
 708 355 l 1
 610 355 l 1
 746 219 l 1
 840 420 l 1
 921 382 l 1
 814 152 l 1
 987 -21 l 1
 916 -92 l 1
 769 56 l 1
 675 -145 l 1
EndSplineSet
EndChar

StartChar: sym035_uni0338
Encoding: 30 -1 30
Width: 1240
Flags: W
HStem: -71 100<444 542> 95 100<610 708>
VStem: 274 100<99 197> 440 100<265 362>
LayerCount: 2
Back
Fore
SplineSet
921 168 m 1
 840 130 l 1
 746 331 l 1
 610 195 l 1
 708 195 l 1
 708 95 l 1
 510 95 l 1
 444 29 l 1
 542 29 l 1
 542 -71 l 1
 274 -71 l 1
 274 197 l 1
 374 197 l 1
 374 99 l 1
 440 165 l 1
 440 362 l 1
 540 362 l 1
 540 265 l 1
 701 427 l 1
 594 657 l 1
 675 695 l 1
 769 494 l 1
 916 642 l 1
 987 571 l 1
 814 398 l 1
 921 168 l 1
EndSplineSet
EndChar

StartChar: sym034_uni0338
Encoding: 31 -1 31
Width: 1240
Flags: W
HStem: -71 100<698 796> 95 100<533 630>
VStem: 701 100<265 362> 866 100<100 197>
LayerCount: 2
Back
Fore
SplineSet
565 695 m 1
 647 657 l 1
 539 427 l 1
 701 265 l 1
 701 362 l 1
 801 362 l 1
 801 165 l 1
 866 100 l 1
 866 197 l 1
 966 197 l 1
 966 -71 l 1
 698 -71 l 1
 698 29 l 1
 796 29 l 1
 730 95 l 1
 533 95 l 1
 533 195 l 1
 630 195 l 1
 494 330 l 1
 401 130 l 1
 319 168 l 1
 426 398 l 1
 253 571 l 1
 324 642 l 1
 471 495 l 1
 565 695 l 1
EndSplineSet
EndChar

StartChar: uni21A30338
Encoding: 32 -1 32
Width: 930
Flags: W
HStem: 225 100<315 399 531 669>
LayerCount: 2
Back
Fore
SplineSet
522 564 m 1
 607 533 l 1
 531 325 l 1
 669 325 l 1
 601 394 l 1
 671 464 l 1
 861 275 l 1
 671 86 l 1
 601 156 l 1
 669 225 l 1
 495 225 l 1
 408 -14 l 1
 323 17 l 1
 399 225 l 1
 315 225 l 1
 175 86 l 1
 105 156 l 1
 223 275 l 1
 105 394 l 1
 175 464 l 1
 315 325 l 1
 435 325 l 1
 522 564 l 1
EndSplineSet
EndChar

StartChar: sym036_uni0338
Encoding: 33 -1 33
Width: 742
Flags: W
VStem: 321 100<125 209 341 479>
LayerCount: 2
Back
Fore
SplineSet
113 133 m 1
 82 218 l 1
 321 305 l 1
 321 479 l 1
 252 411 l 1
 182 481 l 1
 371 671 l 1
 560 481 l 1
 490 411 l 1
 421 479 l 1
 421 341 l 1
 629 417 l 1
 660 332 l 1
 421 245 l 1
 421 125 l 1
 560 -15 l 1
 490 -85 l 1
 371 33 l 1
 252 -85 l 1
 182 -15 l 1
 321 125 l 1
 321 209 l 1
 113 133 l 1
EndSplineSet
EndChar

StartChar: uni21A20338
Encoding: 34 -1 34
Width: 930
Flags: W
HStem: 225 100<261 399 531 615>
LayerCount: 2
Back
Fore
SplineSet
408 -14 m 1
 323 17 l 1
 399 225 l 1
 261 225 l 1
 329 156 l 1
 259 86 l 1
 69 275 l 1
 259 464 l 1
 329 394 l 1
 261 325 l 1
 435 325 l 1
 522 564 l 1
 607 533 l 1
 531 325 l 1
 615 325 l 1
 755 464 l 1
 825 394 l 1
 707 275 l 1
 825 156 l 1
 755 86 l 1
 615 225 l 1
 495 225 l 1
 408 -14 l 1
EndSplineSet
EndChar

StartChar: sym037_uni0338
Encoding: 35 -1 35
Width: 742
Flags: W
VStem: 321 100<71 209 341 425>
LayerCount: 2
Back
Fore
SplineSet
629 417 m 1
 660 332 l 1
 421 245 l 1
 421 71 l 1
 490 139 l 1
 560 69 l 1
 371 -121 l 1
 182 69 l 1
 252 139 l 1
 321 71 l 1
 321 209 l 1
 113 133 l 1
 82 218 l 1
 321 305 l 1
 321 425 l 1
 182 565 l 1
 252 635 l 1
 371 517 l 1
 490 635 l 1
 560 565 l 1
 421 425 l 1
 421 341 l 1
 629 417 l 1
EndSplineSet
EndChar

StartChar: sym039_uni0338
Encoding: 36 -1 36
Width: 1108
Flags: W
HStem: -8 21G<626.647 679.158> 104 100<215 383> 455 100<566 663>
VStem: 383 100<-64 104> 734 100<287 384>
LayerCount: 2
Back
Fore
SplineSet
390 520 m 1
 472 558 l 1
 566 357 l 1
 663 455 l 1
 566 455 l 1
 566 555 l 1
 834 555 l 1
 834 287 l 1
 734 287 l 1
 734 384 l 1
 610 261 l 1
 718 30 l 1
 636 -8 l 1
 542 193 l 1
 483 134 l 1
 483 -64 l 1
 383 -64 l 1
 383 104 l 1
 215 104 l 1
 215 204 l 1
 413 204 l 1
 498 289 l 1
 390 520 l 1
EndSplineSet
EndChar

StartChar: sym038_uni0338
Encoding: 37 -1 37
Width: 1108
Flags: W
HStem: -8 21G<428.842 481.254> 104 100<725 893> 455 100<444 542>
VStem: 274 100<287 384> 625 100<-64 104>
LayerCount: 2
Back
Fore
SplineSet
472 -8 m 1
 390 30 l 1
 497 261 l 1
 374 384 l 1
 374 287 l 1
 274 287 l 1
 274 555 l 1
 542 555 l 1
 542 455 l 1
 444 455 l 1
 542 357 l 1
 636 558 l 1
 718 520 l 1
 610 289 l 1
 695 204 l 1
 893 204 l 1
 893 104 l 1
 725 104 l 1
 725 -64 l 1
 625 -64 l 1
 625 133 l 1
 565 193 l 1
 472 -8 l 1
EndSplineSet
EndChar

StartChar: sym03B_uni0338
Encoding: 38 -1 38
Width: 1108
Flags: W
HStem: -5 100<444 542> 346 100<725 893>
VStem: 274 100<166 263> 625 100<446 614>
LayerCount: 2
Back
Fore
SplineSet
718 30 m 1
 636 -8 l 1
 542 193 l 1
 444 95 l 1
 542 95 l 1
 542 -5 l 1
 274 -5 l 1
 274 263 l 1
 374 263 l 1
 374 166 l 1
 497 289 l 1
 390 520 l 1
 472 558 l 1
 565 357 l 1
 625 417 l 1
 625 614 l 1
 725 614 l 1
 725 446 l 1
 893 446 l 1
 893 346 l 1
 695 346 l 1
 610 261 l 1
 718 30 l 1
EndSplineSet
EndChar

StartChar: sym03A_uni0338
Encoding: 39 -1 39
Width: 1108
Flags: W
HStem: -5 100<566 663> 346 100<215 383>
VStem: 383 100<446 614> 734 100<166 263>
LayerCount: 2
Back
Fore
SplineSet
636 558 m 1
 718 520 l 1
 610 289 l 1
 734 166 l 1
 734 263 l 1
 834 263 l 1
 834 -5 l 1
 566 -5 l 1
 566 95 l 1
 663 95 l 1
 566 193 l 1
 472 -8 l 1
 390 30 l 1
 498 261 l 1
 413 346 l 1
 215 346 l 1
 215 446 l 1
 383 446 l 1
 383 614 l 1
 483 614 l 1
 483 416 l 1
 542 357 l 1
 636 558 l 1
EndSplineSet
EndChar

StartChar: uni21A60338
Encoding: 40 -1 40
Width: 930
Flags: W
HStem: 225 100<190 322 454 669>
VStem: 90 100<71 225 325 479>
LayerCount: 2
Back
Fore
SplineSet
445 564 m 1
 530 533 l 1
 454 325 l 1
 669 325 l 1
 601 394 l 1
 671 464 l 1
 861 275 l 1
 671 86 l 1
 601 156 l 1
 669 225 l 1
 418 225 l 1
 331 -14 l 1
 246 17 l 1
 322 225 l 1
 190 225 l 1
 190 71 l 1
 90 71 l 1
 90 479 l 1
 190 479 l 1
 190 325 l 1
 358 325 l 1
 445 564 l 1
EndSplineSet
EndChar

StartChar: uni21A50338
Encoding: 41 -1 41
Width: 742
Flags: W
HStem: -100 100<167 321 421 575>
VStem: 321 100<0 132 264 479>
LayerCount: 2
Back
Fore
SplineSet
113 56 m 1
 82 141 l 1
 321 228 l 1
 321 479 l 1
 252 411 l 1
 182 481 l 1
 371 671 l 1
 560 481 l 1
 490 411 l 1
 421 479 l 1
 421 264 l 1
 629 340 l 1
 660 255 l 1
 421 168 l 1
 421 0 l 1
 575 0 l 1
 575 -100 l 1
 167 -100 l 1
 167 0 l 1
 321 0 l 1
 321 132 l 1
 113 56 l 1
EndSplineSet
EndChar

StartChar: uni21A40338
Encoding: 42 -1 42
Width: 930
Flags: W
HStem: 225 100<261 476 608 740>
VStem: 740 100<71 225 325 479>
LayerCount: 2
Back
Fore
SplineSet
485 -14 m 1
 400 17 l 1
 476 225 l 1
 261 225 l 1
 329 156 l 1
 259 86 l 1
 69 275 l 1
 259 464 l 1
 329 394 l 1
 261 325 l 1
 512 325 l 1
 599 564 l 1
 684 533 l 1
 608 325 l 1
 740 325 l 1
 740 479 l 1
 840 479 l 1
 840 71 l 1
 740 71 l 1
 740 225 l 1
 572 225 l 1
 485 -14 l 1
EndSplineSet
EndChar

StartChar: uni21A70338
Encoding: 43 -1 43
Width: 742
Flags: W
HStem: 550 100<167 321 421 575>
VStem: 321 100<71 286 418 550>
LayerCount: 2
Back
Fore
SplineSet
629 494 m 1
 660 409 l 1
 421 322 l 1
 421 71 l 1
 490 139 l 1
 560 69 l 1
 371 -121 l 1
 182 69 l 1
 252 139 l 1
 321 71 l 1
 321 286 l 1
 113 210 l 1
 82 295 l 1
 321 382 l 1
 321 550 l 1
 167 550 l 1
 167 650 l 1
 575 650 l 1
 575 550 l 1
 421 550 l 1
 421 418 l 1
 629 494 l 1
EndSplineSet
EndChar

StartChar: uni29070338
Encoding: 44 -1 44
Width: 1080
Flags: W
HStem: 129 100<190 362 494 723> 321 100<190 432 564 723>
VStem: 90 100<25 129 229 321 421 525>
LayerCount: 2
Back
Fore
SplineSet
823 321 m 1
 527 321 l 1
 494 229 l 1
 823 229 l 1
 869 275 l 1
 823 321 l 1
190 321 m 1
 190 229 l 1
 399 229 l 1
 432 321 l 1
 190 321 l 1
543 625 m 1
 627 594 l 1
 564 421 l 1
 723 421 l 1
 704 440 l 1
 775 511 l 1
 1011 275 l 1
 775 39 l 1
 704 110 l 1
 723 129 l 1
 457 129 l 1
 383 -75 l 1
 299 -44 l 1
 362 129 l 1
 190 129 l 1
 190 25 l 1
 90 25 l 1
 90 525 l 1
 190 525 l 1
 190 421 l 1
 469 421 l 1
 543 625 l 1
EndSplineSet
EndChar

StartChar: sym03C_uni0338
Encoding: 45 -1 45
Width: 865
Flags: W
HStem: -175 100<182 286 386 479 579 683>
VStem: 286 100<-75 97 229 457> 479 100<-75 167 299 457>
LayerCount: 2
Back
Fore
SplineSet
386 557 m 1
 386 229 l 1
 479 263 l 1
 479 558 l 1
 433 604 l 1
 386 557 l 1
386 -75 m 1
 479 -75 l 1
 479 167 l 1
 386 133 l 1
 386 -75 l 1
113 34 m 1
 82 118 l 1
 286 192 l 1
 286 457 l 1
 268 439 l 1
 197 510 l 1
 433 746 l 1
 668 510 l 1
 597 439 l 1
 579 457 l 1
 579 299 l 1
 752 362 l 1
 783 278 l 1
 579 204 l 1
 579 -75 l 1
 683 -75 l 1
 683 -175 l 1
 182 -175 l 1
 182 -75 l 1
 286 -75 l 1
 286 97 l 1
 113 34 l 1
EndSplineSet
EndChar

StartChar: uni29060338
Encoding: 46 -1 46
Width: 1080
Flags: W
HStem: 129 100<357 516 648 890> 321 100<357 586 718 890>
VStem: 890 100<25 129 229 321 421 525>
LayerCount: 2
Back
Fore
SplineSet
257 229 m 1
 553 229 l 1
 586 321 l 1
 257 321 l 1
 211 275 l 1
 257 229 l 1
890 229 m 1
 890 321 l 1
 681 321 l 1
 648 229 l 1
 890 229 l 1
537 -75 m 1
 453 -44 l 1
 516 129 l 1
 357 129 l 1
 376 110 l 1
 305 39 l 1
 69 275 l 1
 305 511 l 1
 376 440 l 1
 357 421 l 1
 623 421 l 1
 697 625 l 1
 781 594 l 1
 718 421 l 1
 890 421 l 1
 890 525 l 1
 990 525 l 1
 990 25 l 1
 890 25 l 1
 890 129 l 1
 611 129 l 1
 537 -75 l 1
EndSplineSet
EndChar

StartChar: sym03D_uni0338
Encoding: 47 -1 47
Width: 865
Flags: W
HStem: 625 100<182 286 386 479 579 683>
VStem: 286 100<93 251 383 625> 479 100<93 321 453 625>
LayerCount: 2
Back
Fore
SplineSet
479 -8 m 1
 479 321 l 1
 386 287 l 1
 386 -7 l 1
 433 -54 l 1
 479 -8 l 1
479 625 m 1
 386 625 l 1
 386 383 l 1
 479 417 l 1
 479 625 l 1
752 516 m 1
 783 432 l 1
 579 358 l 1
 579 93 l 1
 597 111 l 1
 668 40 l 1
 433 -196 l 1
 197 40 l 1
 268 111 l 1
 286 93 l 1
 286 251 l 1
 113 188 l 1
 82 272 l 1
 286 346 l 1
 286 625 l 1
 182 625 l 1
 182 725 l 1
 683 725 l 1
 683 625 l 1
 579 625 l 1
 579 453 l 1
 752 516 l 1
EndSplineSet
EndChar

StartChar: uni21AA0338
Encoding: 48 -1 48
Width: 930
Flags: W
HStem: 225 100<191.445 322 454 669> 379 100<191.445 267>
VStem: 90 100<325.995 378.005>
LayerCount: 2
Back
Fore
SplineSet
445 564 m 1
 530 533 l 1
 454 325 l 1
 669 325 l 1
 601 394 l 1
 671 464 l 1
 861 275 l 1
 671 86 l 1
 601 156 l 1
 669 225 l 1
 418 225 l 1
 331 -14 l 1
 246 17 l 1
 322 225 l 1
 217 225 l 2
 147 225 90 282 90 352 c 0
 90 422 147 479 217 479 c 2
 267 479 l 1
 267 379 l 1
 217 379 l 2
 202 379 190 367 190 352 c 0
 190 337 202 325 217 325 c 2
 358 325 l 1
 445 564 l 1
EndSplineSet
EndChar

StartChar: sym03E_uni0338
Encoding: 49 -1 49
Width: 742
Flags: W
HStem: -100 100<267.995 320.005>
VStem: 167 100<1.44531 76> 321 100<1.44531 132 264 479>
LayerCount: 2
Back
Fore
SplineSet
267 77 m 1
 267 27 l 2
 267 12 279 0 294 0 c 0
 309 0 321 12 321 27 c 2
 321 132 l 1
 171 77 l 1
 267 77 l 1
113 56 m 1
 82 141 l 1
 321 228 l 1
 321 479 l 1
 252 411 l 1
 182 481 l 1
 371 671 l 1
 560 481 l 1
 490 411 l 1
 421 479 l 1
 421 264 l 1
 629 340 l 1
 660 255 l 1
 421 168 l 1
 421 27 l 2
 421 -43 364 -100 294 -100 c 0
 224 -100 167 -43 167 27 c 2
 167 76 l 1
 113 56 l 1
EndSplineSet
EndChar

StartChar: uni21A90338.alt
Encoding: 50 -1 50
Width: 930
Flags: W
HStem: 71 100<663 738.555> 225 100<261 476 608 738.555>
VStem: 740 100<171.995 224.005>
LayerCount: 2
Back
Fore
SplineSet
485 -14 m 1
 400 17 l 1
 476 225 l 1
 261 225 l 1
 329 156 l 1
 259 86 l 1
 69 275 l 1
 259 464 l 1
 329 394 l 1
 261 325 l 1
 512 325 l 1
 599 564 l 1
 684 533 l 1
 608 325 l 1
 713 325 l 2
 783 325 840 268 840 198 c 0
 840 128 783 71 713 71 c 2
 663 71 l 1
 663 171 l 1
 713 171 l 2
 728 171 740 183 740 198 c 0
 740 213 728 225 713 225 c 2
 572 225 l 1
 485 -14 l 1
EndSplineSet
EndChar

StartChar: sym03F_uni0338.alt
Encoding: 51 -1 51
Width: 742
Flags: W
HStem: 550 100<421.995 474.005>
VStem: 321 100<71 286 418 548.555> 475 100<474 548.555>
LayerCount: 2
Back
Fore
SplineSet
475 473 m 1
 475 523 l 2
 475 538 463 550 448 550 c 0
 433 550 421 538 421 523 c 2
 421 418 l 1
 571 473 l 1
 475 473 l 1
629 494 m 1
 660 409 l 1
 421 322 l 1
 421 71 l 1
 490 139 l 1
 560 69 l 1
 371 -121 l 1
 182 69 l 1
 252 139 l 1
 321 71 l 1
 321 286 l 1
 113 210 l 1
 82 295 l 1
 321 382 l 1
 321 523 l 2
 321 593 378 650 448 650 c 0
 518 650 575 593 575 523 c 2
 575 474 l 1
 629 494 l 1
EndSplineSet
EndChar

StartChar: uni29240338.alt
Encoding: 52 -1 52
Width: 1108
Flags: W
HStem: 27 100<298.021 356.244> 455 100<566 663>
VStem: 197 100<128.021 187.026> 734 100<287 384>
LayerCount: 2
Back
Fore
SplineSet
297 154 m 0
 297 140 310 127 324 127 c 0
 331 127 338 129 343 135 c 2
 443 235 l 1
 336 465 l 1
 417 503 l 1
 511 303 l 1
 663 455 l 1
 566 455 l 1
 566 555 l 1
 834 555 l 1
 834 287 l 1
 734 287 l 1
 734 384 l 1
 556 206 l 1
 663 -24 l 1
 582 -62 l 1
 488 138 l 1
 414 64 l 2
 389 40 356 27 324 27 c 0
 292 27 259 40 234 64 c 0
 210 89 197 122 197 154 c 0
 197 186 210 219 234 244 c 2
 270 279 l 1
 340 209 l 1
 305 173 l 2
 299 168 297 161 297 154 c 0
EndSplineSet
EndChar

StartChar: uni29230338
Encoding: 53 -1 53
Width: 1108
Flags: W
HStem: -82 100<641.974 700.999> 455 100<444 542>
VStem: 274 100<287 384> 702 100<19.001 77.932>
LayerCount: 2
Back
Fore
SplineSet
675 18 m 0
 690 18 702 30 702 45 c 0
 702 52 699 59 694 64 c 2
 620 138 l 1
 551 -8 l 1
 620 61 l 1
 656 26 l 2
 661 21 668 18 675 18 c 0
526 -62 m 1
 445 -24 l 1
 552 206 l 1
 374 384 l 1
 374 287 l 1
 274 287 l 1
 274 555 l 1
 542 555 l 1
 542 455 l 1
 444 455 l 1
 597 303 l 1
 690 503 l 1
 772 465 l 1
 665 235 l 1
 765 135 l 2
 789 110 802 77 802 45 c 0
 802 13 789 -20 765 -45 c 0
 740 -69 707 -82 675 -82 c 0
 643 -82 610 -69 585 -45 c 2
 550 -10 l 1
 526 -62 l 1
EndSplineSet
EndChar

StartChar: uni29260338.alt
Encoding: 54 -1 54
Width: 1108
Flags: W
HStem: -5 100<444 542> 423 100<752.389 809.511>
VStem: 274 100<166 263> 810 100<362.693 422.117>
LayerCount: 2
Back
Fore
SplineSet
810 396 m 0
 810 411 799 423 784 423 c 0
 777 423 770 421 765 415 c 2
 665 315 l 1
 772 85 l 1
 690 47 l 1
 597 247 l 1
 444 95 l 1
 542 95 l 1
 542 -5 l 1
 274 -5 l 1
 274 263 l 1
 374 263 l 1
 374 166 l 1
 552 344 l 1
 445 574 l 1
 526 612 l 1
 620 412 l 1
 694 486 l 2
 718 510 752 523 784 523 c 0
 816 523 849 510 873 486 c 0
 898 461 910 428 910 396 c 0
 910 364 898 331 873 306 c 2
 838 271 l 1
 767 341 l 1
 803 377 l 2
 808 382 810 389 810 396 c 0
EndSplineSet
EndChar

StartChar: uni29250338
Encoding: 55 -1 55
Width: 1108
Flags: W
HStem: -5 100<566 663> 532 100<407.001 465.83>
VStem: 306 100<472.068 530.979> 734 100<166 263>
LayerCount: 2
Back
Fore
SplineSet
433 532 m 0
 418 532 406 519 406 505 c 0
 406 498 408 491 414 486 c 2
 488 412 l 1
 557 558 l 1
 487 489 l 1
 452 524 l 2
 446 529 440 532 433 532 c 0
582 612 m 1
 663 574 l 1
 556 344 l 1
 734 166 l 1
 734 263 l 1
 834 263 l 1
 834 -5 l 1
 566 -5 l 1
 566 95 l 1
 663 95 l 1
 511 247 l 1
 417 47 l 1
 336 85 l 1
 443 315 l 1
 343 415 l 2
 319 440 306 473 306 505 c 0
 306 537 319 570 343 595 c 0
 368 619 401 632 433 632 c 0
 465 632 498 619 523 595 c 2
 558 560 l 1
 582 612 l 1
EndSplineSet
EndChar

StartChar: uni21AA0338.alt
Encoding: 56 -1 56
Width: 930
Flags: W
HStem: 71 100<191.445 266> 225 100<191.445 322 454 669>
VStem: 90 100<171.995 224.005>
LayerCount: 2
Back
Fore
SplineSet
267 75 m 1
 322 225 l 1
 217 225 l 2
 202 225 190 213 190 198 c 0
 190 183 202 171 217 171 c 2
 267 171 l 1
 267 75 l 1
445 564 m 1
 530 533 l 1
 454 325 l 1
 669 325 l 1
 601 394 l 1
 671 464 l 1
 861 275 l 1
 671 86 l 1
 601 156 l 1
 669 225 l 1
 418 225 l 1
 331 -14 l 1
 246 17 l 1
 266 71 l 1
 217 71 l 2
 147 71 90 128 90 198 c 0
 90 268 147 325 217 325 c 2
 358 325 l 1
 445 564 l 1
EndSplineSet
EndChar

StartChar: sym03E_uni0338.alt
Encoding: 57 -1 57
Width: 742
Flags: W
HStem: -100 100<421.995 474.005>
VStem: 321 100<1.44531 132 264 479> 475 100<1.44531 77>
LayerCount: 2
Back
Fore
SplineSet
113 56 m 1
 82 141 l 1
 321 228 l 1
 321 479 l 1
 252 411 l 1
 182 481 l 1
 371 671 l 1
 560 481 l 1
 490 411 l 1
 421 479 l 1
 421 264 l 1
 629 340 l 1
 660 255 l 1
 421 168 l 1
 421 27 l 2
 421 12 433 0 448 0 c 0
 463 0 475 12 475 27 c 2
 475 77 l 1
 575 77 l 1
 575 27 l 2
 575 -43 518 -100 448 -100 c 0
 378 -100 321 -43 321 27 c 2
 321 132 l 1
 113 56 l 1
EndSplineSet
EndChar

StartChar: uni21A90338
Encoding: 58 -1 58
Width: 930
Flags: W
HStem: 225 100<261 476 608 738.555> 379 100<664 738.555>
VStem: 740 100<325.995 378.005>
LayerCount: 2
Back
Fore
SplineSet
663 475 m 1
 608 325 l 1
 713 325 l 2
 728 325 740 337 740 352 c 0
 740 367 728 379 713 379 c 2
 663 379 l 1
 663 475 l 1
485 -14 m 1
 400 17 l 1
 476 225 l 1
 261 225 l 1
 329 156 l 1
 259 86 l 1
 69 275 l 1
 259 464 l 1
 329 394 l 1
 261 325 l 1
 512 325 l 1
 599 564 l 1
 684 533 l 1
 664 479 l 1
 713 479 l 2
 783 479 840 422 840 352 c 0
 840 282 783 225 713 225 c 2
 572 225 l 1
 485 -14 l 1
EndSplineSet
EndChar

StartChar: sym03F_uni0338
Encoding: 59 -1 59
Width: 742
Flags: W
HStem: 550 100<267.995 320.005>
VStem: 167 100<473 548.555> 321 100<71 286 418 548.555>
LayerCount: 2
Back
Fore
SplineSet
629 494 m 1
 660 409 l 1
 421 322 l 1
 421 71 l 1
 490 139 l 1
 560 69 l 1
 371 -121 l 1
 182 69 l 1
 252 139 l 1
 321 71 l 1
 321 286 l 1
 113 210 l 1
 82 295 l 1
 321 382 l 1
 321 523 l 2
 321 538 309 550 294 550 c 0
 279 550 267 538 267 523 c 2
 267 473 l 1
 167 473 l 1
 167 523 l 2
 167 593 224 650 294 650 c 0
 364 650 421 593 421 523 c 2
 421 418 l 1
 629 494 l 1
EndSplineSet
EndChar

StartChar: uni29240338
Encoding: 60 -1 60
Width: 1108
Flags: W
HStem: -82 100<407.001 465.83> 455 100<566 663>
VStem: 306 100<19.0215 77.932> 734 100<287 384>
LayerCount: 2
Back
Fore
SplineSet
406 45 m 0
 406 31 418 18 433 18 c 0
 440 18 446 21 452 26 c 2
 487 61 l 1
 557 -8 l 1
 488 138 l 1
 414 64 l 2
 408 59 406 52 406 45 c 0
336 465 m 1
 417 503 l 1
 511 303 l 1
 663 455 l 1
 566 455 l 1
 566 555 l 1
 834 555 l 1
 834 287 l 1
 734 287 l 1
 734 384 l 1
 556 206 l 1
 663 -24 l 1
 582 -62 l 1
 558 -10 l 1
 523 -45 l 2
 498 -69 465 -82 433 -82 c 0
 401 -82 368 -69 343 -45 c 0
 319 -20 306 13 306 45 c 0
 306 77 319 110 343 135 c 2
 443 235 l 1
 336 465 l 1
EndSplineSet
EndChar

StartChar: uni29230338.alt
Encoding: 61 -1 61
Width: 1108
Flags: W
HStem: 27 100<752.389 809.511> 455 100<444 542>
VStem: 274 100<287 384> 810 100<127.883 187.307>
LayerCount: 2
Back
Fore
SplineSet
784 127 m 0
 799 127 810 139 810 154 c 0
 810 161 808 168 803 173 c 2
 767 209 l 1
 838 279 l 1
 873 244 l 2
 898 219 910 186 910 154 c 0
 910 122 898 89 873 64 c 0
 849 40 816 27 784 27 c 0
 752 27 718 40 694 64 c 2
 620 138 l 1
 526 -62 l 1
 445 -24 l 1
 552 206 l 1
 374 384 l 1
 374 287 l 1
 274 287 l 1
 274 555 l 1
 542 555 l 1
 542 455 l 1
 444 455 l 1
 597 303 l 1
 690 503 l 1
 772 465 l 1
 665 235 l 1
 765 135 l 2
 770 129 777 127 784 127 c 0
EndSplineSet
EndChar

StartChar: uni29260338
Encoding: 62 -1 62
Width: 1108
Flags: W
HStem: -5 100<444 542> 532 100<641.974 700.999>
VStem: 274 100<166 263> 702 100<472.068 530.999>
LayerCount: 2
Back
Fore
SplineSet
702 505 m 0
 702 520 690 532 675 532 c 0
 668 532 661 529 656 524 c 2
 620 489 l 1
 551 558 l 1
 620 412 l 1
 694 486 l 2
 699 491 702 498 702 505 c 0
772 85 m 1
 690 47 l 1
 597 247 l 1
 444 95 l 1
 542 95 l 1
 542 -5 l 1
 274 -5 l 1
 274 263 l 1
 374 263 l 1
 374 166 l 1
 552 344 l 1
 445 574 l 1
 526 612 l 1
 550 560 l 1
 585 595 l 2
 610 619 643 632 675 632 c 0
 707 632 740 619 765 595 c 0
 789 570 802 537 802 505 c 0
 802 473 789 440 765 415 c 2
 665 315 l 1
 772 85 l 1
EndSplineSet
EndChar

StartChar: uni29250338.alt
Encoding: 63 -1 63
Width: 1108
Flags: W
HStem: -5 100<566 663> 423 100<298.021 356.244>
VStem: 197 100<362.974 421.979> 734 100<166 263>
LayerCount: 2
Back
Fore
SplineSet
324 423 m 0
 310 423 297 410 297 396 c 0
 297 389 299 382 305 377 c 2
 340 341 l 1
 270 271 l 1
 234 306 l 2
 210 331 197 364 197 396 c 0
 197 428 210 461 234 486 c 0
 259 510 292 523 324 523 c 0
 356 523 389 510 414 486 c 2
 488 412 l 1
 582 612 l 1
 663 574 l 1
 556 344 l 1
 734 166 l 1
 734 263 l 1
 834 263 l 1
 834 -5 l 1
 566 -5 l 1
 566 95 l 1
 663 95 l 1
 511 247 l 1
 417 47 l 1
 336 85 l 1
 443 315 l 1
 343 415 l 2
 338 421 331 423 324 423 c 0
EndSplineSet
EndChar

StartChar: uni21C00338
Encoding: 64 -1 64
Width: 930
Flags: W
HStem: 225 100<90 322 454 670>
LayerCount: 2
Back
Fore
SplineSet
445 564 m 1
 530 533 l 1
 454 325 l 1
 670 325 l 1
 576 419 l 1
 646 489 l 1
 861 275 l 1
 847 225 l 1
 418 225 l 1
 331 -14 l 1
 246 17 l 1
 322 225 l 1
 90 225 l 1
 90 325 l 1
 358 325 l 1
 445 564 l 1
EndSplineSet
EndChar

StartChar: uni21BF0338
Encoding: 65 -1 65
Width: 742
Flags: W
VStem: 321 100<-100 132 264 480>
LayerCount: 2
Back
Fore
SplineSet
113 56 m 1
 82 141 l 1
 321 228 l 1
 321 480 l 1
 227 386 l 1
 157 456 l 1
 371 671 l 1
 421 657 l 1
 421 264 l 1
 629 340 l 1
 660 255 l 1
 421 168 l 1
 421 -100 l 1
 321 -100 l 1
 321 132 l 1
 113 56 l 1
EndSplineSet
EndChar

StartChar: uni21BD0338
Encoding: 66 -1 66
Width: 930
Flags: W
HStem: 225 100<260 476 608 840>
LayerCount: 2
Back
Fore
SplineSet
485 -14 m 1
 400 17 l 1
 476 225 l 1
 260 225 l 1
 354 131 l 1
 284 61 l 1
 69 275 l 1
 83 325 l 1
 512 325 l 1
 599 564 l 1
 684 533 l 1
 608 325 l 1
 840 325 l 1
 840 225 l 1
 572 225 l 1
 485 -14 l 1
EndSplineSet
EndChar

StartChar: uni21C20338
Encoding: 67 -1 67
Width: 742
Flags: W
VStem: 321 100<70 286 418 650>
LayerCount: 2
Back
Fore
SplineSet
629 494 m 1
 660 409 l 1
 421 322 l 1
 421 70 l 1
 515 164 l 1
 585 94 l 1
 371 -121 l 1
 321 -107 l 1
 321 286 l 1
 113 210 l 1
 82 295 l 1
 321 382 l 1
 321 650 l 1
 421 650 l 1
 421 418 l 1
 629 494 l 1
EndSplineSet
EndChar

StartChar: sym041_uni0338
Encoding: 68 -1 68
Width: 1108
Flags: W
HStem: 455 100<531 663>
LayerCount: 2
Back
Fore
SplineSet
336 465 m 1
 417 503 l 1
 511 303 l 1
 663 455 l 1
 531 455 l 1
 531 555 l 1
 834 555 l 1
 860 510 l 1
 819 469 l 1
 556 206 l 1
 663 -24 l 1
 582 -62 l 1
 488 138 l 1
 324 -26 l 1
 253 45 l 1
 443 235 l 1
 336 465 l 1
EndSplineSet
EndChar

StartChar: sym040_uni0338
Encoding: 69 -1 69
Width: 1108
Flags: W
VStem: 274 100<252 384 525 526>
LayerCount: 2
Back
Fore
SplineSet
526 -62 m 1
 445 -24 l 1
 552 206 l 1
 374 384 l 1
 374 252 l 1
 274 252 l 1
 274 555 l 1
 319 581 l 1
 374 526 l 1
 374 525 l 1
 597 302 l 1
 690 503 l 1
 772 465 l 1
 664 235 l 1
 854 45 l 1
 784 -26 l 1
 620 138 l 1
 526 -62 l 1
EndSplineSet
EndChar

StartChar: sym043_uni0338
Encoding: 70 -1 70
Width: 1108
Flags: W
HStem: -5 100<444 577>
LayerCount: 2
Back
Fore
SplineSet
772 85 m 1
 690 47 l 1
 597 248 l 1
 444 95 l 1
 577 95 l 1
 577 -5 l 1
 274 -5 l 1
 248 40 l 1
 552 344 l 1
 445 574 l 1
 526 612 l 1
 620 412 l 1
 784 576 l 1
 854 505 l 1
 664 315 l 1
 772 85 l 1
EndSplineSet
EndChar

StartChar: sym042_uni0338
Encoding: 71 -1 71
Width: 1108
Flags: W
VStem: 734 100<166 298>
LayerCount: 2
Back
Fore
SplineSet
582 612 m 1
 663 574 l 1
 556 344 l 1
 734 166 l 1
 734 298 l 1
 834 298 l 1
 834 -5 l 1
 789 -31 l 1
 511 247 l 1
 417 47 l 1
 336 85 l 1
 443 315 l 1
 253 505 l 1
 324 576 l 1
 488 412 l 1
 582 612 l 1
EndSplineSet
EndChar

StartChar: uni21C10338
Encoding: 72 -1 72
Width: 930
Flags: W
HStem: 225 100<90 322 454 670>
LayerCount: 2
Back
Fore
SplineSet
445 564 m 1
 530 533 l 1
 454 325 l 1
 847 325 l 1
 861 275 l 1
 646 61 l 1
 576 131 l 1
 670 225 l 1
 418 225 l 1
 331 -14 l 1
 246 17 l 1
 322 225 l 1
 90 225 l 1
 90 325 l 1
 358 325 l 1
 445 564 l 1
EndSplineSet
EndChar

StartChar: uni21BE0338
Encoding: 73 -1 73
Width: 742
Flags: W
VStem: 321 100<-100 132 264 480>
LayerCount: 2
Back
Fore
SplineSet
113 56 m 1
 82 141 l 1
 321 228 l 1
 321 657 l 1
 371 671 l 1
 585 456 l 1
 515 386 l 1
 421 480 l 1
 421 264 l 1
 629 340 l 1
 660 255 l 1
 421 168 l 1
 421 -100 l 1
 321 -100 l 1
 321 132 l 1
 113 56 l 1
EndSplineSet
EndChar

StartChar: uni21BC0338
Encoding: 74 -1 74
Width: 930
Flags: W
HStem: 225 100<260 476 608 840>
LayerCount: 2
Back
Fore
SplineSet
485 -14 m 1
 400 17 l 1
 476 225 l 1
 83 225 l 1
 69 275 l 1
 284 489 l 1
 354 419 l 1
 260 325 l 1
 512 325 l 1
 599 564 l 1
 684 533 l 1
 608 325 l 1
 840 325 l 1
 840 225 l 1
 572 225 l 1
 485 -14 l 1
EndSplineSet
EndChar

StartChar: uni21C30338
Encoding: 75 -1 75
Width: 742
Flags: W
VStem: 321 100<70 286 418 650>
LayerCount: 2
Back
Fore
SplineSet
629 494 m 1
 660 409 l 1
 421 322 l 1
 421 -107 l 1
 371 -121 l 1
 157 94 l 1
 227 164 l 1
 321 70 l 1
 321 286 l 1
 113 210 l 1
 82 295 l 1
 321 382 l 1
 321 650 l 1
 421 650 l 1
 421 418 l 1
 629 494 l 1
EndSplineSet
EndChar

StartChar: sym045_uni0338
Encoding: 76 -1 76
Width: 1108
Flags: W
VStem: 734 100<252 384>
LayerCount: 2
Back
Fore
SplineSet
336 465 m 1
 417 503 l 1
 511 303 l 1
 789 581 l 1
 834 555 l 1
 834 252 l 1
 734 252 l 1
 734 384 l 1
 556 206 l 1
 663 -24 l 1
 582 -62 l 1
 488 138 l 1
 324 -26 l 1
 253 45 l 1
 443 235 l 1
 336 465 l 1
EndSplineSet
EndChar

StartChar: sym044_uni0338
Encoding: 77 -1 77
Width: 1108
Flags: W
HStem: 455 100<444 577>
LayerCount: 2
Back
Fore
SplineSet
526 -62 m 1
 445 -24 l 1
 552 206 l 1
 248 510 l 1
 274 555 l 1
 577 555 l 1
 577 455 l 1
 444 455 l 1
 597 302 l 1
 690 503 l 1
 772 465 l 1
 664 235 l 1
 854 45 l 1
 784 -26 l 1
 620 138 l 1
 526 -62 l 1
EndSplineSet
EndChar

StartChar: sym047_uni0338
Encoding: 78 -1 78
Width: 1108
Flags: W
VStem: 274 100<24 25 166 298>
LayerCount: 2
Back
Fore
SplineSet
772 85 m 1
 690 47 l 1
 597 248 l 1
 374 25 l 1
 374 24 l 1
 319 -31 l 1
 274 -5 l 1
 274 298 l 1
 374 298 l 1
 374 166 l 1
 552 344 l 1
 445 574 l 1
 526 612 l 1
 620 412 l 1
 784 576 l 1
 854 505 l 1
 664 315 l 1
 772 85 l 1
EndSplineSet
EndChar

StartChar: sym046_uni0338
Encoding: 79 -1 79
Width: 1108
Flags: W
HStem: -5 100<531 663>
LayerCount: 2
Back
Fore
SplineSet
582 612 m 1
 663 574 l 1
 556 344 l 1
 819 81 l 1
 860 40 l 1
 834 -5 l 1
 531 -5 l 1
 531 95 l 1
 663 95 l 1
 511 247 l 1
 417 47 l 1
 336 85 l 1
 443 315 l 1
 253 505 l 1
 324 576 l 1
 488 412 l 1
 582 612 l 1
EndSplineSet
EndChar

StartChar: uni294B0338
Encoding: 80 -1 80
Width: 930
Flags: W
HStem: -8 21G<372 464.519> 225 100<260 410 520 670>
LayerCount: 2
Back
Fore
SplineSet
469 558 m 1
 558 543 l 1
 520 325 l 1
 670 325 l 1
 576 419 l 1
 646 489 l 1
 861 275 l 1
 847 225 l 1
 502 225 l 1
 461 -8 l 1
 372 7 l 1
 410 225 l 1
 260 225 l 1
 354 131 l 1
 284 61 l 1
 69 275 l 1
 83 325 l 1
 428 325 l 1
 469 558 l 1
EndSplineSet
EndChar

StartChar: uni294D0338
Encoding: 81 -1 81
Width: 742
Flags: W
VStem: 321 100<70 209 341 480>
LayerCount: 2
Back
Fore
SplineSet
113 133 m 1
 82 218 l 1
 321 305 l 1
 321 480 l 1
 227 386 l 1
 157 456 l 1
 371 671 l 1
 421 657 l 1
 421 341 l 1
 629 417 l 1
 660 332 l 1
 421 245 l 1
 421 70 l 1
 515 164 l 1
 585 94 l 1
 371 -121 l 1
 321 -107 l 1
 321 209 l 1
 113 133 l 1
EndSplineSet
EndChar

StartChar: sym049_uni0338
Encoding: 82 -1 82
Width: 1108
Flags: W
HStem: -5 100<444 577> 455 100<531 663>
LayerCount: 2
Back
Fore
SplineSet
357 478 m 1
 430 530 l 1
 557 349 l 1
 663 455 l 1
 531 455 l 1
 531 555 l 1
 834 555 l 1
 860 510 l 1
 819 469 l 1
 615 266 l 1
 751 72 l 1
 677 20 l 1
 550 201 l 1
 444 95 l 1
 577 95 l 1
 577 -5 l 1
 274 -5 l 1
 248 40 l 1
 492 284 l 1
 357 478 l 1
EndSplineSet
EndChar

StartChar: sym048_uni0338
Encoding: 83 -1 83
Width: 1108
Flags: W
HStem: -8 21G<428.842 481.254>
VStem: 274 100<252 384 525 526> 734 100<166 298>
LayerCount: 2
Back
Fore
SplineSet
472 -8 m 1
 390 30 l 1
 497 261 l 1
 374 384 l 1
 374 252 l 1
 274 252 l 1
 274 555 l 1
 319 581 l 1
 374 526 l 1
 374 525 l 1
 542 357 l 1
 636 558 l 1
 718 520 l 1
 610 289 l 1
 734 166 l 1
 734 298 l 1
 834 298 l 1
 834 -5 l 1
 789 -31 l 1
 565 193 l 1
 472 -8 l 1
EndSplineSet
EndChar

StartChar: uni294A0338
Encoding: 84 -1 84
Width: 930
Flags: W
HStem: 225 100<260 399 531 670>
LayerCount: 2
Back
Fore
SplineSet
522 564 m 1
 607 533 l 1
 531 325 l 1
 847 325 l 1
 861 275 l 1
 646 61 l 1
 576 131 l 1
 670 225 l 1
 495 225 l 1
 408 -14 l 1
 323 17 l 1
 399 225 l 1
 83 225 l 1
 69 275 l 1
 284 489 l 1
 354 419 l 1
 260 325 l 1
 435 325 l 1
 522 564 l 1
EndSplineSet
EndChar

StartChar: uni294C0338
Encoding: 85 -1 85
Width: 742
Flags: W
VStem: 321 100<70 220 330 480>
LayerCount: 2
Back
Fore
SplineSet
103 182 m 1
 88 271 l 1
 321 312 l 1
 321 657 l 1
 371 671 l 1
 585 456 l 1
 515 386 l 1
 421 480 l 1
 421 330 l 1
 639 368 l 1
 654 279 l 1
 421 238 l 1
 421 -107 l 1
 371 -121 l 1
 157 94 l 1
 227 164 l 1
 321 70 l 1
 321 220 l 1
 103 182 l 1
EndSplineSet
EndChar

StartChar: sym04B_uni0338
Encoding: 86 -1 86
Width: 1108
Flags: W
HStem: -8 21G<626.647 679.158>
VStem: 274 100<24 25 166 298> 734 100<252 384>
LayerCount: 2
Back
Fore
SplineSet
390 520 m 1
 472 558 l 1
 565 357 l 1
 789 581 l 1
 834 555 l 1
 834 252 l 1
 734 252 l 1
 734 384 l 1
 610 261 l 1
 718 30 l 1
 636 -8 l 1
 542 193 l 1
 374 25 l 1
 374 24 l 1
 319 -31 l 1
 274 -5 l 1
 274 298 l 1
 374 298 l 1
 374 166 l 1
 497 289 l 1
 390 520 l 1
EndSplineSet
EndChar

StartChar: sym04A_uni0338
Encoding: 87 -1 87
Width: 1108
Flags: W
HStem: -5 100<531 663> 455 100<444 577>
LayerCount: 2
Back
Fore
SplineSet
430 20 m 1
 357 72 l 1
 492 266 l 1
 248 510 l 1
 274 555 l 1
 577 555 l 1
 577 455 l 1
 444 455 l 1
 550 349 l 1
 677 530 l 1
 751 478 l 1
 615 284 l 1
 819 81 l 1
 860 40 l 1
 834 -5 l 1
 531 -5 l 1
 531 95 l 1
 663 95 l 1
 557 201 l 1
 430 20 l 1
EndSplineSet
EndChar

StartChar: uni21CC0338
Encoding: 88 -1 88
Width: 930
Flags: W
HStem: 129 100<260 393 503 840> 321 100<90 427 537 670>
LayerCount: 2
Back
Fore
SplineSet
486 654 m 1
 575 639 l 1
 537 421 l 1
 670 421 l 1
 576 515 l 1
 646 586 l 1
 861 371 l 1
 847 321 l 1
 519 321 l 1
 503 229 l 1
 840 229 l 1
 840 129 l 1
 485 129 l 1
 444 -104 l 1
 355 -89 l 1
 393 129 l 1
 260 129 l 1
 354 35 l 1
 284 -36 l 1
 69 179 l 1
 83 229 l 1
 411 229 l 1
 427 321 l 1
 90 321 l 1
 90 421 l 1
 445 421 l 1
 486 654 l 1
EndSplineSet
EndChar

StartChar: uni296E0338
Encoding: 89 -1 89
Width: 934
Flags: W
VStem: 321 100<-100 174 306 480> 513 100<70 244 376 650>
LayerCount: 2
Back
Fore
SplineSet
113 98 m 1
 82 183 l 1
 321 270 l 1
 321 480 l 1
 227 386 l 1
 157 456 l 1
 371 671 l 1
 421 657 l 1
 421 306 l 1
 513 340 l 1
 513 650 l 1
 613 650 l 1
 613 376 l 1
 821 452 l 1
 852 367 l 1
 613 280 l 1
 613 70 l 1
 707 164 l 1
 778 94 l 1
 563 -121 l 1
 513 -107 l 1
 513 244 l 1
 421 210 l 1
 421 -100 l 1
 321 -100 l 1
 321 174 l 1
 113 98 l 1
EndSplineSet
EndChar

StartChar: sym04D_uni0338
Encoding: 90 -1 90
Width: 1244
Flags: W
HStem: -73 100<439 440 581 713> 523 100<531 663>
LayerCount: 2
Back
Fore
SplineSet
369 558 m 1
 442 610 l 1
 569 429 l 1
 663 523 l 1
 531 523 l 1
 531 623 l 1
 834 623 l 1
 860 578 l 1
 782 501 705 423 627 346 c 1
 681 268 l 1
 920 507 l 1
 991 437 l 1
 739 185 l 1
 875 -8 l 1
 801 -60 l 1
 675 121 l 1
 581 27 l 1
 713 27 l 1
 713 -73 l 1
 410 -73 l 1
 384 -28 l 1
 439 27 l 1
 440 27 l 1
 617 204 l 1
 562 281 l 1
 324 43 l 1
 253 113 l 1
 504 364 l 1
 369 558 l 1
EndSplineSet
EndChar

StartChar: sym04C_uni0338
Encoding: 91 -1 91
Width: 1244
Flags: W
VStem: 274 100<184 316> 870 100<234 366>
LayerCount: 2
Back
Fore
SplineSet
497 -100 m 1
 415 -62 l 1
 522 168 l 1
 374 316 l 1
 374 184 l 1
 274 184 l 1
 274 487 l 1
 319 513 l 1
 401 429 484 347 567 264 c 1
 609 353 l 1
 389 573 l 1
 460 644 l 1
 654 450 l 1
 747 650 l 1
 829 612 l 1
 722 382 l 1
 870 234 l 1
 870 366 l 1
 970 366 l 1
 970 63 l 1
 925 37 l 1
 884 78 l 1
 677 285 l 1
 635 196 l 1
 854 -23 l 1
 784 -94 l 1
 590 100 l 1
 497 -100 l 1
EndSplineSet
EndChar

StartChar: uni21CB0338
Encoding: 92 -1 92
Width: 930
Flags: W
HStem: 129 100<90 364 496 670> 321 100<260 434 566 840>
LayerCount: 2
Back
Fore
SplineSet
557 660 m 1
 642 629 l 1
 566 421 l 1
 840 421 l 1
 840 321 l 1
 530 321 l 1
 496 229 l 1
 847 229 l 1
 861 179 l 1
 646 -36 l 1
 576 35 l 1
 670 129 l 1
 460 129 l 1
 373 -110 l 1
 288 -79 l 1
 364 129 l 1
 90 129 l 1
 90 229 l 1
 400 229 l 1
 434 321 l 1
 83 321 l 1
 69 371 l 1
 284 586 l 1
 354 515 l 1
 260 421 l 1
 470 421 l 1
 557 660 l 1
EndSplineSet
EndChar

StartChar: uni296F0338
Encoding: 93 -1 93
Width: 934
Flags: W
VStem: 321 100<70 203 313 650> 513 100<-100 237 347 480>
LayerCount: 2
Back
Fore
SplineSet
103 165 m 1
 88 254 l 1
 321 295 l 1
 321 650 l 1
 421 650 l 1
 421 313 l 1
 513 329 l 1
 513 657 l 1
 563 671 l 1
 778 456 l 1
 707 386 l 1
 613 480 l 1
 613 347 l 1
 831 385 l 1
 847 296 l 1
 613 255 l 1
 613 -100 l 1
 513 -100 l 1
 513 237 l 1
 421 221 l 1
 421 -107 l 1
 371 -121 l 1
 157 94 l 1
 227 164 l 1
 321 70 l 1
 321 203 l 1
 103 165 l 1
EndSplineSet
EndChar

StartChar: sym04F_uni0338
Encoding: 94 -1 94
Width: 1244
Flags: W
VStem: 274 100<234 366> 870 100<184 316>
LayerCount: 2
Back
Fore
SplineSet
415 612 m 1
 497 650 l 1
 590 450 l 1
 784 644 l 1
 854 573 l 1
 635 354 l 1
 677 265 l 1
 884 472 l 1
 925 513 l 1
 970 487 l 1
 970 184 l 1
 870 184 l 1
 870 316 l 1
 722 168 l 1
 829 -62 l 1
 747 -100 l 1
 654 100 l 1
 460 -94 l 1
 389 -23 l 1
 609 197 l 1
 567 286 l 1
 484 203 401 121 319 37 c 1
 274 63 l 1
 274 366 l 1
 374 366 l 1
 374 234 l 1
 522 382 l 1
 415 612 l 1
EndSplineSet
EndChar

StartChar: sym04E_uni0338
Encoding: 95 -1 95
Width: 1244
Flags: W
HStem: -73 100<531 663> 523 100<439 440 581 713>
LayerCount: 2
Back
Fore
SplineSet
442 -60 m 1
 369 -8 l 1
 504 186 l 1
 253 437 l 1
 324 507 l 1
 562 269 l 1
 617 346 l 1
 440 523 l 1
 439 523 l 1
 384 578 l 1
 410 623 l 1
 713 623 l 1
 713 523 l 1
 581 523 l 1
 675 429 l 1
 801 610 l 1
 875 558 l 1
 739 365 l 1
 991 113 l 1
 920 43 l 1
 681 282 l 1
 627 204 l 1
 705 127 782 49 860 -28 c 1
 834 -73 l 1
 531 -73 l 1
 531 27 l 1
 663 27 l 1
 569 121 l 1
 442 -60 l 1
EndSplineSet
EndChar

StartChar: uni21E20338
Encoding: 96 -1 96
Width: 930
Flags: W
HStem: 225 100<90 270 563 669>
VStem: 90 180<225 325>
LayerCount: 2
Back
Fore
SplineSet
90 225 m 1
 90 325 l 1
 270 325 l 1
 270 225 l 1
 90 225 l 1
861 275 m 1
 671 86 l 1
 601 156 l 1
 669 225 l 1
 563 225 l 1
 563 325 l 1
 669 325 l 1
 601 394 l 1
 671 464 l 1
 861 275 l 1
473 564 m 1
 558 533 l 1
 359 -14 l 1
 274 17 l 1
 473 564 l 1
EndSplineSet
EndChar

StartChar: uni21E10338
Encoding: 97 -1 97
Width: 742
Flags: W
HStem: -100 180<321 421>
VStem: 321 100<-100 80 372 479>
LayerCount: 2
Back
Fore
SplineSet
421 -100 m 1
 321 -100 l 1
 321 80 l 1
 421 80 l 1
 421 -100 l 1
371 671 m 1
 560 481 l 1
 490 411 l 1
 421 479 l 1
 421 372 l 1
 321 372 l 1
 321 479 l 1
 252 411 l 1
 182 481 l 1
 371 671 l 1
113 84 m 1
 82 169 l 1
 629 368 l 1
 660 283 l 1
 113 84 l 1
EndSplineSet
EndChar

StartChar: uni21E00338
Encoding: 98 -1 98
Width: 930
Flags: W
HStem: 225 100<261 368 660 840>
VStem: 660 180<225 325>
LayerCount: 2
Back
Fore
SplineSet
840 325 m 1
 840 225 l 1
 660 225 l 1
 660 325 l 1
 840 325 l 1
69 275 m 1
 259 464 l 1
 329 394 l 1
 261 325 l 1
 368 325 l 1
 368 225 l 1
 261 225 l 1
 329 156 l 1
 259 86 l 1
 69 275 l 1
457 -14 m 1
 372 17 l 1
 571 564 l 1
 656 533 l 1
 457 -14 l 1
EndSplineSet
EndChar

StartChar: uni21E30338
Encoding: 99 -1 99
Width: 742
Flags: W
HStem: 470 180<321 421>
VStem: 321 100<71 178 470 650>
LayerCount: 2
Back
Fore
SplineSet
321 650 m 1
 421 650 l 1
 421 470 l 1
 321 470 l 1
 321 650 l 1
371 -121 m 1
 182 69 l 1
 252 139 l 1
 321 71 l 1
 321 178 l 1
 421 178 l 1
 421 71 l 1
 490 139 l 1
 560 69 l 1
 371 -121 l 1
629 466 m 1
 660 381 l 1
 113 182 l 1
 82 267 l 1
 629 466 l 1
EndSplineSet
EndChar

StartChar: sym051_uni0338
Encoding: 100 -1 100
Width: 1108
Flags: W
HStem: 455 100<566 663>
VStem: 734 100<287 385>
LayerCount: 2
Back
Fore
SplineSet
324 -26 m 1
 253 45 l 1
 381 172 l 1
 451 102 l 1
 324 -26 l 1
834 555 m 1
 834 287 l 1
 734 287 l 1
 734 385 l 1
 658 309 l 1
 587 379 l 1
 663 455 l 1
 566 455 l 1
 566 555 l 1
 834 555 l 1
356 485 m 1
 437 523 l 1
 683 -4 l 1
 602 -42 l 1
 356 485 l 1
EndSplineSet
EndChar

StartChar: sym050_uni0338
Encoding: 101 -1 101
Width: 1108
Flags: W
HStem: 455 100<444 542>
VStem: 274 100<287 385>
LayerCount: 2
Back
Fore
SplineSet
854 45 m 1
 784 -26 l 1
 656 102 l 1
 727 172 l 1
 854 45 l 1
274 555 m 1
 542 555 l 1
 542 455 l 1
 444 455 l 1
 520 379 l 1
 450 309 l 1
 374 385 l 1
 374 287 l 1
 274 287 l 1
 274 555 l 1
506 -42 m 1
 425 -4 l 1
 670 523 l 1
 752 485 l 1
 506 -42 l 1
EndSplineSet
EndChar

StartChar: sym053_uni0338
Encoding: 102 -1 102
Width: 1108
Flags: W
HStem: -5 100<444 542>
VStem: 274 100<165 263>
LayerCount: 2
Back
Fore
SplineSet
784 576 m 1
 854 505 l 1
 727 378 l 1
 656 448 l 1
 784 576 l 1
274 -5 m 1
 274 263 l 1
 374 263 l 1
 374 165 l 1
 450 241 l 1
 520 171 l 1
 444 95 l 1
 542 95 l 1
 542 -5 l 1
 274 -5 l 1
752 65 m 1
 670 27 l 1
 425 554 l 1
 506 592 l 1
 752 65 l 1
EndSplineSet
EndChar

StartChar: sym052_uni0338
Encoding: 103 -1 103
Width: 1108
Flags: W
HStem: -5 100<566 663>
VStem: 734 100<165 263>
LayerCount: 2
Back
Fore
SplineSet
253 505 m 1
 324 576 l 1
 451 448 l 1
 381 378 l 1
 253 505 l 1
834 -5 m 1
 566 -5 l 1
 566 95 l 1
 663 95 l 1
 587 171 l 1
 658 241 l 1
 734 165 l 1
 734 263 l 1
 834 263 l 1
 834 -5 l 1
602 592 m 1
 683 554 l 1
 437 27 l 1
 356 65 l 1
 602 592 l 1
EndSplineSet
EndChar

StartChar: uni22B80338
Encoding: 104 -1 104
Width: 930
Flags: W
HStem: 102 100<616.185 718.106> 225 100<90 276 408 509.203> 348 100<616.185 718.106>
VStem: 740 100<223.894 326.106>
CounterMasks: 1 e0
LayerCount: 2
Back
Fore
SplineSet
594 275 m 0
 594 235 626 202 667 202 c 0
 686 202 705 210 719 223 c 0
 732 237 740 256 740 275 c 0
 740 294 732 313 719 327 c 0
 705 340 686 348 667 348 c 0
 626 348 594 315 594 275 c 0
667 102 m 0
 588 102 521 157 501 225 c 1
 372 225 l 1
 285 -14 l 1
 200 17 l 1
 276 225 l 1
 90 225 l 1
 90 325 l 1
 312 325 l 1
 399 564 l 1
 484 533 l 1
 408 325 l 1
 501 325 l 1
 521 393 588 448 667 448 c 0
 761 448 840 369 840 275 c 0
 840 181 761 102 667 102 c 0
EndSplineSet
EndChar

StartChar: uni2AEF0338
Encoding: 105 -1 105
Width: 742
Flags: W
HStem: 550 100<319.894 422.106>
VStem: 198 100<426.185 528.106> 321 100<-100 86 218 319.203> 444 100<426.185 528.106>
CounterMasks: 1 70
LayerCount: 2
Back
Fore
SplineSet
371 404 m 0
 411 404 444 436 444 477 c 0
 444 496 436 515 423 529 c 0
 409 542 390 550 371 550 c 0
 352 550 333 542 319 529 c 0
 306 515 298 496 298 477 c 0
 298 436 331 404 371 404 c 0
544 477 m 0
 544 398 489 331 421 311 c 1
 421 218 l 1
 629 294 l 1
 660 209 l 1
 421 122 l 1
 421 -100 l 1
 321 -100 l 1
 321 86 l 1
 113 10 l 1
 82 95 l 1
 321 182 l 1
 321 311 l 1
 253 331 198 398 198 477 c 0
 198 571 277 650 371 650 c 0
 465 650 544 571 544 477 c 0
EndSplineSet
EndChar

StartChar: uni27DC0338
Encoding: 106 -1 106
Width: 930
Flags: W
HStem: 102 100<211.894 313.815> 225 100<420.797 522 654 840> 348 100<211.894 313.815>
VStem: 90 100<223.894 326.106>
CounterMasks: 1 e0
LayerCount: 2
Back
Fore
SplineSet
263 202 m 0
 304 202 336 235 336 275 c 0
 336 315 304 348 263 348 c 0
 244 348 225 340 211 327 c 0
 198 313 190 294 190 275 c 0
 190 256 198 237 211 223 c 0
 225 210 244 202 263 202 c 0
263 448 m 0
 342 448 409 393 429 325 c 1
 558 325 l 1
 645 564 l 1
 730 533 l 1
 654 325 l 1
 840 325 l 1
 840 225 l 1
 618 225 l 1
 531 -14 l 1
 446 17 l 1
 522 225 l 1
 429 225 l 1
 409 157 342 102 263 102 c 0
 169 102 90 181 90 275 c 0
 90 369 169 448 263 448 c 0
EndSplineSet
EndChar

StartChar: uni2AF00338
Encoding: 107 -1 107
Width: 742
Flags: W
HStem: -100 100<319.894 422.106>
VStem: 198 100<21.8944 123.815> 321 100<230.797 332 464 650> 444 100<21.8944 123.815>
CounterMasks: 1 70
LayerCount: 2
Back
Fore
SplineSet
371 146 m 0
 331 146 298 114 298 73 c 0
 298 54 306 35 319 21 c 0
 333 8 352 0 371 0 c 0
 390 0 409 8 423 21 c 0
 436 35 444 54 444 73 c 0
 444 114 411 146 371 146 c 0
198 73 m 0
 198 152 253 219 321 239 c 1
 321 332 l 1
 113 256 l 1
 82 341 l 1
 321 428 l 1
 321 650 l 1
 421 650 l 1
 421 464 l 1
 629 540 l 1
 660 455 l 1
 421 368 l 1
 421 239 l 1
 489 219 544 152 544 73 c 0
 544 -21 465 -100 371 -100 c 0
 277 -100 198 -21 198 73 c 0
EndSplineSet
EndChar

StartChar: sym054_uni0338
Encoding: 108 -1 108
Width: 930
Flags: W
HStem: 102 346<585.033 748.777> 225 100<90 276 408 509.203>
LayerCount: 2
Back
Fore
SplineSet
667 102 m 0x80
 588 102 521 157 501 225 c 1
 372 225 l 1
 285 -14 l 1
 200 17 l 1
 276 225 l 1
 90 225 l 1
 90 325 l 1
 312 325 l 1
 399 564 l 1
 484 533 l 1
 408 325 l 1
 501 325 l 1x40
 521 393 588 448 667 448 c 0
 761 448 840 369 840 275 c 0
 840 181 761 102 667 102 c 0x80
EndSplineSet
EndChar

StartChar: sym056_uni0338
Encoding: 109 -1 109
Width: 742
Flags: W
VStem: 198 346<395.033 558.777> 321 100<-100 86 218 319.203>
LayerCount: 2
Back
Fore
SplineSet
544 477 m 0x80
 544 398 489 331 421 311 c 1
 421 218 l 1
 629 294 l 1
 660 209 l 1
 421 122 l 1
 421 -100 l 1
 321 -100 l 1
 321 86 l 1
 113 10 l 1
 82 95 l 1
 321 182 l 1
 321 311 l 1x40
 253 331 198 398 198 477 c 0
 198 571 277 650 371 650 c 0
 465 650 544 571 544 477 c 0x80
EndSplineSet
EndChar

StartChar: sym055_uni0338
Encoding: 110 -1 110
Width: 930
Flags: W
HStem: 102 346<181.223 344.967> 225 100<420.797 522 654 840>
LayerCount: 2
Back
Fore
SplineSet
263 448 m 0x80
 342 448 409 393 429 325 c 1
 558 325 l 1
 645 564 l 1
 730 533 l 1
 654 325 l 1
 840 325 l 1
 840 225 l 1
 618 225 l 1
 531 -14 l 1
 446 17 l 1
 522 225 l 1
 429 225 l 1x40
 409 157 342 102 263 102 c 0
 169 102 90 181 90 275 c 0
 90 369 169 448 263 448 c 0x80
EndSplineSet
EndChar

StartChar: sym057_uni0338
Encoding: 111 -1 111
Width: 742
Flags: W
VStem: 198 346<-8.77734 154.967> 321 100<230.797 332 464 650>
LayerCount: 2
Back
Fore
SplineSet
198 73 m 0x80
 198 152 253 219 321 239 c 1
 321 332 l 1
 113 256 l 1
 82 341 l 1
 321 428 l 1
 321 650 l 1
 421 650 l 1
 421 464 l 1
 629 540 l 1
 660 455 l 1
 421 368 l 1
 421 239 l 1x40
 489 219 544 152 544 73 c 0
 544 -21 465 -100 371 -100 c 0
 277 -100 198 -21 198 73 c 0x80
EndSplineSet
EndChar

StartChar: uni29DF0338
Encoding: 112 -1 112
Width: 1230
Flags: W
HStem: 102 100<211.894 313.815 916.185 1018.11> 225 100<420.797 549 681 809.203> 348 100<211.894 313.815 916.185 1018.11>
VStem: 90 100<223.894 326.106> 1040 100<223.894 326.106>
CounterMasks: 1 e0
LayerCount: 2
Back
Fore
SplineSet
894 275 m 0
 894 235 926 202 967 202 c 0
 986 202 1005 210 1019 223 c 0
 1032 237 1040 256 1040 275 c 0
 1040 294 1032 313 1019 327 c 0
 1005 340 986 348 967 348 c 0
 926 348 894 315 894 275 c 0
263 202 m 0
 304 202 336 235 336 275 c 0
 336 315 304 348 263 348 c 0
 244 348 225 340 211 327 c 0
 198 313 190 294 190 275 c 0
 190 256 198 237 211 223 c 0
 225 210 244 202 263 202 c 0
263 448 m 0
 342 448 409 393 429 325 c 1
 585 325 l 1
 672 564 l 1
 757 533 l 1
 681 325 l 1
 801 325 l 1
 821 393 888 448 967 448 c 0
 1061 448 1140 369 1140 275 c 0
 1140 181 1061 102 967 102 c 0
 888 102 821 157 801 225 c 1
 645 225 l 1
 558 -14 l 1
 473 17 l 1
 549 225 l 1
 429 225 l 1
 409 157 342 102 263 102 c 0
 169 102 90 181 90 275 c 0
 90 369 169 448 263 448 c 0
EndSplineSet
EndChar

StartChar: sym058_uni0338
Encoding: 113 -1 113
Width: 1230
Flags: W
HStem: 102 346<181.223 344.967 885.033 1048.78> 225 100<420.797 549 681 809.203>
LayerCount: 2
Back
Fore
SplineSet
263 448 m 0x80
 342 448 409 393 429 325 c 1
 585 325 l 1
 672 564 l 1
 757 533 l 1
 681 325 l 1
 801 325 l 1x40
 821 393 888 448 967 448 c 0
 1061 448 1140 369 1140 275 c 0
 1140 181 1061 102 967 102 c 0x80
 888 102 821 157 801 225 c 1
 645 225 l 1
 558 -14 l 1
 473 17 l 1
 549 225 l 1
 429 225 l 1x40
 409 157 342 102 263 102 c 0
 169 102 90 181 90 275 c 0
 90 369 169 448 263 448 c 0x80
EndSplineSet
EndChar

StartChar: uni22B70338
Encoding: 114 -1 114
Width: 1230
Flags: W
HStem: 102 346<181.223 344.967> 102 100<916.185 1018.11> 225 100<420.797 549 681 809.203> 348 100<916.185 1018.11>
VStem: 1040 100<223.894 326.106>
LayerCount: 2
Back
Fore
SplineSet
894 275 m 0x58
 894 235 926 202 967 202 c 0
 986 202 1005 210 1019 223 c 0
 1032 237 1040 256 1040 275 c 0
 1040 294 1032 313 1019 327 c 0
 1005 340 986 348 967 348 c 0
 926 348 894 315 894 275 c 0x58
263 448 m 0x88
 342 448 409 393 429 325 c 1
 585 325 l 1
 672 564 l 1
 757 533 l 1
 681 325 l 1
 801 325 l 1
 821 393 888 448 967 448 c 0
 1061 448 1140 369 1140 275 c 0
 1140 181 1061 102 967 102 c 0
 888 102 821 157 801 225 c 1
 645 225 l 1
 558 -14 l 1
 473 17 l 1
 549 225 l 1
 429 225 l 1x78
 409 157 342 102 263 102 c 0
 169 102 90 181 90 275 c 0
 90 369 169 448 263 448 c 0x88
EndSplineSet
EndChar

StartChar: uni22B60338
Encoding: 115 -1 115
Width: 1230
Flags: W
HStem: 102 346<885.033 1048.78> 102 100<211.894 313.815> 225 100<420.797 549 681 809.203> 348 100<211.894 313.815>
VStem: 90 100<223.894 326.106>
LayerCount: 2
Back
Fore
SplineSet
263 202 m 0x58
 304 202 336 235 336 275 c 0
 336 315 304 348 263 348 c 0
 244 348 225 340 211 327 c 0
 198 313 190 294 190 275 c 0
 190 256 198 237 211 223 c 0
 225 210 244 202 263 202 c 0x58
967 102 m 0x88
 888 102 821 157 801 225 c 1
 645 225 l 1
 558 -14 l 1
 473 17 l 1
 549 225 l 1
 429 225 l 1
 409 157 342 102 263 102 c 0
 169 102 90 181 90 275 c 0
 90 369 169 448 263 448 c 0
 342 448 409 393 429 325 c 1
 585 325 l 1
 672 564 l 1
 757 533 l 1
 681 325 l 1
 801 325 l 1x78
 821 393 888 448 967 448 c 0
 1061 448 1140 369 1140 275 c 0
 1140 181 1061 102 967 102 c 0x88
EndSplineSet
EndChar

StartChar: sym05A_uni0338
Encoding: 116 -1 116
Width: 930
Flags: W
HStem: 22 100<90 213 321 363.48> 225 100<90 248 357 409 507.373 840> 428 100<90 284>
VStem: 409 102<174.639 225>
CounterMasks: 1 e0
LayerCount: 2
Back
Fore
SplineSet
321 123 m 1
 367 131 397 174 409 225 c 1
 339 225 l 1
 321 123 l 1
370 401 m 1
 357 325 l 1
 409 325 l 1
 402 355 389 382 370 401 c 1
329 684 m 1
 417 668 l 1
 389 508 l 1
 453 475 498 405 511 325 c 1
 840 325 l 1
 840 225 l 1
 511 225 l 1
 493 114 414 22 306 22 c 2
 303 22 l 1
 276 -134 l 1
 188 -118 l 1
 213 22 l 1
 90 22 l 1
 90 122 l 1
 230 122 l 1
 248 225 l 1
 90 225 l 1
 90 325 l 1
 266 325 l 1
 284 428 l 1
 90 428 l 1
 90 528 l 1
 302 528 l 1
 329 684 l 1
EndSplineSet
EndChar

StartChar: uni22D40338
Encoding: 117 -1 117
Width: 993
Flags: W
HStem: -2 21G<99.5909 215.8> 219 102<396.305 447>
VStem: 244 100<-100 23 131 173.48> 447 100<-100 58 167 219 317.373 650> 649 100<-100 94>
LayerCount: 2
Back
Fore
SplineSet
622 180 m 1
 603 199 577 212 547 219 c 1
 547 167 l 1
 622 180 l 1
345 131 m 1
 447 149 l 1
 447 219 l 1
 395 207 353 177 345 131 c 1
103 -2 m 1
 88 86 l 1
 244 113 l 1
 244 116 l 2
 244 224 335 303 447 321 c 1
 447 650 l 1
 547 650 l 1
 547 321 l 1
 627 308 696 263 729 199 c 1
 890 227 l 1
 905 139 l 1
 749 112 l 1
 749 -100 l 1
 649 -100 l 1
 649 94 l 1
 547 76 l 1
 547 -100 l 1
 447 -100 l 1
 447 58 l 1
 344 40 l 1
 344 -100 l 1
 244 -100 l 1
 244 23 l 1
 103 -2 l 1
EndSplineSet
EndChar

StartChar: sym05B_uni0338
Encoding: 118 -1 118
Width: 930
Flags: W
HStem: 22 100<646 840> 225 100<90 422.627 521 573 682 840> 428 100<566.52 609 717 840>
VStem: 419 102<325 375.361>
CounterMasks: 1 e0
LayerCount: 2
Back
Fore
SplineSet
609 427 m 1
 563 419 533 376 521 325 c 1
 591 325 l 1
 609 427 l 1
560 149 m 1
 573 225 l 1
 521 225 l 1
 528 195 541 168 560 149 c 1
601 -134 m 1
 513 -118 l 1
 541 42 l 1
 477 75 432 145 419 225 c 1
 90 225 l 1
 90 325 l 1
 419 325 l 1
 437 436 516 528 624 528 c 2
 627 528 l 1
 654 684 l 1
 742 668 l 1
 717 528 l 1
 840 528 l 1
 840 428 l 1
 700 428 l 1
 682 325 l 1
 840 325 l 1
 840 225 l 1
 664 225 l 1
 646 122 l 1
 840 122 l 1
 840 22 l 1
 628 22 l 1
 601 -134 l 1
EndSplineSet
EndChar

StartChar: sym059_uni0338
Encoding: 119 -1 119
Width: 993
Flags: W
HStem: 229 102<547 597.296> 532 20G<777.2 893.409>
VStem: 244 100<456 650> 447 100<-100 232.627 331 383 492 650> 649 100<376.52 419 527 650>
LayerCount: 2
Back
Fore
SplineSet
371 370 m 1
 390 351 417 338 447 331 c 1
 447 383 l 1
 371 370 l 1
648 419 m 1
 547 401 l 1
 547 331 l 1
 598 343 640 373 648 419 c 1
890 552 m 1
 905 464 l 1
 749 437 l 1
 749 434 l 2
 749 326 658 247 547 229 c 1
 547 -100 l 1
 447 -100 l 1
 447 229 l 1
 366 242 297 287 264 351 c 1
 103 323 l 1
 88 411 l 1
 244 438 l 1
 244 650 l 1
 344 650 l 1
 344 456 l 1
 447 474 l 1
 447 650 l 1
 547 650 l 1
 547 492 l 1
 649 510 l 1
 649 650 l 1
 749 650 l 1
 749 527 l 1
 890 552 l 1
EndSplineSet
EndChar

StartChar: uni21C90338
Encoding: 120 -1 120
Width: 930
Flags: W
HStem: 71 100<90 266 398 669> 379 100<90 378 510 669>
LayerCount: 2
Back
Fore
SplineSet
636 275 m 1
 601 310 l 1
 669 379 l 1
 474 379 l 1
 398 171 l 1
 669 171 l 1
 601 240 l 1
 636 275 l 1
473 641 m 1
 558 610 l 1
 510 479 l 1
 669 479 l 1
 601 548 l 1
 671 618 l 1
 861 429 l 1
 706 275 l 1
 861 121 l 1
 671 -68 l 1
 601 2 l 1
 669 71 l 1
 362 71 l 1
 303 -91 l 1
 218 -60 l 1
 266 71 l 1
 90 71 l 1
 90 171 l 1
 302 171 l 1
 378 379 l 1
 90 379 l 1
 90 479 l 1
 414 479 l 1
 473 641 l 1
EndSplineSet
EndChar

StartChar: uni21C80338
Encoding: 121 -1 121
Width: 896
Flags: W
VStem: 244 100<-100 76 208 479> 552 100<-100 188 320 479>
LayerCount: 2
Back
Fore
SplineSet
448 446 m 1
 413 411 l 1
 344 479 l 1
 344 208 l 1
 552 284 l 1
 552 479 l 1
 483 411 l 1
 448 446 l 1
113 28 m 1
 82 113 l 1
 244 172 l 1
 244 479 l 1
 175 411 l 1
 105 481 l 1
 294 671 l 1
 448 516 l 1
 602 671 l 1
 791 481 l 1
 721 411 l 1
 652 479 l 1
 652 320 l 1
 783 368 l 1
 814 283 l 1
 652 224 l 1
 652 -100 l 1
 552 -100 l 1
 552 188 l 1
 344 112 l 1
 344 -100 l 1
 244 -100 l 1
 244 76 l 1
 113 28 l 1
EndSplineSet
EndChar

StartChar: uni21C70338
Encoding: 122 -1 122
Width: 930
Flags: W
HStem: 71 100<261 420 552 840> 379 100<261 532 664 840>
LayerCount: 2
Back
Fore
SplineSet
294 275 m 1
 329 240 l 1
 261 171 l 1
 456 171 l 1
 532 379 l 1
 261 379 l 1
 329 310 l 1
 294 275 l 1
457 -91 m 1
 372 -60 l 1
 420 71 l 1
 261 71 l 1
 329 2 l 1
 259 -68 l 1
 69 121 l 1
 224 275 l 1
 69 429 l 1
 259 618 l 1
 329 548 l 1
 261 479 l 1
 568 479 l 1
 627 641 l 1
 712 610 l 1
 664 479 l 1
 840 479 l 1
 840 379 l 1
 628 379 l 1
 552 171 l 1
 840 171 l 1
 840 71 l 1
 516 71 l 1
 457 -91 l 1
EndSplineSet
EndChar

StartChar: uni21CA0338
Encoding: 123 -1 123
Width: 896
Flags: W
VStem: 244 100<71 230 362 650> 552 100<71 342 474 650>
LayerCount: 2
Back
Fore
SplineSet
448 104 m 1
 483 139 l 1
 552 71 l 1
 552 342 l 1
 344 266 l 1
 344 71 l 1
 413 139 l 1
 448 104 l 1
783 522 m 1
 814 437 l 1
 652 378 l 1
 652 71 l 1
 721 139 l 1
 791 69 l 1
 602 -121 l 1
 448 34 l 1
 294 -121 l 1
 105 69 l 1
 175 139 l 1
 244 71 l 1
 244 230 l 1
 113 182 l 1
 82 267 l 1
 244 326 l 1
 244 650 l 1
 344 650 l 1
 344 362 l 1
 552 438 l 1
 552 650 l 1
 652 650 l 1
 652 474 l 1
 783 522 l 1
EndSplineSet
EndChar

StartChar: sym05D_uni0338
Encoding: 124 -1 124
Width: 1217
Flags: W
HStem: 346 100<779 827> 564 100<511 609>
VStem: 679 100<446 492> 897 100<178 276>
LayerCount: 2
Back
Fore
SplineSet
729 396 m 1
 679 396 l 1
 679 492 l 1
 541 354 l 1
 635 154 l 1
 827 346 l 1
 729 346 l 1
 729 396 l 1
356 539 m 1
 437 577 l 1
 496 451 l 1
 609 564 l 1
 511 564 l 1
 511 664 l 1
 779 664 l 1
 779 446 l 1
 997 446 l 1
 997 178 l 1
 897 178 l 1
 897 276 l 1
 679 58 l 1
 752 -98 l 1
 671 -136 l 1
 612 -9 l 1
 487 -134 l 1
 417 -64 l 1
 567 86 l 1
 474 287 l 1
 270 83 l 1
 199 154 l 1
 429 384 l 1
 356 539 l 1
EndSplineSet
EndChar

StartChar: sym05C_uni0338
Encoding: 125 -1 125
Width: 1217
Flags: W
HStem: 346 100<390 437> 564 100<608 705>
VStem: 220 100<178 275> 437 100<446 493>
LayerCount: 2
Back
Fore
SplineSet
487 396 m 1
 487 346 l 1
 390 346 l 1
 582 154 l 1
 676 354 l 1
 537 493 l 1
 537 396 l 1
 487 396 l 1
546 -136 m 1
 464 -98 l 1
 537 58 l 1
 320 275 l 1
 320 178 l 1
 220 178 l 1
 220 446 l 1
 437 446 l 1
 437 664 l 1
 705 664 l 1
 705 564 l 1
 608 564 l 1
 721 451 l 1
 780 577 l 1
 861 539 l 1
 788 384 l 1
 1018 154 l 1
 947 83 l 1
 743 287 l 1
 650 86 l 1
 800 -64 l 1
 729 -134 l 1
 605 -10 l 1
 546 -136 l 1
EndSplineSet
EndChar

StartChar: sym05F_uni0338
Encoding: 126 -1 126
Width: 1217
Flags: W
HStem: -114 100<608 705> 104 100<390 437>
VStem: 220 100<275 372> 437 100<57 104>
LayerCount: 2
Back
Fore
SplineSet
487 154 m 1
 537 154 l 1
 537 57 l 1
 676 196 l 1
 582 396 l 1
 390 204 l 1
 487 204 l 1
 487 154 l 1
861 11 m 1
 780 -27 l 1
 721 99 l 1
 608 -14 l 1
 705 -14 l 1
 705 -114 l 1
 437 -114 l 1
 437 104 l 1
 220 104 l 1
 220 372 l 1
 320 372 l 1
 320 275 l 1
 537 492 l 1
 464 648 l 1
 546 686 l 1
 605 560 l 1
 729 684 l 1
 800 614 l 1
 650 464 l 1
 743 263 l 1
 947 467 l 1
 1018 396 l 1
 788 166 l 1
 861 11 l 1
EndSplineSet
EndChar

StartChar: sym05E_uni0338
Encoding: 127 -1 127
Width: 1217
Flags: W
HStem: -114 100<511 609> 104 100<779 827>
VStem: 679 100<58 104> 897 100<274 372>
LayerCount: 2
Back
Fore
SplineSet
729 154 m 1
 729 204 l 1
 827 204 l 1
 635 396 l 1
 541 196 l 1
 679 58 l 1
 679 154 l 1
 729 154 l 1
671 686 m 1
 752 648 l 1
 679 492 l 1
 897 274 l 1
 897 372 l 1
 997 372 l 1
 997 104 l 1
 779 104 l 1
 779 -114 l 1
 511 -114 l 1
 511 -14 l 1
 609 -14 l 1
 496 99 l 1
 437 -27 l 1
 356 11 l 1
 429 166 l 1
 199 396 l 1
 270 467 l 1
 474 263 l 1
 567 464 l 1
 417 614 l 1
 487 684 l 1
 612 559 l 1
 671 686 l 1
EndSplineSet
EndChar

StartChar: uni21C40338
Encoding: 128 -1 128
Width: 930
Flags: W
HStem: 71 100<261 384 492 840> 379 100<90 438 546 669>
LayerCount: 2
Back
Fore
SplineSet
483 635 m 1
 571 620 l 1
 546 479 l 1
 669 479 l 1
 601 548 l 1
 671 618 l 1
 861 429 l 1
 671 240 l 1
 601 310 l 1
 669 379 l 1
 529 379 l 1
 492 171 l 1
 840 171 l 1
 840 71 l 1
 474 71 l 1
 447 -85 l 1
 359 -70 l 1
 384 71 l 1
 261 71 l 1
 329 2 l 1
 259 -68 l 1
 69 121 l 1
 259 310 l 1
 329 240 l 1
 261 171 l 1
 401 171 l 1
 438 379 l 1
 90 379 l 1
 90 479 l 1
 456 479 l 1
 483 635 l 1
EndSplineSet
EndChar

StartChar: uni21C50338
Encoding: 129 -1 129
Width: 896
Flags: W
VStem: 244 100<-100 153 285 479> 552 100<71 265 397 650>
LayerCount: 2
Back
Fore
SplineSet
113 105 m 1
 82 190 l 1
 244 249 l 1
 244 479 l 1
 175 411 l 1
 105 481 l 1
 294 671 l 1
 483 481 l 1
 413 411 l 1
 344 479 l 1
 344 285 l 1
 552 361 l 1
 552 650 l 1
 652 650 l 1
 652 397 l 1
 783 445 l 1
 814 360 l 1
 652 301 l 1
 652 71 l 1
 721 139 l 1
 791 69 l 1
 602 -121 l 1
 413 69 l 1
 483 139 l 1
 552 71 l 1
 552 265 l 1
 344 189 l 1
 344 -100 l 1
 244 -100 l 1
 244 153 l 1
 113 105 l 1
EndSplineSet
EndChar

StartChar: sym061_uni0338
Encoding: 130 -1 130
Width: 1217
Flags: W
HStem: -114 100<608 705> 564 100<511 609>
VStem: 437 100<57 154> 679 100<396 492>
LayerCount: 2
Back
Fore
SplineSet
366 542 m 1
 440 594 l 1
 522 477 l 1
 609 564 l 1
 511 564 l 1
 511 664 l 1
 779 664 l 1
 779 396 l 1
 679 396 l 1
 679 492 l 1
 580 393 l 1
 701 221 l 1
 947 467 l 1
 1018 396 l 1
 759 137 l 1
 850 8 l 1
 777 -44 l 1
 695 73 l 1
 608 -14 l 1
 705 -14 l 1
 705 -114 l 1
 437 -114 l 1
 437 154 l 1
 537 154 l 1
 537 57 l 1
 636 156 l 1
 516 329 l 1
 270 83 l 1
 199 154 l 1
 457 412 l 1
 366 542 l 1
EndSplineSet
EndChar

StartChar: sym060_uni0338
Encoding: 131 -1 131
Width: 1217
Flags: W
HStem: 104 100<729 827> 346 100<390 487>
VStem: 220 100<178 275> 897 100<274 372>
LayerCount: 2
Back
Fore
SplineSet
492 -82 m 1
 410 -44 l 1
 483 112 l 1
 320 275 l 1
 320 178 l 1
 220 178 l 1
 220 446 l 1
 487 446 l 1
 487 346 l 1
 390 346 l 1
 528 208 l 1
 621 410 l 1
 417 614 l 1
 487 684 l 1
 666 505 l 1
 725 632 l 1
 807 594 l 1
 734 437 l 1
 897 274 l 1
 897 372 l 1
 997 372 l 1
 997 104 l 1
 729 104 l 1
 729 204 l 1
 827 204 l 1
 689 342 l 1
 596 140 l 1
 800 -64 l 1
 729 -134 l 1
 551 44 l 1
 492 -82 l 1
EndSplineSet
EndChar

StartChar: uni21C60338
Encoding: 132 -1 132
Width: 930
Flags: W
HStem: 71 100<90 343 475 669> 379 100<261 455 587 840>
LayerCount: 2
Back
Fore
SplineSet
550 641 m 1
 635 610 l 1
 587 479 l 1
 840 479 l 1
 840 379 l 1
 551 379 l 1
 475 171 l 1
 669 171 l 1
 601 240 l 1
 671 310 l 1
 861 121 l 1
 671 -68 l 1
 601 2 l 1
 669 71 l 1
 439 71 l 1
 380 -91 l 1
 295 -60 l 1
 343 71 l 1
 90 71 l 1
 90 171 l 1
 379 171 l 1
 455 379 l 1
 261 379 l 1
 329 310 l 1
 259 240 l 1
 69 429 l 1
 259 618 l 1
 329 548 l 1
 261 479 l 1
 491 479 l 1
 550 641 l 1
EndSplineSet
EndChar

StartChar: uni21F50338
Encoding: 133 -1 133
Width: 896
Flags: W
VStem: 244 100<71 194 302 650> 552 100<-100 248 356 479>
LayerCount: 2
Back
Fore
SplineSet
103 169 m 1
 88 257 l 1
 244 284 l 1
 244 650 l 1
 344 650 l 1
 344 302 l 1
 552 339 l 1
 552 479 l 1
 483 411 l 1
 413 481 l 1
 602 671 l 1
 791 481 l 1
 721 411 l 1
 652 479 l 1
 652 356 l 1
 793 381 l 1
 808 293 l 1
 652 266 l 1
 652 -100 l 1
 552 -100 l 1
 552 248 l 1
 344 211 l 1
 344 71 l 1
 413 139 l 1
 483 69 l 1
 294 -121 l 1
 105 69 l 1
 175 139 l 1
 244 71 l 1
 244 194 l 1
 103 169 l 1
EndSplineSet
EndChar

StartChar: sym063_uni0338
Encoding: 134 -1 134
Width: 1217
Flags: W
HStem: 104 100<390 487> 346 100<729 827>
VStem: 220 100<275 372> 897 100<178 276>
LayerCount: 2
Back
Fore
SplineSet
410 594 m 1
 492 632 l 1
 551 506 l 1
 729 684 l 1
 800 614 l 1
 596 410 l 1
 689 208 l 1
 827 346 l 1
 729 346 l 1
 729 446 l 1
 997 446 l 1
 997 178 l 1
 897 178 l 1
 897 276 l 1
 734 113 l 1
 807 -44 l 1
 725 -82 l 1
 666 45 l 1
 487 -134 l 1
 417 -64 l 1
 621 140 l 1
 528 342 l 1
 390 204 l 1
 487 204 l 1
 487 104 l 1
 220 104 l 1
 220 372 l 1
 320 372 l 1
 320 275 l 1
 483 438 l 1
 410 594 l 1
EndSplineSet
EndChar

StartChar: sym062_uni0338
Encoding: 135 -1 135
Width: 1217
Flags: W
HStem: -114 100<511 609> 564 100<608 705>
VStem: 437 100<396 493> 679 100<58 154>
LayerCount: 2
Back
Fore
SplineSet
440 -44 m 1
 366 8 l 1
 457 138 l 1
 199 396 l 1
 270 467 l 1
 516 221 l 1
 636 394 l 1
 537 493 l 1
 537 396 l 1
 437 396 l 1
 437 664 l 1
 705 664 l 1
 705 564 l 1
 608 564 l 1
 695 477 l 1
 777 594 l 1
 850 542 l 1
 759 413 l 1
 1018 154 l 1
 947 83 l 1
 701 329 l 1
 580 157 l 1
 679 58 l 1
 679 154 l 1
 779 154 l 1
 779 -114 l 1
 511 -114 l 1
 511 -14 l 1
 609 -14 l 1
 522 73 l 1
 440 -44 l 1
EndSplineSet
EndChar

StartChar: uni219D0338
Encoding: 136 57883 136
Width: 930
Flags: W
HStem: 148 100<459.939 535.374> 225 100<613.179 669> 302 100<234 326.188>
LayerCount: 2
Back
Fore
SplineSet
445 564 m 1xa0
 530 533 l 1
 442 292 l 1
 458 270 475 248 501 248 c 0xa0
 520 248 530 267 545 277 c 0
 576 299 613 325 646 325 c 2
 669 325 l 1
 601 394 l 1
 671 464 l 1
 861 275 l 1
 671 86 l 1
 601 156 l 1
 669 225 l 1
 646 225 l 2x40
 644 225 617 206 602 196 c 0
 571 174 539 148 501 148 c 0
 464 148 432 164 404 187 c 1
 331 -14 l 1
 246 17 l 1
 337 267 l 1
 323 286 307 302 284 302 c 0
 234 302 210 249 181 208 c 1
 99 265 l 1
 146 333 203 402 284 402 c 0
 318 402 348 389 374 369 c 1
 445 564 l 1xa0
EndSplineSet
EndChar

StartChar: sym064_uni0338.alt
Encoding: 137 -1 137
Width: 742
Flags: W
VStem: 244 100<43.9998 136.188> 321 100<423.179 479> 398 100<269.939 345.374>
LayerCount: 2
Back
Fore
SplineSet
82 255 m 1xa0
 113 340 l 1
 354 252 l 1
 376 268 398 285 398 311 c 0xa0
 398 330 379 340 369 355 c 0
 347 386 321 423 321 456 c 2
 321 479 l 1
 252 411 l 1
 182 481 l 1
 371 671 l 1
 560 481 l 1
 490 411 l 1
 421 479 l 1
 421 456 l 2x40
 421 454 440 427 450 412 c 0
 472 381 498 349 498 311 c 0
 498 274 482 242 459 214 c 1
 660 141 l 1
 629 56 l 1
 379 147 l 1
 360 133 344 117 344 94 c 0
 344 44 397 20 438 -9 c 1
 381 -91 l 1
 313 -44 244 13 244 94 c 0
 244 128 257 158 277 184 c 1
 82 255 l 1xa0
EndSplineSet
EndChar

StartChar: uni219C0338.alt
Encoding: 138 -1 138
Width: 930
Flags: W
HStem: 148 100<603.812 696> 225 100<261 316.821> 302 100<394.626 470.061>
LayerCount: 2
Back
Fore
SplineSet
485 -14 m 1xa0
 400 17 l 1
 488 258 l 1
 472 280 455 302 429 302 c 0xa0
 410 302 400 283 385 273 c 0
 354 251 317 225 284 225 c 2
 261 225 l 1
 329 156 l 1
 259 86 l 1
 69 275 l 1
 259 464 l 1
 329 394 l 1
 261 325 l 1
 284 325 l 2x40
 286 325 313 344 328 354 c 0
 359 376 391 402 429 402 c 0
 466 402 498 386 526 363 c 1
 599 564 l 1
 684 533 l 1
 593 283 l 1
 607 264 623 248 646 248 c 0
 696 248 720 301 749 342 c 1
 831 285 l 1
 784 217 727 148 646 148 c 0
 612 148 582 161 556 181 c 1
 485 -14 l 1xa0
EndSplineSet
EndChar

StartChar: sym065_uni0338
Encoding: 139 -1 139
Width: 742
Flags: W
VStem: 244 100<204.626 280.061> 321 100<71 126.821> 398 100<413.812 506>
LayerCount: 2
Back
Fore
SplineSet
660 295 m 1xa0
 629 210 l 1
 388 298 l 1
 366 282 344 265 344 239 c 0xa0
 344 220 363 210 373 195 c 0
 395 164 421 127 421 94 c 2
 421 71 l 1
 490 139 l 1
 560 69 l 1
 371 -121 l 1
 182 69 l 1
 252 139 l 1
 321 71 l 1
 321 94 l 2x40
 321 96 302 123 292 138 c 0
 270 169 244 201 244 239 c 0
 244 276 260 308 283 336 c 1
 82 409 l 1
 113 494 l 1
 363 403 l 1
 382 417 398 433 398 456 c 0
 398 506 345 530 304 559 c 1
 361 641 l 1
 429 594 498 537 498 456 c 0
 498 422 485 392 465 366 c 1
 660 295 l 1xa0
EndSplineSet
EndChar

StartChar: uni219D0338.alt
Encoding: 140 -1 140
Width: 930
Flags: W
HStem: 148 100<234.143 293.167> 225 100<613.179 669> 302 100<482.296 535.374>
LayerCount: 2
Back
Fore
SplineSet
445 564 m 1x80
 530 533 l 1
 482 401 l 1
 488 402 494 402 501 402 c 0xa0
 539 402 571 376 602 354 c 0
 617 344 644 325 646 325 c 2
 669 325 l 1
 601 394 l 1
 671 464 l 1
 861 275 l 1
 671 86 l 1
 601 156 l 1
 669 225 l 1
 646 225 l 2x40
 613 225 576 251 545 273 c 0
 530 283 520 302 501 302 c 0x20
 462 302 440 252 418 225 c 1x40
 331 -14 l 1
 246 17 l 1
 294 148 l 1
 291 148 287 148 284 148 c 0
 203 148 146 217 99 285 c 1
 181 342 l 1
 210 301 234 248 284 248 c 0
 313 248 332 274 349 299 c 1
 445 564 l 1x80
EndSplineSet
EndChar

StartChar: sym064_uni0338
Encoding: 141 -1 141
Width: 742
Flags: W
VStem: 244 100<292.296 345.374> 321 100<423.179 479> 398 100<44.1425 103.167>
LayerCount: 2
Back
Fore
SplineSet
82 255 m 1x20
 113 340 l 1
 245 292 l 1
 244 298 244 304 244 311 c 0xa0
 244 349 270 381 292 412 c 0
 302 427 321 454 321 456 c 2
 321 479 l 1
 252 411 l 1
 182 481 l 1
 371 671 l 1
 560 481 l 1
 490 411 l 1
 421 479 l 1
 421 456 l 2x40
 421 423 395 386 373 355 c 0
 363 340 344 330 344 311 c 0x80
 344 272 394 250 421 228 c 1x40
 660 141 l 1
 629 56 l 1
 498 104 l 1
 498 101 498 97 498 94 c 0
 498 13 429 -44 361 -91 c 1
 304 -9 l 1
 345 20 398 44 398 94 c 0
 398 123 372 142 347 159 c 1
 82 255 l 1x20
EndSplineSet
EndChar

StartChar: uni219C0338
Encoding: 142 -1 142
Width: 930
Flags: W
HStem: 148 100<394.626 447.704> 225 100<261 316.821> 302 100<636.833 695.857>
LayerCount: 2
Back
Fore
SplineSet
485 -14 m 1x20
 400 17 l 1
 448 149 l 1
 442 148 436 148 429 148 c 0xa0
 391 148 359 174 328 196 c 0
 313 206 286 225 284 225 c 2
 261 225 l 1
 329 156 l 1
 259 86 l 1
 69 275 l 1
 259 464 l 1
 329 394 l 1
 261 325 l 1
 284 325 l 2x40
 317 325 354 299 385 277 c 0
 400 267 410 248 429 248 c 0x80
 468 248 490 298 512 325 c 1x40
 599 564 l 1
 684 533 l 1
 636 402 l 1
 639 402 643 402 646 402 c 0
 727 402 784 333 831 265 c 1
 749 208 l 1
 720 249 696 302 646 302 c 0
 617 302 598 276 581 251 c 1
 485 -14 l 1x20
EndSplineSet
EndChar

StartChar: sym065_uni0338.alt
Encoding: 143 -1 143
Width: 742
Flags: W
VStem: 244 100<446.833 505.857> 321 100<71 126.821> 398 100<204.626 257.704>
LayerCount: 2
Back
Fore
SplineSet
660 295 m 1x80
 629 210 l 1
 497 258 l 1
 498 252 498 246 498 239 c 0xa0
 498 201 472 169 450 138 c 0
 440 123 421 96 421 94 c 2
 421 71 l 1
 490 139 l 1
 560 69 l 1
 371 -121 l 1
 182 69 l 1
 252 139 l 1
 321 71 l 1
 321 94 l 2x40
 321 127 347 164 369 195 c 0
 379 210 398 220 398 239 c 0x20
 398 278 348 300 321 322 c 1x40
 82 409 l 1
 113 494 l 1
 244 446 l 1
 244 449 244 453 244 456 c 0
 244 537 313 594 381 641 c 1
 438 559 l 1
 397 530 344 506 344 456 c 0
 344 427 370 408 395 391 c 1
 660 295 l 1x80
EndSplineSet
EndChar

StartChar: uni21AD0338
Encoding: 144 -1 144
Width: 1080
Flags: W
HStem: 148 100<607.491 681.549> 225 100<261 319.493 760.507 819> 302 100<396.39 472.509>
LayerCount: 2
Back
Fore
SplineSet
597 564 m 1x20
 682 533 l 1
 593 287 l 1
 608 266 625 248 649 248 c 0xa0
 651 248 678 267 693 277 c 0
 725 299 756 325 795 325 c 2
 819 325 l 1
 751 394 l 1
 821 464 l 1
 1011 275 l 1
 821 86 l 1
 751 156 l 1
 819 225 l 1
 795 225 l 2x40
 776 225 765 206 751 196 c 0
 719 174 683 148 649 148 c 0
 614 148 582 162 555 184 c 1
 483 -14 l 1
 398 17 l 1
 487 263 l 1
 472 284 455 302 431 302 c 0xa0
 412 302 402 283 387 273 c 0
 355 251 324 225 285 225 c 2
 261 225 l 1
 329 156 l 1
 259 86 l 1
 69 275 l 1
 259 464 l 1
 329 394 l 1
 261 325 l 1
 285 325 l 2x40
 304 325 315 344 329 354 c 0
 361 376 392 402 431 402 c 0
 466 402 498 388 525 366 c 1
 597 564 l 1x20
EndSplineSet
EndChar

StartChar: sym066_uni0338.alt
Encoding: 145 -1 145
Width: 742
Flags: W
VStem: 244 100<131.39 207.509> 321 100<-4 54.4934 495.507 554> 398 100<342.491 416.549>
LayerCount: 2
Back
Fore
SplineSet
82 332 m 1x80
 113 417 l 1
 359 328 l 1
 380 343 398 360 398 384 c 0xa0
 398 386 379 413 369 428 c 0
 347 460 321 491 321 530 c 2
 321 554 l 1
 252 486 l 1
 182 556 l 1
 371 746 l 1
 560 556 l 1
 490 486 l 1
 421 554 l 1
 421 530 l 2x40
 421 511 440 500 450 486 c 0
 472 454 498 418 498 384 c 0
 498 349 484 317 462 290 c 1
 660 218 l 1
 629 133 l 1
 383 222 l 1
 362 207 344 190 344 166 c 0xa0
 344 147 363 137 373 122 c 0
 395 90 421 59 421 20 c 2
 421 -4 l 1
 490 64 l 1
 560 -6 l 1
 371 -196 l 1
 182 -6 l 1
 252 64 l 1
 321 -4 l 1
 321 20 l 2x40
 321 39 302 50 292 64 c 0
 270 96 244 127 244 166 c 0
 244 201 258 233 280 260 c 1
 82 332 l 1x80
EndSplineSet
EndChar

StartChar: uni21AD0338.alt
Encoding: 146 -1 146
Width: 1080
Flags: W
HStem: 148 100<396.39 445.342> 225 100<261 319.493 760.507 819> 302 100<634.658 681.549>
LayerCount: 2
Back
Fore
SplineSet
597 564 m 1x80
 682 533 l 1
 634 401 l 1
 639 402 644 402 649 402 c 0xa0
 683 402 719 376 751 354 c 0
 765 344 776 325 795 325 c 2
 819 325 l 1
 751 394 l 1
 821 464 l 1
 1011 275 l 1
 821 86 l 1
 751 156 l 1
 819 225 l 1
 795 225 l 2x40
 756 225 725 251 693 273 c 0
 678 283 651 302 649 302 c 0
 614 302 594 264 574 237 c 1
 483 -14 l 1
 398 17 l 1
 446 149 l 1
 441 148 436 148 431 148 c 0xa0
 392 148 361 174 329 196 c 0
 315 206 304 225 285 225 c 2
 261 225 l 1
 329 156 l 1
 259 86 l 1
 69 275 l 1
 259 464 l 1
 329 394 l 1
 261 325 l 1
 285 325 l 2x40
 324 325 355 299 387 277 c 0
 402 267 412 248 431 248 c 0
 466 248 486 286 506 313 c 1
 597 564 l 1x80
EndSplineSet
EndChar

StartChar: sym066_uni0338
Encoding: 147 -1 147
Width: 742
Flags: W
VStem: 244 100<369.658 416.549> 321 100<-4 54.4934 495.507 554> 398 100<131.39 180.342>
LayerCount: 2
Back
Fore
SplineSet
82 332 m 1x20
 113 417 l 1
 245 369 l 1
 244 374 244 379 244 384 c 0xa0
 244 418 270 454 292 486 c 0
 302 500 321 511 321 530 c 2
 321 554 l 1
 252 486 l 1
 182 556 l 1
 371 746 l 1
 560 556 l 1
 490 486 l 1
 421 554 l 1
 421 530 l 2x40
 421 491 395 460 373 428 c 0
 363 413 344 386 344 384 c 0
 344 349 382 329 409 309 c 1
 660 218 l 1
 629 133 l 1
 497 181 l 1
 498 176 498 171 498 166 c 0xa0
 498 127 472 96 450 64 c 0
 440 50 421 39 421 20 c 2
 421 -4 l 1
 490 64 l 1
 560 -6 l 1
 371 -196 l 1
 182 -6 l 1
 252 64 l 1
 321 -4 l 1
 321 20 l 2x40
 321 59 347 90 369 122 c 0
 379 137 398 147 398 166 c 0
 398 201 360 221 333 241 c 1
 82 332 l 1x20
EndSplineSet
EndChar

StartChar: sym069_uni0338
Encoding: 148 -1 148
Width: 930
Flags: W
HStem: 302 100<318.102 421>
LayerCount: 2
Back
Fore
SplineSet
417 402 m 0
 424 402 432 402 439 402 c 1
 469 574 l 1
 558 558 l 1
 528 385 l 1
 601 362 665 316 719 258 c 1
 727 342 l 1
 826 334 l 1
 803 67 l 1
 536 90 l 1
 545 190 l 1
 655 180 l 1
 615 227 566 265 510 286 c 1
 461 7 l 1
 372 23 l 1
 421 302 l 2
 420 302 l 0
 324 302 237 249 181 169 c 1
 99 227 l 1
 173 333 289 402 417 402 c 0
EndSplineSet
EndChar

StartChar: sym068_uni0338
Encoding: 149 -1 149
Width: 742
Flags: W
VStem: 244 100<127.706 231>
LayerCount: 2
Back
Fore
SplineSet
244 226 m 0
 244 233 244 242 244 249 c 1
 72 279 l 1
 88 368 l 1
 261 338 l 1
 284 411 330 475 388 529 c 1
 304 537 l 1
 312 636 l 1
 579 613 l 1
 556 346 l 1
 456 355 l 1
 466 465 l 1
 419 425 381 376 360 320 c 1
 639 271 l 1
 623 182 l 1
 344 231 l 2
 344 230 344 230 344 229 c 0
 344 134 397 47 477 -9 c 1
 419 -91 l 1
 313 -17 244 99 244 226 c 0
EndSplineSet
EndChar

StartChar: sym067_uni0338
Encoding: 150 -1 150
Width: 930
Flags: W
HStem: 148 100<509 612.294>
LayerCount: 2
Back
Fore
SplineSet
514 148 m 0
 507 148 498 148 491 148 c 1
 461 -24 l 1
 372 -8 l 1
 402 165 l 1
 329 188 265 234 211 292 c 1
 203 208 l 1
 104 216 l 1
 127 483 l 1
 394 460 l 1
 385 360 l 1
 275 370 l 1
 315 323 364 285 420 264 c 1
 469 543 l 1
 558 527 l 1
 509 248 l 2
 510 248 510 248 511 248 c 0
 606 248 693 301 749 381 c 1
 831 323 l 1
 757 217 641 148 514 148 c 0
EndSplineSet
EndChar

StartChar: uni29380338
Encoding: 151 -1 151
Width: 742
Flags: W
VStem: 398 100<319 422.294>
LayerCount: 2
Back
Fore
SplineSet
498 324 m 0
 498 317 498 308 498 301 c 1
 670 271 l 1
 654 182 l 1
 481 212 l 1
 458 139 412 75 354 21 c 1
 438 13 l 1
 430 -86 l 1
 163 -63 l 1
 186 204 l 1
 286 195 l 1
 276 85 l 1
 323 125 361 174 382 230 c 1
 103 279 l 1
 119 368 l 1
 398 319 l 2
 398 320 398 320 398 321 c 0
 398 416 345 503 265 559 c 1
 323 641 l 1
 429 567 498 451 498 324 c 0
EndSplineSet
EndChar

StartChar: sym06C_uni0338
Encoding: 152 -1 152
Width: 1108
Flags: W
HStem: 344 99<595.961 745.525>
VStem: 322 101<-2.5467 173.229>
LayerCount: 2
Back
Fore
SplineSet
322 58 m 0
 322 167 364 274 446 346 c 1
 346 489 l 1
 419 541 l 1
 520 397 l 1
 582 429 652 443 724 443 c 0
 731 443 739 443 746 443 c 1
 691 508 l 1
 768 572 l 1
 940 367 l 1
 735 195 l 1
 671 271 l 1
 756 343 l 1
 744 344 733 344 721 344 c 0
 671 344 622 336 578 315 c 1
 740 83 l 1
 666 31 l 1
 504 263 l 1
 449 210 423 136 423 59 c 0
 423 39 424 19 428 -1 c 1
 329 -18 l 1
 325 7 322 33 322 58 c 0
EndSplineSet
EndChar

StartChar: sym06B_uni0338
Encoding: 153 -1 153
Width: 1108
Flags: W
HStem: 43 101<655.691 830.454>
VStem: 386 99<317.901 466.525>
LayerCount: 2
Back
Fore
SplineSet
771 43 m 0
 662 43 555 85 483 167 c 1
 340 67 l 1
 288 141 l 1
 432 242 l 1
 400 304 386 374 386 445 c 0
 386 452 386 460 386 467 c 1
 321 412 l 1
 257 489 l 1
 462 661 l 1
 634 456 l 1
 558 392 l 1
 486 477 l 1
 485 465 485 454 485 442 c 0
 485 392 494 343 514 299 c 1
 746 461 l 1
 798 388 l 1
 565 225 l 1
 618 170 694 144 770 144 c 0
 790 144 809 145 829 149 c 1
 847 50 l 1
 822 46 796 43 771 43 c 0
EndSplineSet
EndChar

StartChar: uni29360338
Encoding: 154 -1 154
Width: 1108
Flags: W
HStem: 107 99<362.475 511.099>
VStem: 685 100<375.68 552.328>
LayerCount: 2
Back
Fore
SplineSet
785 490 m 0
 785 381 743 275 662 204 c 1
 762 61 l 1
 688 9 l 1
 587 153 l 1
 525 121 455 107 384 107 c 0
 376 107 370 108 362 108 c 1
 416 42 l 1
 340 -22 l 1
 168 183 l 1
 373 355 l 1
 437 279 l 1
 352 207 l 1
 364 206 375 206 387 206 c 0
 437 206 486 215 530 235 c 1
 368 467 l 1
 441 519 l 1
 604 286 l 1
 659 339 685 414 685 491 c 0
 685 511 684 531 680 551 c 1
 778 568 l 1
 783 542 785 516 785 490 c 0
EndSplineSet
EndChar

StartChar: uni29350338
Encoding: 155 -1 155
Width: 1108
Flags: W
HStem: 406 101<276.453 452.491>
VStem: 623 99<84.0805 228.946>
LayerCount: 2
Back
Fore
SplineSet
337 507 m 0
 446 507 553 465 625 383 c 1
 768 483 l 1
 820 409 l 1
 676 308 l 1
 708 246 722 176 722 105 c 0
 722 98 722 91 722 84 c 1
 786 138 l 1
 851 61 l 1
 646 -111 l 1
 474 94 l 1
 550 158 l 1
 621 73 l 1
 622 84 623 96 623 107 c 0
 623 157 613 207 593 251 c 1
 362 89 l 1
 310 162 l 1
 543 325 l 1
 490 380 415 406 338 406 c 0
 318 406 298 405 278 401 c 1
 261 500 l 1
 286 504 312 507 337 507 c 0
EndSplineSet
EndChar

StartChar: uni293B0338
Encoding: 156 -1 156
Width: 930
Flags: W
HStem: 148 100<318.102 420.912> 528 20G<353.161 415.279>
LayerCount: 2
Back
Fore
SplineSet
457 150 m 1
 444 149 431 148 417 148 c 0
 289 148 173 217 99 323 c 1
 181 381 l 1
 237 301 324 248 420 248 c 0
 421 248 l 2
 323 517 l 1
 408 548 l 1
 511 265 l 1
 566 286 615 323 655 370 c 1
 545 360 l 1
 536 460 l 1
 803 483 l 1
 826 216 l 1
 727 208 l 1
 719 292 l 1
 670 238 611 196 545 171 c 1
 607 2 l 1
 522 -29 l 1
 457 150 l 1
EndSplineSet
EndChar

StartChar: sym06A_uni0338
Encoding: 157 -1 157
Width: 742
Flags: W
VStem: 398 100<127.706 230.592>
LayerCount: 2
Back
Fore
SplineSet
496 267 m 1
 497 254 498 240 498 226 c 0
 498 99 429 -17 323 -91 c 1
 265 -9 l 1
 345 47 398 134 398 229 c 0
 398 230 398 230 398 231 c 2
 129 133 l 1
 98 218 l 1
 381 321 l 1
 360 376 323 425 276 465 c 1
 286 355 l 1
 186 346 l 1
 163 613 l 1
 430 636 l 1
 438 537 l 1
 354 529 l 1
 407 480 450 421 475 355 c 1
 644 417 l 1
 675 332 l 1
 496 267 l 1
EndSplineSet
EndChar

StartChar: uni293A0338
Encoding: 158 -1 158
Width: 930
Flags: W
HStem: 302 100<509.408 612.294>
LayerCount: 2
Back
Fore
SplineSet
473 400 m 1
 486 401 500 402 514 402 c 0
 641 402 757 333 831 227 c 1
 749 169 l 1
 693 249 606 302 511 302 c 0
 510 302 510 302 509 302 c 2
 607 33 l 1
 522 2 l 1
 419 285 l 1
 364 264 315 227 275 180 c 1
 385 190 l 1
 394 90 l 1
 127 67 l 1
 104 334 l 1
 203 342 l 1
 211 258 l 1
 260 311 319 354 385 379 c 1
 323 548 l 1
 408 579 l 1
 473 400 l 1
EndSplineSet
EndChar

StartChar: uni29390338
Encoding: 159 -1 159
Width: 742
Flags: W
VStem: 244 100<319.408 422.294>
LayerCount: 2
Back
Fore
SplineSet
246 283 m 1
 245 296 244 310 244 324 c 0
 244 451 313 567 419 641 c 1
 477 559 l 1
 397 503 344 416 344 321 c 0
 344 320 344 320 344 319 c 2
 613 417 l 1
 644 332 l 1
 361 229 l 1
 382 174 419 125 466 85 c 1
 456 195 l 1
 556 204 l 1
 579 -63 l 1
 312 -86 l 1
 304 13 l 1
 388 21 l 1
 335 70 292 129 267 195 c 1
 98 133 l 1
 67 218 l 1
 246 283 l 1
EndSplineSet
EndChar

StartChar: uni29340338
Encoding: 160 -1 160
Width: 1108
Flags: W
HStem: 43 101<276.453 450.431>
VStem: 623 99<318.848 465.92>
LayerCount: 2
Back
Fore
SplineSet
637 180 m 1
 567 92 452 43 337 43 c 0
 312 43 286 46 261 50 c 1
 278 149 l 1
 298 145 318 144 338 144 c 0
 415 144 489 171 542 225 c 1
 282 346 l 1
 320 428 l 1
 594 300 l 1
 614 344 623 393 623 443 c 0
 623 454 622 466 621 477 c 1
 550 392 l 1
 474 456 l 1
 646 661 l 1
 851 489 l 1
 786 412 l 1
 722 466 l 1
 722 459 722 452 722 445 c 0
 722 380 710 316 684 258 c 1
 847 182 l 1
 809 100 l 1
 637 180 l 1
EndSplineSet
EndChar

StartChar: sym06D_uni0338
Encoding: 161 -1 161
Width: 1108
Flags: W
HStem: 344 99<362.475 510.206>
VStem: 685 100<-2.32812 172.401>
LayerCount: 2
Back
Fore
SplineSet
648 358 m 1
 736 288 785 176 785 60 c 0
 785 34 783 8 778 -18 c 1
 680 -1 l 1
 684 19 685 39 685 59 c 0
 685 136 659 210 604 263 c 1
 483 3 l 1
 401 41 l 1
 529 315 l 1
 485 335 437 344 387 344 c 0
 375 344 364 344 352 343 c 1
 437 271 l 1
 373 195 l 1
 168 367 l 1
 340 572 l 1
 416 508 l 1
 362 442 l 1
 370 442 376 443 384 443 c 0
 449 443 513 431 571 405 c 1
 647 568 l 1
 728 530 l 1
 648 358 l 1
EndSplineSet
EndChar

StartChar: sym06E_uni0338
Encoding: 162 -1 162
Width: 1108
Flags: W
HStem: 406 101<657.528 830.454>
VStem: 386 99<83.4754 231.206>
LayerCount: 2
Back
Fore
SplineSet
471 369 m 1
 541 457 655 507 771 507 c 0
 796 507 822 504 847 500 c 1
 829 401 l 1
 809 405 790 406 770 406 c 0
 694 406 619 380 566 325 c 1
 826 204 l 1
 788 122 l 1
 514 250 l 1
 494 206 485 158 485 108 c 0
 485 96 485 85 486 73 c 1
 558 158 l 1
 634 94 l 1
 462 -111 l 1
 257 61 l 1
 321 138 l 1
 386 83 l 1
 386 90 386 98 386 105 c 0
 386 170 398 234 424 292 c 1
 260 368 l 1
 298 450 l 1
 471 369 l 1
EndSplineSet
EndChar

StartChar: uni29370338
Encoding: 163 -1 163
Width: 1108
Flags: W
HStem: 107 99<597.794 745.525> 527 20G<615.692 668.158>
VStem: 322 101<378.347 552.547>
LayerCount: 2
Back
Fore
SplineSet
459 192 m 1
 371 262 322 376 322 492 c 0
 322 517 325 543 329 568 c 1
 428 551 l 1
 424 531 423 511 423 491 c 0
 423 414 450 340 504 287 c 1
 625 547 l 1
 707 509 l 1
 579 235 l 1
 623 215 671 206 721 206 c 0
 733 206 744 206 756 207 c 1
 671 279 l 1
 735 355 l 1
 940 183 l 1
 768 -22 l 1
 691 42 l 1
 746 107 l 1
 739 107 731 107 724 107 c 0
 659 107 595 119 537 145 c 1
 461 -18 l 1
 379 20 l 1
 459 192 l 1
EndSplineSet
EndChar

StartChar: sym06F_uni0338
Encoding: 164 -1 164
Width: 1080
Flags: W
HStem: 298 103<419.052 491 601 660.564>
LayerCount: 2
Back
Fore
SplineSet
544 597 m 1
 633 581 l 1
 601 397 l 1
 701 382 791 329 862 255 c 1
 869 342 l 1
 969 334 l 1
 945 67 l 1
 679 90 l 1
 687 190 l 1
 795 180 l 1
 738 242 665 287 583 299 c 1
 536 30 l 1
 447 46 l 1
 491 298 l 1
 411 285 341 241 285 180 c 1
 393 190 l 1
 401 90 l 1
 135 67 l 1
 111 334 l 1
 211 342 l 1
 218 255 l 1
 296 337 397 392 509 401 c 1
 544 597 l 1
EndSplineSet
EndChar

StartChar: sym070_uni0338
Encoding: 165 -1 165
Width: 742
Flags: W
VStem: 249 98<154.436 214 324 392.697>
LayerCount: 2
Back
Fore
SplineSet
65 182 m 1
 49 271 l 1
 245 306 l 1
 254 418 309 519 391 597 c 1
 304 604 l 1
 312 704 l 1
 579 680 l 1
 556 414 l 1
 456 422 l 1
 466 530 l 1
 405 474 361 404 348 324 c 1
 600 368 l 1
 616 279 l 1
 347 232 l 1
 359 150 404 77 466 20 c 1
 456 128 l 1
 556 136 l 1
 579 -130 l 1
 312 -154 l 1
 304 -54 l 1
 391 -47 l 1
 317 24 264 114 249 214 c 1
 65 182 l 1
EndSplineSet
EndChar

StartChar: sym071_uni0338
Encoding: 166 -1 166
Width: 1080
Flags: W
HStem: 153 98<419.436 479 589 657.697>
LayerCount: 2
Back
Fore
SplineSet
536 -47 m 1
 447 -31 l 1
 479 153 l 1
 379 168 289 221 218 295 c 1
 211 208 l 1
 111 216 l 1
 135 483 l 1
 401 460 l 1
 393 360 l 1
 285 370 l 1
 342 308 415 263 497 251 c 1
 544 520 l 1
 633 504 l 1
 589 252 l 1
 669 265 739 309 795 370 c 1
 687 360 l 1
 679 460 l 1
 945 483 l 1
 969 216 l 1
 869 208 l 1
 862 295 l 1
 784 213 683 158 571 149 c 1
 536 -47 l 1
EndSplineSet
EndChar

StartChar: sym072_uni0338
Encoding: 167 -1 167
Width: 742
Flags: W
VStem: 394 103<154.052 226 336 395.564>
LayerCount: 2
Back
Fore
SplineSet
677 368 m 1
 693 279 l 1
 497 244 l 1
 488 132 433 31 351 -47 c 1
 438 -54 l 1
 430 -154 l 1
 163 -130 l 1
 186 136 l 1
 286 128 l 1
 276 20 l 1
 337 76 381 146 394 226 c 1
 142 182 l 1
 126 271 l 1
 395 318 l 1
 383 400 338 473 276 530 c 1
 286 422 l 1
 186 414 l 1
 163 680 l 1
 430 704 l 1
 438 604 l 1
 351 597 l 1
 425 526 478 436 493 336 c 1
 677 368 l 1
EndSplineSet
EndChar

StartChar: sym074_uni0338
Encoding: 168 -1 168
Width: 1214
Flags: W
HStem: 389 100<704.777 848> 537 20G<427.538 469.987>
VStem: 393 100<34 175.799>
LayerCount: 2
Back
Fore
SplineSet
382 505 m 1
 456 557 l 1
 563 404 l 1
 641 461 737 489 835 489 c 0
 839 489 844 488 848 488 c 1
 792 555 l 1
 869 620 l 1
 1041 415 l 1
 836 242 l 1
 771 319 l 1
 854 388 l 1
 847 388 840 389 834 389 c 0
 757 389 682 368 621 322 c 1
 777 99 l 1
 703 47 l 1
 556 257 l 1
 513 197 493 123 493 48 c 0
 493 41 493 35 493 28 c 1
 563 111 l 1
 640 46 l 1
 467 -159 l 1
 262 13 l 1
 327 90 l 1
 394 34 l 1
 394 38 393 43 393 47 c 0
 393 155 426 260 496 342 c 1
 382 505 l 1
EndSplineSet
EndChar

StartChar: sym073_uni0338
Encoding: 169 -1 169
Width: 1214
Flags: W
HStem: -7 21G<427.538 469.987> 61 100<704.777 848> 689 20G<443.163 483.878>
VStem: 393 100<374.201 516>
LayerCount: 2
Back
Fore
SplineSet
456 -7 m 1
 382 45 l 1
 496 208 l 1
 426 290 393 395 393 503 c 0
 393 507 394 512 394 516 c 1
 327 460 l 1
 262 537 l 1
 467 709 l 1
 640 504 l 1
 563 439 l 1
 493 522 l 1
 493 515 493 509 493 502 c 0
 493 427 513 353 556 293 c 1
 703 503 l 1
 777 451 l 1
 621 228 l 1
 682 182 757 161 834 161 c 0
 840 161 847 162 854 162 c 1
 771 231 l 1
 836 308 l 1
 1041 135 l 1
 869 -70 l 1
 792 -5 l 1
 848 62 l 1
 844 62 839 61 835 61 c 0
 737 61 641 89 563 146 c 1
 456 -7 l 1
EndSplineSet
EndChar

StartChar: sym076_uni0338
Encoding: 170 -1 170
Width: 1214
Flags: W
HStem: -7 21G<744.013 786.077> 61 100<366 508.591> 689 20G<729.22 769.953>
VStem: 721 100<373.84 516>
LayerCount: 2
Back
Fore
SplineSet
831 45 m 1
 758 -7 l 1
 651 146 l 1
 572 88 476 61 378 61 c 0
 374 61 370 62 366 62 c 1
 422 -5 l 1
 345 -70 l 1
 173 135 l 1
 378 308 l 1
 442 231 l 1
 360 162 l 1
 366 162 373 161 379 161 c 0
 457 161 532 182 593 228 c 1
 437 451 l 1
 511 503 l 1
 658 293 l 1
 701 353 721 426 721 502 c 0
 721 508 720 516 720 522 c 1
 651 439 l 1
 574 504 l 1
 746 709 l 1
 952 537 l 1
 887 460 l 1
 820 516 l 1
 820 512 821 507 821 503 c 0
 821 395 788 289 718 207 c 1
 831 45 l 1
EndSplineSet
EndChar

StartChar: sym075_uni0338
Encoding: 171 -1 171
Width: 1214
Flags: W
HStem: 389 100<366 508.591> 537 20G<744.013 786.077>
VStem: 721 100<34 176.16>
LayerCount: 2
Back
Fore
SplineSet
758 557 m 1
 831 505 l 1
 718 343 l 1
 788 261 821 155 821 47 c 0
 821 43 820 38 820 34 c 1
 887 90 l 1
 952 13 l 1
 746 -159 l 1
 574 46 l 1
 651 111 l 1
 720 28 l 1
 720 34 721 42 721 48 c 0
 721 124 701 197 658 257 c 1
 511 47 l 1
 437 99 l 1
 593 322 l 1
 532 368 457 389 379 389 c 0
 373 389 366 388 360 388 c 1
 442 319 l 1
 378 242 l 1
 173 415 l 1
 345 620 l 1
 422 555 l 1
 366 488 l 1
 370 488 374 489 378 489 c 0
 476 489 572 462 651 404 c 1
 758 557 l 1
EndSplineSet
EndChar

StartChar: sym077_uni0338
Encoding: 172 -1 172
Width: 930
Flags: W
HStem: 225 100<190 399 531 840>
VStem: 90 100<71 225 325 479>
LayerCount: 2
Back
Fore
SplineSet
522 564 m 1
 607 533 l 1
 531 325 l 1
 840 325 l 1
 840 225 l 1
 495 225 l 1
 408 -14 l 1
 323 17 l 1
 399 225 l 1
 190 225 l 1
 190 71 l 1
 90 71 l 1
 90 479 l 1
 190 479 l 1
 190 325 l 1
 435 325 l 1
 522 564 l 1
EndSplineSet
EndChar

StartChar: sym078_uni0338
Encoding: 173 -1 173
Width: 930
Flags: W
HStem: 225 100<90 399 531 740>
VStem: 740 100<71 225 325 479>
LayerCount: 2
Back
Fore
SplineSet
408 -14 m 1
 323 17 l 1
 399 225 l 1
 90 225 l 1
 90 325 l 1
 435 325 l 1
 522 564 l 1
 607 533 l 1
 531 325 l 1
 740 325 l 1
 740 479 l 1
 840 479 l 1
 840 71 l 1
 740 71 l 1
 740 225 l 1
 495 225 l 1
 408 -14 l 1
EndSplineSet
EndChar

StartChar: sym079_uni0338
Encoding: 174 -1 174
Width: 1260
Flags: W
HStem: -212 100<608 754.416> -195 99<463.567 501> 646 99<759 796.433> 662 100<505.584 652>
VStem: 143 100<149.698 400.302> 1011 99<358.727 418.743>
LayerCount: 2
Back
Fore
SplineSet
518 -96 m 1x5c
 652 661 l 1
 645 661 637 662 630 662 c 0
 527 662 429 622 356 549 c 0
 283 476 243 378 243 275 c 0
 243 172 283 74 356 1 c 0
 402 -45 457 -78 518 -96 c 1x5c
681 823 m 1
 770 807 l 1
 759 745 l 1
 840 723 914 680 975 620 c 0
 1045 549 1093 458 1110 360 c 1
 1011 342 l 1
 998 421 960 493 904 549 c 0
 858 594 802 628 741 646 c 1
 608 -111 l 1
 615 -111 622 -112 630 -112 c 0
 733 -112 831 -71 904 1 c 0
 938 35 965 74 984 118 c 1
 873 78 l 1
 839 172 l 1
 1091 263 l 1
 1182 12 l 1
 1088 -23 l 1
 1062 49 l 1
 1039 5 1010 -35 975 -70 c 0
 883 -161 759 -212 630 -212 c 0xac
 617 -212 603 -211 590 -210 c 1
 579 -273 l 1
 490 -257 l 1
 501 -195 l 1
 420 -173 346 -130 285 -70 c 0
 194 22 143 146 143 275 c 0
 143 404 194 528 285 620 c 0
 377 711 501 762 630 762 c 0
 643 762 657 761 670 760 c 1
 681 823 l 1
EndSplineSet
EndChar

StartChar: uni21BA0338
Encoding: 175 -1 175
Width: 1260
Flags: W
HStem: -212 100<502.389 755.302> 656 99<486.257 546.273>
VStem: 143 100<146.95 400.302> 1017 100<149.698 403.05>
LayerCount: 2
Back
Fore
SplineSet
954 488 m 1
 364 -7 l 1
 436 -75 531 -112 630 -112 c 0
 733 -112 831 -72 904 1 c 0
 977 74 1017 172 1017 275 c 0
 1017 351 995 425 954 488 c 1
1056 691 m 1
 1114 622 l 1
 1031 552 l 1
 1087 471 1117 375 1117 275 c 0
 1117 146 1066 22 975 -70 c 0
 883 -161 759 -212 630 -212 c 0
 502 -212 379 -162 287 -72 c 1
 204 -141 l 1
 146 -72 l 1
 229 -2 l 1
 173 79 143 175 143 275 c 0
 143 404 194 528 285 620 c 0
 356 690 447 738 545 755 c 1
 563 656 l 1
 484 643 412 605 356 549 c 0
 284 476 243 378 243 275 c 0
 243 199 265 125 306 62 c 1
 896 557 l 1
 864 587 827 611 787 629 c 1
 827 518 l 1
 733 484 l 1
 642 736 l 1
 894 827 l 1
 928 733 l 1
 856 707 l 1
 899 685 938 656 973 622 c 1
 1056 691 l 1
EndSplineSet
EndChar

StartChar: uni27F20338
Encoding: 176 -1 176
Width: 1260
Flags: W
HStem: -212 100<608 754.416> -195 99<463.567 501> 646 99<759 796.433> 662 100<505.584 652>
VStem: 150 99<131.257 191.273> 1017 100<149.698 400.302>
LayerCount: 2
Back
Fore
SplineSet
742 646 m 1xac
 608 -111 l 1
 615 -111 623 -112 630 -112 c 0
 733 -112 831 -72 904 1 c 0
 977 74 1017 172 1017 275 c 0
 1017 378 977 476 904 549 c 0
 858 595 803 628 742 646 c 1xac
681 823 m 1
 770 807 l 1
 759 745 l 1
 840 723 914 680 975 620 c 0
 1066 528 1117 404 1117 275 c 0
 1117 146 1066 22 975 -70 c 0
 883 -161 759 -212 630 -212 c 0xac
 617 -212 603 -211 590 -210 c 1
 579 -273 l 1
 490 -257 l 1
 501 -195 l 1
 420 -173 346 -130 285 -70 c 0
 215 1 167 92 150 190 c 1
 249 208 l 1
 262 129 300 57 356 1 c 0
 402 -44 458 -78 519 -96 c 1
 652 661 l 1
 645 661 638 662 630 662 c 0
 527 662 429 621 356 549 c 0
 322 515 295 476 276 432 c 1
 387 472 l 1
 421 378 l 1
 169 287 l 1
 78 538 l 1
 172 573 l 1
 198 501 l 1
 221 545 250 585 285 620 c 0
 377 711 501 762 630 762 c 0x5c
 643 762 657 761 670 760 c 1
 681 823 l 1
EndSplineSet
EndChar

StartChar: sym07C_uni0338
Encoding: 177 -1 177
Width: 1260
Flags: W
HStem: -205 99<713.727 773.743> 662 100<504.698 757.611>
VStem: 143 100<146.95 400.302> 1017 100<149.698 403.05>
LayerCount: 2
Back
Fore
SplineSet
306 62 m 1
 896 557 l 1
 824 625 729 662 630 662 c 0
 527 662 429 622 356 549 c 0
 283 476 243 378 243 275 c 0
 243 199 265 125 306 62 c 1
1056 691 m 1
 1114 622 l 1
 1031 552 l 1
 1087 471 1117 375 1117 275 c 0
 1117 146 1066 22 975 -70 c 0
 904 -140 813 -188 715 -205 c 1
 697 -106 l 1
 776 -93 848 -55 904 1 c 0
 976 74 1017 172 1017 275 c 0
 1017 351 995 425 954 488 c 1
 364 -7 l 1
 396 -37 433 -61 473 -79 c 1
 433 32 l 1
 527 66 l 1
 618 -186 l 1
 367 -277 l 1
 332 -183 l 1
 404 -157 l 1
 361 -135 322 -106 287 -72 c 1
 204 -141 l 1
 146 -72 l 1
 229 -2 l 1
 173 79 143 175 143 275 c 0
 143 404 194 528 285 620 c 0
 377 711 501 762 630 762 c 0
 758 762 881 712 973 622 c 1
 1056 691 l 1
EndSplineSet
EndChar

StartChar: uni27F30338
Encoding: 178 -1 178
Width: 1260
Flags: W
HStem: -212 100<608 754.416> -195 99<463.567 501> 662 100<505.584 652>
VStem: 143 100<149.698 400.302> 1011 99<131.257 191.273>
LayerCount: 2
Back
Fore
SplineSet
518 -96 m 1x78
 652 661 l 1
 645 661 637 662 630 662 c 0
 527 662 429 622 356 549 c 0
 283 476 243 378 243 275 c 0
 243 172 283 74 356 1 c 0
 402 -45 457 -78 518 -96 c 1x78
681 823 m 1
 770 807 l 1
 759 745 l 1
 840 723 914 680 975 620 c 0
 1010 585 1039 545 1062 501 c 1
 1088 573 l 1
 1182 538 l 1
 1091 287 l 1
 839 378 l 1
 873 472 l 1
 984 432 l 1
 940 533 849 614 741 646 c 1
 608 -111 l 1
 615 -111 622 -112 630 -112 c 0
 733 -112 831 -71 904 1 c 0
 960 57 998 129 1011 208 c 1
 1110 190 l 1
 1093 92 1045 1 975 -70 c 0
 883 -161 759 -212 630 -212 c 0xb8
 617 -212 603 -211 590 -210 c 1
 579 -273 l 1
 490 -257 l 1
 501 -195 l 1
 420 -173 346 -130 285 -70 c 0
 194 22 143 146 143 275 c 0
 143 404 194 528 285 620 c 0
 377 711 501 762 630 762 c 0
 643 762 657 761 670 760 c 1
 681 823 l 1
EndSplineSet
EndChar

StartChar: uni21BB0338
Encoding: 179 -1 179
Width: 1260
Flags: W
HStem: -212 100<502.389 755.302> 656 99<713.727 773.142>
VStem: 143 100<146.95 400.302> 1017 100<149.698 403.05>
LayerCount: 2
Back
Fore
SplineSet
954 488 m 1
 364 -7 l 1
 436 -75 531 -112 630 -112 c 0
 733 -112 831 -72 904 1 c 0
 977 74 1017 172 1017 275 c 0
 1017 351 995 425 954 488 c 1
1056 691 m 1
 1114 622 l 1
 1031 552 l 1
 1087 471 1117 375 1117 275 c 0
 1117 146 1066 22 975 -70 c 0
 883 -161 759 -212 630 -212 c 0
 502 -212 379 -162 287 -72 c 1
 204 -141 l 1
 146 -72 l 1
 229 -2 l 1
 173 79 143 175 143 275 c 0
 143 404 194 528 285 620 c 0
 320 655 360 684 404 707 c 1
 332 733 l 1
 367 827 l 1
 618 736 l 1
 527 484 l 1
 433 518 l 1
 473 629 l 1
 429 610 390 583 356 549 c 0
 284 476 243 378 243 275 c 0
 243 199 265 125 306 62 c 1
 896 557 l 1
 841 609 772 644 697 656 c 1
 715 755 l 1
 812 738 902 691 973 622 c 1
 1056 691 l 1
EndSplineSet
EndChar

StartChar: sym07A_uni0338
Encoding: 180 -1 180
Width: 1260
Flags: W
HStem: -212 100<608 754.416> 646 99<759 796.433> 662 100<505.584 652>
VStem: 150 99<358.727 418.743> 1017 100<149.698 400.302>
LayerCount: 2
Back
Fore
SplineSet
742 646 m 1xd8
 608 -111 l 1
 615 -111 623 -112 630 -112 c 0
 733 -112 831 -72 904 1 c 0
 977 74 1017 172 1017 275 c 0
 1017 378 977 476 904 549 c 0
 858 595 803 628 742 646 c 1xd8
681 823 m 1
 770 807 l 1
 759 745 l 1xd8
 840 723 914 680 975 620 c 0
 1066 528 1117 404 1117 275 c 0
 1117 146 1066 22 975 -70 c 0
 883 -161 759 -212 630 -212 c 0
 617 -212 603 -211 590 -210 c 1
 579 -273 l 1
 490 -257 l 1
 501 -195 l 1
 420 -173 346 -130 285 -70 c 0
 250 -35 221 5 198 49 c 1
 172 -23 l 1
 78 12 l 1
 169 263 l 1
 421 172 l 1
 387 78 l 1
 276 118 l 1
 320 17 411 -64 519 -96 c 1
 652 661 l 1
 645 661 638 662 630 662 c 0
 527 662 429 621 356 549 c 0
 300 493 262 421 249 342 c 1
 150 360 l 1
 167 458 215 549 285 620 c 0
 377 711 501 762 630 762 c 0xb8
 643 762 657 761 670 760 c 1
 681 823 l 1
EndSplineSet
EndChar

StartChar: sym07B_uni0338
Encoding: 181 -1 181
Width: 1260
Flags: W
HStem: -205 99<486.858 546.273> 662 100<504.698 757.611>
VStem: 143 100<146.95 400.302> 1017 100<149.698 403.05>
LayerCount: 2
Back
Fore
SplineSet
306 62 m 1
 896 557 l 1
 824 625 729 662 630 662 c 0
 527 662 429 622 356 549 c 0
 283 476 243 378 243 275 c 0
 243 199 265 125 306 62 c 1
1056 691 m 1
 1114 622 l 1
 1031 552 l 1
 1087 471 1117 375 1117 275 c 0
 1117 146 1066 22 975 -70 c 0
 940 -105 900 -134 856 -157 c 1
 928 -183 l 1
 894 -277 l 1
 642 -186 l 1
 733 66 l 1
 827 32 l 1
 787 -79 l 1
 831 -60 870 -33 904 1 c 0
 976 74 1017 172 1017 275 c 0
 1017 351 995 425 954 488 c 1
 364 -7 l 1
 419 -59 488 -94 563 -106 c 1
 545 -205 l 1
 448 -188 358 -141 287 -72 c 1
 204 -141 l 1
 146 -72 l 1
 229 -2 l 1
 173 79 143 175 143 275 c 0
 143 404 194 528 285 620 c 0
 377 711 501 762 630 762 c 0
 758 762 881 712 973 622 c 1
 1056 691 l 1
EndSplineSet
EndChar

StartChar: uni21DB0338
Encoding: 182 -1 182
Width: 1080
Flags: W
HStem: 107 80<90 277 402 702> 235 80<90 324 448 829> 363 80<90 370 495 702>
CounterMasks: 1 e0
LayerCount: 2
Back
Fore
SplineSet
829 235 m 1
 419 235 l 1
 402 187 l 1
 781 187 l 1
 829 235 l 1
781 363 m 1
 466 363 l 1
 448 315 l 1
 829 315 l 1
 781 363 l 1
477 656 m 1
 561 625 l 1
 495 443 l 1
 702 443 l 1
 674 471 l 1
 744 541 l 1
 1011 275 l 1
 744 9 l 1
 674 79 l 1
 702 107 l 1
 373 107 l 1
 295 -106 l 1
 211 -75 l 1
 277 107 l 1
 90 107 l 1
 90 187 l 1
 306 187 l 1
 324 235 l 1
 90 235 l 1
 90 315 l 1
 353 315 l 1
 370 363 l 1
 90 363 l 1
 90 443 l 1
 399 443 l 1
 477 656 l 1
EndSplineSet
EndChar

StartChar: uni290A0338
Encoding: 183 -1 183
Width: 927
Flags: W
VStem: 295 80<-175 12 136 436> 423 80<-175 59 183 564> 552 80<-175 106 230 436>
LayerCount: 2
Back
Fore
SplineSet
503 564 m 1
 503 183 l 1
 552 201 l 1
 552 515 l 1
 503 564 l 1
375 516 m 1
 375 136 l 1
 423 154 l 1
 423 564 l 1
 375 516 l 1
113 -54 m 1
 82 30 l 1
 295 107 l 1
 295 436 l 1
 268 409 l 1
 197 479 l 1
 463 746 l 1
 730 479 l 1
 659 409 l 1
 632 436 l 1
 632 230 l 1
 814 296 l 1
 844 212 l 1
 632 135 l 1
 632 -175 l 1
 552 -175 l 1
 552 106 l 1
 503 88 l 1
 503 -175 l 1
 423 -175 l 1
 423 59 l 1
 375 41 l 1
 375 -175 l 1
 295 -175 l 1
 295 12 l 1
 113 -54 l 1
EndSplineSet
EndChar

StartChar: uni21DA0338
Encoding: 184 -1 184
Width: 1080
Flags: W
HStem: 107 80<378 585 710 990> 235 80<251 632 756 990> 363 80<378 678 803 990>
CounterMasks: 1 e0
LayerCount: 2
Back
Fore
SplineSet
251 315 m 1
 661 315 l 1
 678 363 l 1
 299 363 l 1
 251 315 l 1
299 187 m 1
 614 187 l 1
 632 235 l 1
 251 235 l 1
 299 187 l 1
603 -106 m 1
 519 -75 l 1
 585 107 l 1
 378 107 l 1
 406 79 l 1
 336 9 l 1
 69 275 l 1
 336 541 l 1
 406 471 l 1
 378 443 l 1
 707 443 l 1
 785 656 l 1
 869 625 l 1
 803 443 l 1
 990 443 l 1
 990 363 l 1
 774 363 l 1
 756 315 l 1
 990 315 l 1
 990 235 l 1
 727 235 l 1
 710 187 l 1
 990 187 l 1
 990 107 l 1
 681 107 l 1
 603 -106 l 1
EndSplineSet
EndChar

StartChar: uni290B0338
Encoding: 185 -1 185
Width: 927
Flags: W
VStem: 295 80<114 320 444 725> 423 80<-14 367 491 725> 552 80<114 414 538 725>
LayerCount: 2
Back
Fore
SplineSet
423 -14 m 1
 423 367 l 1
 375 349 l 1
 375 34 l 1
 423 -14 l 1
552 35 m 1
 552 414 l 1
 503 396 l 1
 503 -14 l 1
 552 35 l 1
814 604 m 1
 844 520 l 1
 632 443 l 1
 632 114 l 1
 659 141 l 1
 730 71 l 1
 463 -196 l 1
 197 71 l 1
 268 141 l 1
 295 114 l 1
 295 320 l 1
 113 254 l 1
 82 338 l 1
 295 415 l 1
 295 725 l 1
 375 725 l 1
 375 444 l 1
 423 462 l 1
 423 725 l 1
 503 725 l 1
 503 491 l 1
 552 509 l 1
 552 725 l 1
 632 725 l 1
 632 538 l 1
 814 604 l 1
EndSplineSet
EndChar

StartChar: uni27F60338
Encoding: 186 -1 186
Width: 1680
Flags: W
HStem: 225 100<90 697 829 1419>
LayerCount: 2
Back
Fore
SplineSet
820 564 m 1
 905 533 l 1
 829 325 l 1
 1419 325 l 1
 1351 394 l 1
 1421 464 l 1
 1611 275 l 1
 1421 86 l 1
 1351 156 l 1
 1419 225 l 1
 793 225 l 1
 706 -14 l 1
 621 17 l 1
 697 225 l 1
 90 225 l 1
 90 325 l 1
 733 325 l 1
 820 564 l 1
EndSplineSet
EndChar

StartChar: uni27F50338
Encoding: 187 -1 187
Width: 1680
Flags: W
HStem: 225 100<261 851 983 1590>
LayerCount: 2
Back
Fore
SplineSet
860 -14 m 1
 775 17 l 1
 851 225 l 1
 261 225 l 1
 329 156 l 1
 259 86 l 1
 69 275 l 1
 259 464 l 1
 329 394 l 1
 261 325 l 1
 887 325 l 1
 974 564 l 1
 1059 533 l 1
 983 325 l 1
 1590 325 l 1
 1590 225 l 1
 947 225 l 1
 860 -14 l 1
EndSplineSet
EndChar

StartChar: uni27F90338
Encoding: 188 -1 188
Width: 1680
Flags: W
HStem: 129 100<90 585 717 1323> 321 100<90 655 787 1323>
LayerCount: 2
Back
Fore
SplineSet
1423 321 m 1
 750 321 l 1
 717 229 l 1
 1423 229 l 1
 1469 275 l 1
 1423 321 l 1
766 625 m 1
 850 594 l 1
 787 421 l 1
 1323 421 l 1
 1304 440 l 1
 1375 511 l 1
 1611 275 l 1
 1375 39 l 1
 1304 110 l 1
 1323 129 l 1
 680 129 l 1
 606 -75 l 1
 522 -44 l 1
 585 129 l 1
 90 129 l 1
 90 229 l 1
 622 229 l 1
 655 321 l 1
 90 321 l 1
 90 421 l 1
 692 421 l 1
 766 625 l 1
EndSplineSet
EndChar

StartChar: uni27F80338
Encoding: 189 -1 189
Width: 1680
Flags: W
HStem: 129 100<357 893 1025 1590> 321 100<357 963 1095 1590>
LayerCount: 2
Back
Fore
SplineSet
257 229 m 1
 930 229 l 1
 963 321 l 1
 257 321 l 1
 211 275 l 1
 257 229 l 1
914 -75 m 1
 830 -44 l 1
 893 129 l 1
 357 129 l 1
 376 110 l 1
 305 39 l 1
 69 275 l 1
 305 511 l 1
 376 440 l 1
 357 421 l 1
 1000 421 l 1
 1074 625 l 1
 1158 594 l 1
 1095 421 l 1
 1590 421 l 1
 1590 321 l 1
 1058 321 l 1
 1025 229 l 1
 1590 229 l 1
 1590 129 l 1
 988 129 l 1
 914 -75 l 1
EndSplineSet
EndChar

StartChar: uni27F70338
Encoding: 190 -1 190
Width: 1680
Flags: W
HStem: 225 100<261 774 906 1419>
LayerCount: 2
Back
Fore
SplineSet
897 564 m 1
 982 533 l 1
 906 325 l 1
 1419 325 l 1
 1351 394 l 1
 1421 464 l 1
 1611 275 l 1
 1421 86 l 1
 1351 156 l 1
 1419 225 l 1
 870 225 l 1
 783 -14 l 1
 698 17 l 1
 774 225 l 1
 261 225 l 1
 329 156 l 1
 259 86 l 1
 69 275 l 1
 259 464 l 1
 329 394 l 1
 261 325 l 1
 810 325 l 1
 897 564 l 1
EndSplineSet
EndChar

StartChar: uni27FA0338
Encoding: 191 -1 191
Width: 1680
Flags: W
HStem: 129 100<357 739 871 1323> 321 100<357 809 941 1323>
LayerCount: 2
Back
Fore
SplineSet
257 321 m 1
 211 275 l 1
 257 229 l 1
 776 229 l 1
 809 321 l 1
 257 321 l 1
1423 321 m 1
 904 321 l 1
 871 229 l 1
 1423 229 l 1
 1469 275 l 1
 1423 321 l 1
920 625 m 1
 1004 594 l 1
 941 421 l 1
 1323 421 l 1
 1304 440 l 1
 1375 511 l 1
 1611 275 l 1
 1375 39 l 1
 1304 110 l 1
 1323 129 l 1
 834 129 l 1
 760 -75 l 1
 676 -44 l 1
 739 129 l 1
 357 129 l 1
 376 110 l 1
 305 39 l 1
 69 275 l 1
 305 511 l 1
 376 440 l 1
 357 421 l 1
 846 421 l 1
 920 625 l 1
EndSplineSet
EndChar

StartChar: uni27FC0338
Encoding: 192 -1 192
Width: 1680
Flags: W
HStem: 225 100<190 697 829 1419>
VStem: 90 100<71 225 325 479>
LayerCount: 2
Back
Fore
SplineSet
820 564 m 1
 905 533 l 1
 829 325 l 1
 1419 325 l 1
 1351 394 l 1
 1421 464 l 1
 1611 275 l 1
 1421 86 l 1
 1351 156 l 1
 1419 225 l 1
 793 225 l 1
 706 -14 l 1
 621 17 l 1
 697 225 l 1
 190 225 l 1
 190 71 l 1
 90 71 l 1
 90 479 l 1
 190 479 l 1
 190 325 l 1
 733 325 l 1
 820 564 l 1
EndSplineSet
EndChar

StartChar: uni27FB0338
Encoding: 193 -1 193
Width: 1680
Flags: W
HStem: 225 100<261 851 983 1490>
VStem: 1490 100<71 225 325 479>
LayerCount: 2
Back
Fore
SplineSet
860 -14 m 1
 775 17 l 1
 851 225 l 1
 261 225 l 1
 329 156 l 1
 259 86 l 1
 69 275 l 1
 259 464 l 1
 329 394 l 1
 261 325 l 1
 887 325 l 1
 974 564 l 1
 1059 533 l 1
 983 325 l 1
 1490 325 l 1
 1490 479 l 1
 1590 479 l 1
 1590 71 l 1
 1490 71 l 1
 1490 225 l 1
 947 225 l 1
 860 -14 l 1
EndSplineSet
EndChar

StartChar: uni27FE0338
Encoding: 194 -1 194
Width: 1680
Flags: W
HStem: 129 100<190 585 717 1323> 321 100<190 655 787 1323>
VStem: 90 100<25 129 229 321 421 525>
LayerCount: 2
Back
Fore
SplineSet
1423 321 m 1
 750 321 l 1
 717 229 l 1
 1423 229 l 1
 1469 275 l 1
 1423 321 l 1
190 321 m 1
 190 229 l 1
 622 229 l 1
 655 321 l 1
 190 321 l 1
766 625 m 1
 850 594 l 1
 787 421 l 1
 1323 421 l 1
 1304 440 l 1
 1375 511 l 1
 1611 275 l 1
 1375 39 l 1
 1304 110 l 1
 1323 129 l 1
 680 129 l 1
 606 -75 l 1
 522 -44 l 1
 585 129 l 1
 190 129 l 1
 190 25 l 1
 90 25 l 1
 90 525 l 1
 190 525 l 1
 190 421 l 1
 692 421 l 1
 766 625 l 1
EndSplineSet
EndChar

StartChar: uni27FD0338
Encoding: 195 -1 195
Width: 1680
Flags: W
HStem: 129 100<357 893 1025 1490> 321 100<357 963 1095 1490>
VStem: 1490 100<25 129 229 321 421 525>
LayerCount: 2
Back
Fore
SplineSet
257 229 m 1
 930 229 l 1
 963 321 l 1
 257 321 l 1
 211 275 l 1
 257 229 l 1
1490 229 m 1
 1490 321 l 1
 1058 321 l 1
 1025 229 l 1
 1490 229 l 1
914 -75 m 1
 830 -44 l 1
 893 129 l 1
 357 129 l 1
 376 110 l 1
 305 39 l 1
 69 275 l 1
 305 511 l 1
 376 440 l 1
 357 421 l 1
 1000 421 l 1
 1074 625 l 1
 1158 594 l 1
 1095 421 l 1
 1490 421 l 1
 1490 525 l 1
 1590 525 l 1
 1590 25 l 1
 1490 25 l 1
 1490 129 l 1
 988 129 l 1
 914 -75 l 1
EndSplineSet
EndChar

StartChar: uni27FF0338
Encoding: 196 -1 196
Width: 1680
Flags: W
HStem: 148 100<431.193 500.112 822.063 890.807 1212.39 1274.15> 225 100<1350.55 1419> 302 100<226.645 304.609 626.391 695.361 1017.19 1086.31>
LayerCount: 2
Back
Fore
SplineSet
820 564 m 1xa0
 905 533 l 1
 814 282 l 1
 825 264 836 248 856 248 c 0
 885 248 897 280 913 304 c 0
 948 353 992 402 1052 402 c 0
 1112 402 1155 353 1190 304 c 0
 1207 280 1218 248 1247 248 c 0xa0
 1261 248 1267 262 1277 272 c 0
 1305 300 1338 325 1377 325 c 2
 1419 325 l 1
 1351 394 l 1
 1421 464 l 1
 1611 275 l 1
 1421 86 l 1
 1351 156 l 1
 1419 225 l 1
 1377 225 l 2x40
 1364 225 1357 211 1347 201 c 0
 1320 173 1286 148 1247 148 c 0
 1187 148 1143 197 1108 246 c 0
 1092 270 1080 302 1052 302 c 0
 1023 302 1011 270 995 246 c 0
 960 197 916 148 856 148 c 0
 826 148 799 160 776 179 c 1
 706 -14 l 1
 621 17 l 1
 709 260 l 1
 696 281 685 302 661 302 c 0
 632 302 621 270 604 246 c 0
 569 197 525 148 466 148 c 0
 406 148 362 197 327 246 c 0
 310 270 299 302 270 302 c 0
 223 302 208 246 181 208 c 1
 99 265 l 1
 144 330 193 402 270 402 c 0
 330 402 374 353 409 304 c 0
 425 280 437 248 466 248 c 0
 494 248 506 280 522 304 c 0
 557 353 601 402 661 402 c 0
 694 402 723 387 748 365 c 1
 820 564 l 1xa0
EndSplineSet
EndChar

StartChar: uni2B330338
Encoding: 197 -1 197
Width: 1680
Flags: W
HStem: 148 100<405.915 467.609 789.026 823 1179.89 1248.81> 225 100<261 329.446> 302 100<593.695 662.807 1011.3 1053.58 1375.39 1453.35>
LayerCount: 2
Back
Fore
SplineSet
860 -14 m 1xa0
 775 17 l 1
 823 148 l 1
 764 149 720 197 685 246 c 0
 669 270 657 302 628 302 c 0
 600 302 588 270 572 246 c 0
 537 197 493 148 433 148 c 0xa0
 394 148 361 173 333 201 c 0
 323 211 316 225 303 225 c 2
 261 225 l 1
 329 156 l 1
 259 86 l 1
 69 275 l 1
 259 464 l 1
 329 394 l 1
 261 325 l 1
 303 325 l 2x40
 342 325 375 300 403 272 c 0
 413 262 419 248 433 248 c 0
 462 248 473 280 490 304 c 0
 525 353 568 402 628 402 c 0
 688 402 732 353 767 304 c 0
 783 280 795 248 824 248 c 0
 851 248 864 278 879 302 c 1
 974 564 l 1
 1059 533 l 1
 1011 402 l 1
 1014 402 1016 402 1019 402 c 0
 1079 402 1123 353 1158 304 c 0
 1174 280 1186 248 1214 248 c 0
 1243 248 1255 280 1271 304 c 0
 1306 353 1350 402 1410 402 c 0
 1487 402 1536 330 1581 265 c 1
 1499 208 l 1
 1472 246 1457 302 1410 302 c 0
 1381 302 1370 270 1353 246 c 0
 1318 197 1274 148 1214 148 c 0
 1155 148 1111 197 1076 246 c 0
 1059 270 1048 302 1019 302 c 0
 990 302 979 270 962 246 c 0
 957 239 952 233 947 226 c 1
 860 -14 l 1xa0
EndSplineSet
EndChar

StartChar: uni27DD0338
Encoding: 198 -1 198
Width: 1680
Flags: W
HStem: 225 100<190 774 906 1590>
VStem: 90 100<71 225 325 479>
LayerCount: 2
Back
Fore
SplineSet
897 564 m 1
 982 533 l 1
 906 325 l 1
 1590 325 l 1
 1590 225 l 1
 870 225 l 1
 783 -14 l 1
 698 17 l 1
 774 225 l 1
 190 225 l 1
 190 71 l 1
 90 71 l 1
 90 479 l 1
 190 479 l 1
 190 325 l 1
 810 325 l 1
 897 564 l 1
EndSplineSet
EndChar

StartChar: uni27DE0338
Encoding: 199 -1 199
Width: 1680
Flags: W
HStem: 225 100<90 774 906 1490>
VStem: 1490 100<71 225 325 479>
LayerCount: 2
Back
Fore
SplineSet
783 -14 m 1
 698 17 l 1
 774 225 l 1
 90 225 l 1
 90 325 l 1
 810 325 l 1
 897 564 l 1
 982 533 l 1
 906 325 l 1
 1490 325 l 1
 1490 479 l 1
 1590 479 l 1
 1590 71 l 1
 1490 71 l 1
 1490 225 l 1
 870 225 l 1
 783 -14 l 1
EndSplineSet
EndChar

StartChar: uni22AC
Encoding: 224 8876 200
Width: 840
Flags: W
HStem: 0 16G<90 190 345.348 426.307> 304 100<190 411 530 750> 692 15G<90 190 514.61 594.783>
VStem: 90 100<0 304 404 707>
LayerCount: 2
Back
Fore
SplineSet
520 712 m 1
 606 689 l 1
 530 404 l 1
 750 404 l 1
 750 304 l 1
 503 304 l 1
 421 -5 l 1
 334 18 l 1
 411 304 l 1
 190 304 l 1
 190 0 l 1
 90 0 l 1
 90 707 l 1
 190 707 l 1
 190 404 l 1
 437 404 l 1
 520 712 l 1
EndSplineSet
EndChar

StartChar: uni22A50338
Encoding: 225 -1 201
Width: 840
Flags: W
HStem: 0 100<90 370 470 750> 687 20G<370 470>
VStem: 370 100<100 338 469 707>
LayerCount: 2
Back
Fore
SplineSet
113 244 m 1
 82 328 l 1
 370 433 l 1
 370 707 l 1
 470 707 l 1
 470 469 l 1
 727 563 l 1
 758 479 l 1
 470 374 l 1
 470 100 l 1
 750 100 l 1
 750 0 l 1
 90 0 l 1
 90 100 l 1
 370 100 l 1
 370 338 l 1
 113 244 l 1
EndSplineSet
EndChar

StartChar: uni22A30338
Encoding: 226 -1 202
Width: 840
Flags: W
HStem: 0 16G<245.348 326.307 650 750> 304 100<90 311 430 650> 692 15G<414.61 494.783 650 750>
VStem: 650 100<0 304 404 707>
LayerCount: 2
Back
Fore
SplineSet
321 -5 m 1
 234 18 l 1
 311 304 l 1
 90 304 l 1
 90 404 l 1
 337 404 l 1
 420 712 l 1
 506 689 l 1
 430 404 l 1
 650 404 l 1
 650 707 l 1
 750 707 l 1
 750 0 l 1
 650 0 l 1
 650 304 l 1
 403 304 l 1
 321 -5 l 1
EndSplineSet
EndChar

StartChar: uni22A40338
Encoding: 227 -1 203
Width: 840
Flags: W
HStem: 0 21G<370 470> 607 100<90 370 470 750>
VStem: 370 100<0 238 369 607>
LayerCount: 2
Back
Fore
SplineSet
727 463 m 1
 758 379 l 1
 470 274 l 1
 470 0 l 1
 370 0 l 1
 370 238 l 1
 113 144 l 1
 82 228 l 1
 370 333 l 1
 370 607 l 1
 90 607 l 1
 90 707 l 1
 750 707 l 1
 750 607 l 1
 470 607 l 1
 470 369 l 1
 727 463 l 1
EndSplineSet
EndChar

StartChar: uni22A60338
Encoding: 228 -1 204
Width: 642
Flags: W
HStem: 0 16G<90 190 246.217 326.372> 304 100<190 312 431 552> 692 15G<90 190 415.61 495.783>
VStem: 90 100<0 304 404 707>
LayerCount: 2
Back
Fore
SplineSet
421 712 m 1
 507 689 l 1
 431 404 l 1
 552 404 l 1
 552 304 l 1
 404 304 l 1
 321 -5 l 1
 235 18 l 1
 312 304 l 1
 190 304 l 1
 190 0 l 1
 90 0 l 1
 90 707 l 1
 190 707 l 1
 190 404 l 1
 338 404 l 1
 421 712 l 1
EndSplineSet
EndChar

StartChar: uni2AE00338
Encoding: 229 -1 205
Width: 840
Flags: W
HStem: 0 100<90 370 470 750>
VStem: 370 100<100 231 363 495>
LayerCount: 2
Back
Fore
SplineSet
113 138 m 1
 82 222 l 1
 370 327 l 1
 370 495 l 1
 470 495 l 1
 470 363 l 1
 727 457 l 1
 758 372 l 1
 470 268 l 1
 470 100 l 1
 750 100 l 1
 750 0 l 1
 90 0 l 1
 90 100 l 1
 370 100 l 1
 370 231 l 1
 113 138 l 1
EndSplineSet
EndChar

StartChar: uni2ADE0338
Encoding: 230 -1 206
Width: 642
Flags: W
HStem: 0 16G<146.217 226.372 452 552> 304 100<90 212 331 452> 692 15G<315.61 395.783 452 552>
VStem: 452 100<0 304 404 707>
LayerCount: 2
Back
Fore
SplineSet
221 -5 m 1
 135 18 l 1
 212 304 l 1
 90 304 l 1
 90 404 l 1
 238 404 l 1
 321 712 l 1
 407 689 l 1
 331 404 l 1
 452 404 l 1
 452 707 l 1
 552 707 l 1
 552 0 l 1
 452 0 l 1
 452 304 l 1
 304 304 l 1
 221 -5 l 1
EndSplineSet
EndChar

StartChar: uni2ADF0338
Encoding: 231 -1 207
Width: 840
Flags: W
HStem: 0 21G<370 470> 395 100<90 370 470 750>
VStem: 370 100<0 131 263 395>
LayerCount: 2
Back
Fore
SplineSet
727 357 m 1
 758 272 l 1
 470 168 l 1
 470 0 l 1
 370 0 l 1
 370 131 l 1
 113 38 l 1
 82 122 l 1
 370 227 l 1
 370 395 l 1
 90 395 l 1
 90 495 l 1
 750 495 l 1
 750 395 l 1
 470 395 l 1
 470 263 l 1
 727 357 l 1
EndSplineSet
EndChar

StartChar: uni22AD
Encoding: 232 8877 208
Width: 840
Flags: W
HStem: 0 16G<90 190 345.348 426.377> 207 100<190 385 504 750> 400 100<190 436 556 750> 692 15G<90 190 514.623 594.783>
VStem: 90 100<0 207 307 400 500 707>
LayerCount: 2
Back
Fore
SplineSet
190 400 m 1
 190 307 l 1
 411 307 l 1
 436 400 l 1
 190 400 l 1
520 712 m 1
 606 689 l 1
 556 500 l 1
 750 500 l 1
 750 400 l 1
 529 400 l 1
 504 307 l 1
 750 307 l 1
 750 207 l 1
 478 207 l 1
 421 -5 l 1
 334 18 l 1
 385 207 l 1
 190 207 l 1
 190 0 l 1
 90 0 l 1
 90 707 l 1
 190 707 l 1
 190 500 l 1
 463 500 l 1
 520 712 l 1
EndSplineSet
EndChar

StartChar: uni2AEB0338
Encoding: 233 -1 209
Width: 840
Flags: W
HStem: 0 100<90 274 374 466 566 750> 687 20G<274 374 466 566>
VStem: 274 100<100 303 434 707> 466 100<100 373 504 707>
LayerCount: 2
Back
Fore
SplineSet
374 100 m 1
 466 100 l 1
 466 373 l 1
 374 339 l 1
 374 100 l 1
113 244 m 1
 82 328 l 1
 274 398 l 1
 274 707 l 1
 374 707 l 1
 374 434 l 1
 466 468 l 1
 466 707 l 1
 566 707 l 1
 566 504 l 1
 727 563 l 1
 758 479 l 1
 566 409 l 1
 566 100 l 1
 750 100 l 1
 750 0 l 1
 90 0 l 1
 90 100 l 1
 274 100 l 1
 274 303 l 1
 113 244 l 1
EndSplineSet
EndChar

StartChar: uni2AE40338
Encoding: 234 -1 210
Width: 840
Flags: W
HStem: 0 16G<245.348 326.377 650 750> 207 100<90 285 404 650> 400 100<90 336 456 650> 692 15G<414.623 494.783 650 750>
VStem: 650 100<0 207 307 400 500 707>
LayerCount: 2
Back
Fore
SplineSet
650 307 m 1
 650 400 l 1
 429 400 l 1
 404 307 l 1
 650 307 l 1
321 -5 m 1
 234 18 l 1
 285 207 l 1
 90 207 l 1
 90 307 l 1
 311 307 l 1
 336 400 l 1
 90 400 l 1
 90 500 l 1
 363 500 l 1
 420 712 l 1
 506 689 l 1
 456 500 l 1
 650 500 l 1
 650 707 l 1
 750 707 l 1
 750 0 l 1
 650 0 l 1
 650 207 l 1
 378 207 l 1
 321 -5 l 1
EndSplineSet
EndChar

StartChar: uni2AEA0338
Encoding: 235 -1 211
Width: 840
Flags: W
HStem: 0 21G<274 374 466 566> 607 100<90 274 374 466 566 750>
VStem: 274 100<0 203 334 607> 466 100<0 273 404 607>
LayerCount: 2
Back
Fore
SplineSet
466 607 m 1
 374 607 l 1
 374 334 l 1
 466 368 l 1
 466 607 l 1
727 463 m 1
 758 379 l 1
 566 309 l 1
 566 0 l 1
 466 0 l 1
 466 273 l 1
 374 239 l 1
 374 0 l 1
 274 0 l 1
 274 203 l 1
 113 144 l 1
 82 228 l 1
 274 298 l 1
 274 607 l 1
 90 607 l 1
 90 707 l 1
 750 707 l 1
 750 607 l 1
 566 607 l 1
 566 404 l 1
 727 463 l 1
EndSplineSet
EndChar

StartChar: uni22A70338
Encoding: 236 -1 212
Width: 642
Flags: W
HStem: 0 16G<90 190 246.217 326.377> 207 100<190 286 405 552> 400 100<190 337 456 552> 692 15G<90 190 415.623 495.783>
VStem: 90 100<0 207 307 400 500 707>
LayerCount: 2
Back
Fore
SplineSet
190 400 m 1
 190 307 l 1
 312 307 l 1
 337 400 l 1
 190 400 l 1
421 712 m 1
 507 689 l 1
 456 500 l 1
 552 500 l 1
 552 400 l 1
 430 400 l 1
 405 307 l 1
 552 307 l 1
 552 207 l 1
 378 207 l 1
 321 -5 l 1
 235 18 l 1
 286 207 l 1
 190 207 l 1
 190 0 l 1
 90 0 l 1
 90 707 l 1
 190 707 l 1
 190 500 l 1
 364 500 l 1
 421 712 l 1
EndSplineSet
EndChar

StartChar: sym07E_uni0338
Encoding: 237 -1 213
Width: 840
Flags: W
HStem: 0 100<90 274 374 466 566 750>
VStem: 274 100<100 196 328 495> 466 100<100 266 398 495>
LayerCount: 2
Back
Fore
SplineSet
374 100 m 1
 466 100 l 1
 466 266 l 1
 374 233 l 1
 374 100 l 1
113 138 m 1
 82 222 l 1
 274 292 l 1
 274 495 l 1
 374 495 l 1
 374 328 l 1
 466 362 l 1
 466 495 l 1
 566 495 l 1
 566 398 l 1
 727 457 l 1
 758 372 l 1
 566 302 l 1
 566 100 l 1
 750 100 l 1
 750 0 l 1
 90 0 l 1
 90 100 l 1
 274 100 l 1
 274 196 l 1
 113 138 l 1
EndSplineSet
EndChar

StartChar: sym07D_uni0338
Encoding: 238 -1 214
Width: 642
Flags: W
HStem: 0 16G<146.217 226.377 452 552> 207 100<90 186 305 452> 400 100<90 237 356 452> 692 15G<315.623 395.783 452 552>
VStem: 452 100<0 207 307 400 500 707>
LayerCount: 2
Back
Fore
SplineSet
452 307 m 1
 452 400 l 1
 330 400 l 1
 305 307 l 1
 452 307 l 1
221 -5 m 1
 135 18 l 1
 186 207 l 1
 90 207 l 1
 90 307 l 1
 212 307 l 1
 237 400 l 1
 90 400 l 1
 90 500 l 1
 264 500 l 1
 321 712 l 1
 407 689 l 1
 356 500 l 1
 452 500 l 1
 452 707 l 1
 552 707 l 1
 552 0 l 1
 452 0 l 1
 452 207 l 1
 278 207 l 1
 221 -5 l 1
EndSplineSet
EndChar

StartChar: sym07F_uni0338
Encoding: 239 -1 215
Width: 840
Flags: W
HStem: 0 21G<274 374 466 566> 395 100<90 274 374 466 566 750>
VStem: 274 100<0 96 228 395> 466 100<0 166 298 395>
LayerCount: 2
Back
Fore
SplineSet
466 395 m 1
 374 395 l 1
 374 228 l 1
 466 262 l 1
 466 395 l 1
727 357 m 1
 758 272 l 1
 566 202 l 1
 566 0 l 1
 466 0 l 1
 466 166 l 1
 374 133 l 1
 374 0 l 1
 274 0 l 1
 274 96 l 1
 113 38 l 1
 82 122 l 1
 274 192 l 1
 274 395 l 1
 90 395 l 1
 90 495 l 1
 750 495 l 1
 750 395 l 1
 566 395 l 1
 566 298 l 1
 727 357 l 1
EndSplineSet
EndChar

StartChar: uni22AE
Encoding: 240 8878 216
Width: 1038
Flags: W
HStem: 0 21G<90 190 288 388 543.348 624.307> 304 100<388 609 728 948> 687 20G<90 190 288 388 712.61 792.783>
VStem: 90 100<0 707> 288 100<0 304 404 707>
LayerCount: 2
Back
Fore
SplineSet
190 0 m 1
 90 0 l 1
 90 707 l 1
 190 707 l 1
 190 0 l 1
718 712 m 1
 804 689 l 1
 728 404 l 1
 948 404 l 1
 948 304 l 1
 701 304 l 1
 619 -5 l 1
 532 18 l 1
 609 304 l 1
 388 304 l 1
 388 0 l 1
 288 0 l 1
 288 707 l 1
 388 707 l 1
 388 404 l 1
 635 404 l 1
 718 712 l 1
EndSplineSet
EndChar

StartChar: uni234A0338
Encoding: 241 -1 217
Width: 840
Flags: W
HStem: -106 100<90 750> 92 100<90 370 470 750>
VStem: 370 100<192 437 568 813>
LayerCount: 2
Back
Fore
SplineSet
750 -6 m 1
 750 -106 l 1
 90 -106 l 1
 90 -6 l 1
 750 -6 l 1
113 343 m 1
 82 427 l 1
 370 532 l 1
 370 813 l 1
 470 813 l 1
 470 568 l 1
 727 662 l 1
 758 578 l 1
 470 473 l 1
 470 192 l 1
 750 192 l 1
 750 92 l 1
 90 92 l 1
 90 192 l 1
 370 192 l 1
 370 437 l 1
 113 343 l 1
EndSplineSet
EndChar

StartChar: uni2AE30338
Encoding: 242 -1 218
Width: 1038
Flags: W
HStem: 0 21G<245.348 326.307 650 750 848 948> 304 100<90 311 430 650> 687 20G<414.61 494.783 650 750 848 948>
VStem: 650 100<0 304 404 707> 848 100<0 707>
LayerCount: 2
Back
Fore
SplineSet
848 707 m 1
 948 707 l 1
 948 0 l 1
 848 0 l 1
 848 707 l 1
321 -5 m 1
 234 18 l 1
 311 304 l 1
 90 304 l 1
 90 404 l 1
 337 404 l 1
 420 712 l 1
 506 689 l 1
 430 404 l 1
 650 404 l 1
 650 707 l 1
 750 707 l 1
 750 0 l 1
 650 0 l 1
 650 304 l 1
 403 304 l 1
 321 -5 l 1
EndSplineSet
EndChar

StartChar: uni23510338
Encoding: 243 -1 219
Width: 840
Flags: W
HStem: 515 100<90 370 470 750> 713 100<90 750>
VStem: 370 100<-106 139 270 515>
LayerCount: 2
Back
Fore
SplineSet
90 713 m 1
 90 813 l 1
 750 813 l 1
 750 713 l 1
 90 713 l 1
727 364 m 1
 758 280 l 1
 470 175 l 1
 470 -106 l 1
 370 -106 l 1
 370 139 l 1
 113 45 l 1
 82 129 l 1
 370 234 l 1
 370 515 l 1
 90 515 l 1
 90 615 l 1
 750 615 l 1
 750 515 l 1
 470 515 l 1
 470 270 l 1
 727 364 l 1
EndSplineSet
EndChar

StartChar: uni22AE.alt
Encoding: 244 -1 220
Width: 840
Flags: W
HStem: 0 21G<90 190 288 388 444.348 525.307> 304 100<388 510 629 750> 687 20G<90 190 288 388 613.61 693.783>
VStem: 90 100<0 707> 288 100<0 304 404 707>
LayerCount: 2
Back
Fore
SplineSet
190 0 m 1
 90 0 l 1
 90 707 l 1
 190 707 l 1
 190 0 l 1
619 712 m 1
 705 689 l 1
 629 404 l 1
 750 404 l 1
 750 304 l 1
 602 304 l 1
 520 -5 l 1
 433 18 l 1
 510 304 l 1
 388 304 l 1
 388 0 l 1
 288 0 l 1
 288 707 l 1
 388 707 l 1
 388 404 l 1
 536 404 l 1
 619 712 l 1
EndSplineSet
EndChar

StartChar: uni2AE80338
Encoding: 245 -1 221
Width: 840
Flags: W
HStem: 0 100<90 750> 198 100<90 370 470 750> 687 20G<370 470>
VStem: 370 100<298 437 568 707>
LayerCount: 2
Back
Fore
SplineSet
750 100 m 1
 750 0 l 1
 90 0 l 1
 90 100 l 1
 750 100 l 1
113 343 m 1
 82 427 l 1
 370 532 l 1
 370 707 l 1
 470 707 l 1
 470 568 l 1
 727 662 l 1
 758 578 l 1
 470 473 l 1
 470 298 l 1
 750 298 l 1
 750 198 l 1
 90 198 l 1
 90 298 l 1
 370 298 l 1
 370 437 l 1
 113 343 l 1
EndSplineSet
EndChar

StartChar: uni2AE30338.alt
Encoding: 246 -1 222
Width: 840
Flags: W
HStem: 0 21G<146.348 227.307 452 552 650 750> 304 100<90 212 331 452> 687 20G<315.61 395.783 452 552 650 750>
VStem: 452 100<0 304 404 707> 650 100<0 707>
LayerCount: 2
Back
Fore
SplineSet
650 707 m 1
 750 707 l 1
 750 0 l 1
 650 0 l 1
 650 707 l 1
222 -5 m 1
 135 18 l 1
 212 304 l 1
 90 304 l 1
 90 404 l 1
 238 404 l 1
 321 712 l 1
 407 689 l 1
 331 404 l 1
 452 404 l 1
 452 707 l 1
 552 707 l 1
 552 0 l 1
 452 0 l 1
 452 304 l 1
 304 304 l 1
 222 -5 l 1
EndSplineSet
EndChar

StartChar: uni2AE70338
Encoding: 247 -1 223
Width: 840
Flags: W
HStem: 0 21G<370 470> 409 100<90 370 470 750> 607 100<90 750>
VStem: 370 100<0 139 270 409>
LayerCount: 2
Back
Fore
SplineSet
90 607 m 1
 90 707 l 1
 750 707 l 1
 750 607 l 1
 90 607 l 1
727 364 m 1
 758 280 l 1
 470 175 l 1
 470 0 l 1
 370 0 l 1
 370 139 l 1
 113 45 l 1
 82 129 l 1
 370 234 l 1
 370 409 l 1
 90 409 l 1
 90 509 l 1
 750 509 l 1
 750 409 l 1
 470 409 l 1
 470 270 l 1
 727 364 l 1
EndSplineSet
EndChar

StartChar: uni22AF
Encoding: 248 8879 224
Width: 1038
Flags: W
HStem: 0 21G<90 190 288 388 543.348 624.377> 207 100<388 583 702 948> 400 100<388 634 754 948> 687 20G<90 190 288 388 712.623 792.783>
VStem: 90 100<0 707> 288 100<0 207 307 400 500 707>
LayerCount: 2
Back
Fore
SplineSet
388 400 m 1
 388 307 l 1
 609 307 l 1
 634 400 l 1
 388 400 l 1
190 0 m 1
 90 0 l 1
 90 707 l 1
 190 707 l 1
 190 0 l 1
718 712 m 1
 804 689 l 1
 754 500 l 1
 948 500 l 1
 948 400 l 1
 727 400 l 1
 702 307 l 1
 948 307 l 1
 948 207 l 1
 676 207 l 1
 619 -5 l 1
 532 18 l 1
 583 207 l 1
 388 207 l 1
 388 0 l 1
 288 0 l 1
 288 707 l 1
 388 707 l 1
 388 500 l 1
 661 500 l 1
 718 712 l 1
EndSplineSet
EndChar

StartChar: sym080_uni0338
Encoding: 249 -1 225
Width: 840
Flags: W
HStem: -106 100<90 750> 92 100<90 274 374 466 566 750>
VStem: 274 100<192 402 533 813> 466 100<192 472 603 813>
LayerCount: 2
Back
Fore
SplineSet
374 192 m 1
 466 192 l 1
 466 472 l 1
 374 438 l 1
 374 192 l 1
750 -6 m 1
 750 -106 l 1
 90 -106 l 1
 90 -6 l 1
 750 -6 l 1
113 343 m 1
 82 427 l 1
 274 497 l 1
 274 813 l 1
 374 813 l 1
 374 533 l 1
 466 567 l 1
 466 813 l 1
 566 813 l 1
 566 603 l 1
 727 662 l 1
 758 578 l 1
 566 508 l 1
 566 192 l 1
 750 192 l 1
 750 92 l 1
 90 92 l 1
 90 192 l 1
 274 192 l 1
 274 402 l 1
 113 343 l 1
EndSplineSet
EndChar

StartChar: uni2AE50338
Encoding: 250 -1 226
Width: 1038
Flags: W
HStem: 0 21G<245.348 326.377 650 750 848 948> 207 100<90 285 404 650> 400 100<90 336 456 650> 687 20G<414.623 494.783 650 750 848 948>
VStem: 650 100<0 207 307 400 500 707> 848 100<0 707>
LayerCount: 2
Back
Fore
SplineSet
650 307 m 1
 650 400 l 1
 429 400 l 1
 404 307 l 1
 650 307 l 1
848 707 m 1
 948 707 l 1
 948 0 l 1
 848 0 l 1
 848 707 l 1
321 -5 m 1
 234 18 l 1
 285 207 l 1
 90 207 l 1
 90 307 l 1
 311 307 l 1
 336 400 l 1
 90 400 l 1
 90 500 l 1
 363 500 l 1
 420 712 l 1
 506 689 l 1
 456 500 l 1
 650 500 l 1
 650 707 l 1
 750 707 l 1
 750 0 l 1
 650 0 l 1
 650 207 l 1
 378 207 l 1
 321 -5 l 1
EndSplineSet
EndChar

StartChar: sym081_uni0338
Encoding: 251 -1 227
Width: 840
Flags: W
HStem: 515 100<90 274 374 466 566 750> 713 100<90 750>
VStem: 274 100<-106 104 235 515> 466 100<-106 174 305 515>
LayerCount: 2
Back
Fore
SplineSet
466 515 m 1
 374 515 l 1
 374 235 l 1
 466 269 l 1
 466 515 l 1
90 713 m 1
 90 813 l 1
 750 813 l 1
 750 713 l 1
 90 713 l 1
727 364 m 1
 758 280 l 1
 566 210 l 1
 566 -106 l 1
 466 -106 l 1
 466 174 l 1
 374 140 l 1
 374 -106 l 1
 274 -106 l 1
 274 104 l 1
 113 45 l 1
 82 129 l 1
 274 199 l 1
 274 515 l 1
 90 515 l 1
 90 615 l 1
 750 615 l 1
 750 515 l 1
 566 515 l 1
 566 305 l 1
 727 364 l 1
EndSplineSet
EndChar

StartChar: uni22AA0338
Encoding: 252 -1 228
Width: 1038
Flags: W
HStem: 0 21G<90 190 288 388 486 586 642.348 723.307> 304 100<586 708 827 948> 687 20G<90 190 288 388 486 586 811.61 891.783>
VStem: 90 100<0 707> 288 100<0 707> 486 100<0 304 404 707>
CounterMasks: 1 1c
LayerCount: 2
Back
Fore
SplineSet
190 0 m 1
 90 0 l 1
 90 707 l 1
 190 707 l 1
 190 0 l 1
388 0 m 1
 288 0 l 1
 288 707 l 1
 388 707 l 1
 388 0 l 1
817 712 m 1
 903 689 l 1
 827 404 l 1
 948 404 l 1
 948 304 l 1
 800 304 l 1
 718 -5 l 1
 631 18 l 1
 708 304 l 1
 586 304 l 1
 586 0 l 1
 486 0 l 1
 486 707 l 1
 586 707 l 1
 586 404 l 1
 734 404 l 1
 817 712 l 1
EndSplineSet
EndChar

StartChar: sym082_uni0338
Encoding: 253 -1 229
Width: 1038
Flags: W
HStem: 0 21G<146.348 227.307 452 552 650 750 848 948> 304 100<90 212 331 452> 687 20G<315.61 395.783 452 552 650 750 848 948>
VStem: 452 100<0 304 404 707> 650 100<0 707> 848 100<0 707>
CounterMasks: 1 1c
LayerCount: 2
Back
Fore
SplineSet
848 707 m 1
 948 707 l 1
 948 0 l 1
 848 0 l 1
 848 707 l 1
650 707 m 1
 750 707 l 1
 750 0 l 1
 650 0 l 1
 650 707 l 1
222 -5 m 1
 135 18 l 1
 212 304 l 1
 90 304 l 1
 90 404 l 1
 238 404 l 1
 321 712 l 1
 407 689 l 1
 331 404 l 1
 452 404 l 1
 452 707 l 1
 552 707 l 1
 552 0 l 1
 452 0 l 1
 452 304 l 1
 304 304 l 1
 222 -5 l 1
EndSplineSet
EndChar

StartChar: uni2AE20338
Encoding: 254 -1 230
Width: 840
Flags: W
HStem: 0 16G<90 190 345.348 426.345> 111 100<190 359 479 750> 304 100<190 411 530 750> 496 100<190 462 581 750> 692 15G<90 190 514.655 594.783>
VStem: 90 100<0 111 211 304 404 496 596 707>
LayerCount: 2
Back
Fore
SplineSet
190 404 m 1
 437 404 l 1
 462 496 l 1
 190 496 l 1
 190 404 l 1
190 211 m 1
 386 211 l 1
 411 304 l 1
 190 304 l 1
 190 211 l 1
520 712 m 1
 606 689 l 1
 581 596 l 1
 750 596 l 1
 750 496 l 1
 555 496 l 1
 530 404 l 1
 750 404 l 1
 750 304 l 1
 503 304 l 1
 479 211 l 1
 750 211 l 1
 750 111 l 1
 452 111 l 1
 421 -5 l 1
 334 18 l 1
 359 111 l 1
 190 111 l 1
 190 0 l 1
 90 0 l 1
 90 707 l 1
 190 707 l 1
 190 596 l 1
 489 596 l 1
 520 712 l 1
EndSplineSet
EndChar

StartChar: sym083_uni0338
Encoding: 255 -1 231
Width: 840
Flags: W
HStem: 0 16G<245.348 326.345 650 750> 111 100<90 259 379 650> 304 100<90 311 430 650> 496 100<90 362 481 650> 692 15G<414.655 494.783 650 750>
VStem: 650 100<0 111 211 304 404 496 596 707>
LayerCount: 2
Back
Fore
SplineSet
650 304 m 1
 403 304 l 1
 379 211 l 1
 650 211 l 1
 650 304 l 1
650 496 m 1
 455 496 l 1
 430 404 l 1
 650 404 l 1
 650 496 l 1
321 -5 m 1
 234 18 l 1
 259 111 l 1
 90 111 l 1
 90 211 l 1
 286 211 l 1
 311 304 l 1
 90 304 l 1
 90 404 l 1
 337 404 l 1
 362 496 l 1
 90 496 l 1
 90 596 l 1
 389 596 l 1
 420 712 l 1
 506 689 l 1
 481 596 l 1
 650 596 l 1
 650 707 l 1
 750 707 l 1
 750 0 l 1
 650 0 l 1
 650 111 l 1
 352 111 l 1
 321 -5 l 1
EndSplineSet
EndChar
